{
.formatVersion = 3;
axes = (
{
name = Weight;
tag = wght;
}
);
classes = (
{
code = "periodcentered.loclCAT at dieresiscomb dotaccentcomb gravecomb acutecomb hungarumlautcomb circumflexcomb caroncomb brevecomb ringcomb tildecomb macroncomb hookabovecomb dblgravecomb breveinvertedcomb commaturnedabovecomb slashlongcomb";
name = case;
},
{
code = "periodcentered.loclCAT.case at.case dieresiscomb.case dotaccentcomb.case gravecomb.case acutecomb.case hungarumlautcomb.case circumflexcomb.case caroncomb.case brevecomb.case ringcomb.case tildecomb.case macroncomb.case hookabovecomb.case dblgravecomb.case breveinvertedcomb.case commaturnedabovecomb.case slashlongcomb.case";
name = case2;
},
{
code = "gravecomb acutecomb circumflexcomb tildecomb macroncomb brevecomb dotaccentcomb dieresiscomb ringcomb hungarumlautcomb caroncomb commaturnedabovecomb hookabovecomb gravetonecomb acutetonecomb dblgravecomb breveinvertedcomb";
name = ccmp;
},
{
code = "dieresiscomb dotaccentcomb gravecomb acutecomb hungarumlautcomb circumflexcomb caroncomb brevecomb ringcomb tildecomb macroncomb hookabovecomb dblgravecomb breveinvertedcomb commaturnedabovecomb slashlongcomb";
name = ccmp2;
},
{
code = "dieresiscomb.case dotaccentcomb.case gravecomb.case acutecomb.case hungarumlautcomb.case circumflexcomb.case caroncomb.case brevecomb.case ringcomb.case tildecomb.case macroncomb.case hookabovecomb.case dblgravecomb.case breveinvertedcomb.case commaturnedabovecomb.case slashlongcomb.case";
name = ccmp3;
},
{

glyphs = (
{
glyphname = .notdef;
layers = (
{
layerId = "8644C546-E7FE-4718-8D12-21E7933BC7CE";
shapes = (
{
closed = 1;
nodes = (
(412,165,l),
(218,165,l),
(218,553,l),
(412,553,l)
);
},
{
closed = 1;
nodes = (
(60,718,l),
(60,0,l),
(570,0,l),
(570,718,l)
);
},
{
closed = 1;
nodes = (
(62,138,l),
(186,42,l),
(568,580,l),
(444,676,l)
);
}
);
width = 630;
},
{
layerId = "B882EE25-4F70-487C-AAE1-5981B86ECF6B";
shapes = (
{
closed = 1;
nodes = (
(516,82,l),
(138,82,l),
(138,636,l),
(516,636,l)
);
},
{
closed = 1;
nodes = (
(72,718,l),
(72,0,l),
(582,0,l),
(582,718,l)
);
},
{
closed = 1;
nodes = (
(85,78,l),
(137,30,l),
(569,640,l),
(517,688,l)
);
}
);
width = 654;
},
{
layerId = "DF327079-0489-4E1B-B65C-406769ADC3EE";
shapes = (
{
closed = 1;
nodes = (
(548,34,l),
(114,34,l),
(114,684,l),
(548,684,l)
);
},
{
closed = 1;
nodes = (
(76,718,l),
(76,0,l),
(586,0,l),
(586,718,l)
);
},
{
closed = 1;
nodes = (
(77,31,l),
(109,11,l),
(585,687,l),
(553,707,l)
);
}
);
width = 662;
}
);
},
{
glyphname = exclam;
layers = (
{
layerId = "8644C546-E7FE-4718-8D12-21E7933BC7CE";
shapes = (
{
closed = 1;
nodes = (
(48,730,l),
(68,234,l),
(200,234,l),
(218,730,l)
);
},
{
closed = 1;
nodes = (
(186,-16,o),
(223,20,o),
(223,69,cs),
(223,118,o),
(186,155,o),
(135,155,cs),
(87,155,o),
(51,118,o),
(51,69,cs),
(51,20,o),
(87,-16,o),
(135,-16,cs)
);
}
);
width = 268;
},
{
layerId = "B882EE25-4F70-487C-AAE1-5981B86ECF6B";
shapes = (
{
closed = 1;
nodes = (
(62,730,l),
(75,211,l),
(141,211,l),
(152,730,l)
);
},
{
closed = 1;
nodes = (
(141,-13,o),
(165,10,o),
(165,41,cs),
(165,72,o),
(141,94,o),
(109,94,cs),
(79,94,o),
(57,71,o),
(57,41,cs),
(57,9,o),
(79,-13,o),
(109,-13,cs)
);
}
);
width = 215;
},
{
layerId = "DF327079-0489-4E1B-B65C-406769ADC3EE";
shapes = (
{
closed = 1;
nodes = (
(71,730,l),
(79,198,l),
(105,198,l),
(112,730,l)
);
},
{
closed = 1;
nodes = (
(114,-10,o),
(130,5,o),
(130,25,cs),
(130,45,o),
(114,59,o),
(94,59,cs),
(74,59,o),
(60,44,o),
(60,25,cs),
(60,4,o),
(74,-10,o),
(94,-10,cs)
);
}
);
width = 183;
}
);
unicode = 33;
},
{
glyphname = quotedbl;
layers = (
{
layerId = "8644C546-E7FE-4718-8D12-21E7933BC7CE";
shapes = (
{
closed = 1;
nodes = (
(244,746,l),
(406,746,l),
(391,452,l),
(259,452,l)
);
},
{
closed = 1;
nodes = (
(47,746,l),
(209,746,l),
(194,452,l),
(62,452,l)
);
}
);
width = 453;
},
{
layerId = "B882EE25-4F70-487C-AAE1-5981B86ECF6B";
shapes = (
{
closed = 1;
nodes = (
(198,716,l),
(285,716,l),
(276,487,l),
(207,487,l)
);
},
{
closed = 1;
nodes = (
(61,716,l),
(148,716,l),
(139,487,l),
(70,487,l)
);
}
);
width = 346;
},
{
layerId = "DF327079-0489-4E1B-B65C-406769ADC3EE";
shapes = (
{
closed = 1;
nodes = (
(175,705,l),
(221,705,l),
(215,498,l),
(181,498,l)
);
},
{
closed = 1;
nodes = (
(66,705,l),
(112,705,l),
(106,498,l),
(72,498,l)
);
}
);
width = 287;
}
);
leftKerningGroup = degree2;
rightKerningGroup = degree;
unicode = 34;
},
{
glyphname = numbersign;
layers = (
{
layerId = "8644C546-E7FE-4718-8D12-21E7933BC7CE";
shapes = (
{
closed = 1;
nodes = (
(128,155,l),
(110,25,l),
(269,25,l),
(287,155,l),
(337,155,l),
(319,25,l),
(478,25,l),
(496,155,l),
(596,155,l),
(617,303,l),
(517,303,l),
(524,354,l),
(624,354,l),
(645,502,l),
(545,502,l),
(564,636,l),
(403,636,l),
(384,502,l),
(336,502,l),
(355,636,l),
(194,636,l),
(175,502,l),
(75,502,l),
(54,354,l),
(154,354,l),
(147,303,l),
(47,303,l),
(26,155,l)
);
},
{
closed = 1;
nodes = (
(356,303,l),
(308,303,l),
(315,354,l),
(363,354,l)
);
}
);
width = 671;
},
{
layerId = "B882EE25-4F70-487C-AAE1-5981B86ECF6B";
shapes = (
{
closed = 1;
nodes = (
(139,178,l),
(118,29,l),
(194,29,l),
(215,178,l),
(355,178,l),
(334,29,l),
(410,29,l),
(431,178,l),
(542,178,l),
(553,252,l),
(442,252,l),
(463,399,l),
(574,399,l),
(584,472,l),
(473,472,l),
(494,621,l),
(416,621,l),
(395,472,l),
(257,472,l),
(278,621,l),
(200,621,l),
(179,472,l),
(68,472,l),
(58,399,l),
(169,399,l),
(148,252,l),
(37,252,l),
(26,178,l)
);
},
{
closed = 1;
nodes = (
(364,252,l),
(226,252,l),
(247,399,l),
(385,399,l)
);
}
);
width = 610;
},
{
layerId = "DF327079-0489-4E1B-B65C-406769ADC3EE";
shapes = (
{
closed = 1;
nodes = (
(146,190,l),
(123,32,l),
(159,32,l),
(182,190,l),
(374,190,l),
(351,32,l),
(386,32,l),
(409,190,l),
(526,190,l),
(531,226,l),
(414,226,l),
(442,425,l),
(559,425,l),
(564,460,l),
(447,460,l),
(470,617,l),
(431,617,l),
(408,460,l),
(220,460,l),
(243,617,l),
(205,617,l),
(182,460,l),
(65,460,l),
(60,425,l),
(177,425,l),
(149,226,l),
(32,226,l),
(27,190,l)
);
},
{
closed = 1;
nodes = (
(375,226,l),
(187,226,l),
(215,425,l),
(403,425,l)
);
}
);
width = 591;
}
);
unicode = 35;
},
{
glyphname = dollar;
layers = (
{
layerId = "8644C546-E7FE-4718-8D12-21E7933BC7CE";
shapes = (
{
closed = 1;
nodes = (
(362,-30,o),
(443,11,o),
(488,78,cs),
(510,111,o),
(521,149,o),
(521,190,cs),
(521,247,o),
(490,293,o),
(428,334,cs),
(397,355,o),
(356,376,o),
(307,397,cs),
(283,408,o),
(263,418,o),
(247,428,cs),
(231,438,o),
(219,448,o),
(212,457,cs),
(205,466,o),
(201,473,o),
(201,480,cs),
(201,499,o),
(210,513,o),
(230,521,cs),
(239,524,o),
(251,526,o),
(264,526,cs),
(297,526,o),
(316,502,o),
(321,477,c),
(466,515,l),
(460,563,o),
(437,601,o),
(397,629,cs),
(357,657,o),
(306,669,o),
(244,666,cs),
(169,662,o),
(105,632,o),
(68,580,cs),
(49,554,o),
(39,524,o),
(37,489,cs),
(33,426,o),
(52,381,o),
(111,337,cs),
(140,315,o),
(182,293,o),
(235,271,cs),
(266,258,o),
(291,247,o),
(308,237,cs),
(325,227,o),
(338,218,o),
(345,209,cs),
(352,200,o),
(356,191,o),
(356,182,cs),
(356,157,o),
(342,137,o),
(315,126,cs),
(302,121,o),
(286,118,o),
(268,118,c),
(235,117,o),
(210,126,o),
(193,145,cs),
(176,163,o),
(165,185,o),
(160,211,c),
(14,171,l),
(27,94,o),
(73,31,o),
(145,-4,cs),
(180,-21,o),
(221,-30,o),
(266,-30,cs)
);
},
{
closed = 1;
nodes = (
(214,748,l),
(214,-93,l),
(342,-93,l),
(342,748,l)
);
}
);
width = 532;
},
{
layerId = "B882EE25-4F70-487C-AAE1-5981B86ECF6B";
shapes = (
{
closed = 1;
nodes = (
(314,-24,o),
(390,7,o),
(435,68,cs),
(458,98,o),
(469,134,o),
(470,177,cs),
(471,249,o),
(433,296,o),
(376,327,cs),
(347,342,o),
(309,359,o),
(261,378,cs),
(235,388,o),
(214,397,o),
(197,406,cs),
(180,415,o),
(166,426,o),
(155,441,c),
(143,455,o),
(138,472,o),
(140,493,cs),
(144,528,o),
(168,555,o),
(202,570,cs),
(219,577,o),
(236,581,o),
(255,580,c),
(315,579,o),
(343,550,o),
(348,518,c),
(423,540,l),
(418,572,o),
(400,599,o),
(370,622,c),
(339,644,o),
(301,655,o),
(256,655,cs),
(193,655,o),
(131,630,o),
(92,582,cs),
(72,558,o),
(61,529,o),
(58,495,cs),
(51,424,o),
(90,378,o),
(135,351,cs),
(158,338,o),
(185,325,o),
(216,313,cs),
(259,296,o),
(292,282,o),
(315,271,cs),
(337,260,o),
(355,246,o),
(369,231,c),
(382,215,o),
(389,195,o),
(388,172,cs),
(387,125,o),
(360,88,o),
(318,69,cs),
(297,59,o),
(274,54,o),
(250,55,cs),
(211,56,o),
(177,68,o),
(147,92,cs),
(117,115,o),
(98,145,o),
(90,180,c),
(15,156,l),
(26,92,o),
(71,37,o),
(135,6,cs),
(167,-10,o),
(201,-19,o),
(238,-20,cs)
);
},
{
closed = 1;
nodes = (
(211,740,l),
(211,-99,l),
(293,-99,l),
(293,740,l)
);
}
);
width = 490;
},
{
layerId = "DF327079-0489-4E1B-B65C-406769ADC3EE";
shapes = (
{
closed = 1;
nodes = (
(307,-24,o),
(378,7,o),
(419,64,cs),
(439,93,o),
(450,126,o),
(451,163,cs),
(454,234,o),
(413,284,o),
(364,314,cs),
(339,329,o),
(307,345,o),
(266,363,cs),
(225,382,o),
(195,397,o),
(175,408,cs),
(155,419,o),
(139,432,o),
(126,449,cs),
(113,466,o),
(107,486,o),
(110,509,cs),
(114,548,o),
(145,582,o),
(188,601,cs),
(209,610,o),
(232,615,o),
(255,614,cs),
(319,611,o),
(364,588,o),
(369,548,c),
(406,560,l),
(401,585,o),
(386,606,o),
(361,623,cs),
(336,639,o),
(306,648,o),
(269,650,cs),
(197,654,o),
(135,628,o),
(100,582,cs),
(82,559,o),
(73,532,o),
(72,502,cs),
(71,443,o),
(104,404,o),
(149,377,cs),
(172,364,o),
(204,348,o),
(246,329,cs),
(284,312,o),
(314,297,o),
(337,284,cs),
(359,271,o),
(378,254,o),
(393,234,cs),
(408,214,o),
(414,190,o),
(412,163,cs),
(408,104,o),
(373,55,o),
(319,31,cs),
(292,19,o),
(262,14,o),
(230,17,cs),
(191,20,o),
(156,34,o),
(124,57,cs),
(92,80,o),
(70,110,o),
(58,147,c),
(22,134,l),
(38,77,o),
(84,30,o),
(141,4,c),
(169,-10,o),
(198,-17,o),
(228,-19,cs)
);
},
{
closed = 1;
nodes = (
(229,738,l),
(229,-105,l),
(267,-105,l),
(267,738,l)
);
}
);
width = 481;
}
);
unicode = 36;
},
{
glyphname = percent;
layers = (
{
layerId = "8644C546-E7FE-4718-8D12-21E7933BC7CE";
shapes = (
{
closed = 1;
nodes = (
(621,-16,o),
(592,-9,o),
(566,6,cs),
(513,35,o),
(481,89,o),
(481,153,cs),
(481,185,o),
(489,214,o),
(504,241,cs),
(534,293,o),
(589,325,o),
(654,325,cs),
(687,325,o),
(716,317,o),
(743,302,cs),
(796,271,o),
(829,216,o),
(829,151,cs),
(829,120,o),
(821,91,o),
(806,66,cs),
(775,15,o),
(719,-16,o),
(654,-16,cs)
);
},
{
closed = 1;
nodes = (
(686,87,o),
(708,115,o),
(708,152,cs),
(708,190,o),
(686,217,o),
(656,217,cs),
(623,217,o),
(601,187,o),
(601,150,cs),
(601,112,o),
(623,87,o),
(656,87,cs)
);
},
{
closed = 1;
nodes = (
(687,717,l),
(291,-4,l),
(162,-4,l),
(560,717,l)
);
},
{
closed = 1;
nodes = (
(161,381,o),
(132,388,o),
(106,403,cs),
(53,432,o),
(21,486,o),
(21,550,cs),
(21,582,o),
(29,611,o),
(44,638,cs),
(74,690,o),
(129,722,o),
(194,722,cs),
(227,722,o),
(256,714,o),
(283,699,cs),
(336,668,o),
(369,613,o),
(369,548,cs),
(369,517,o),
(361,488,o),
(346,463,cs),
(315,412,o),
(259,381,o),
(194,381,cs)
);
},
{
closed = 1;
nodes = (
(226,484,o),
(248,512,o),
(248,549,cs),
(248,587,o),
(226,614,o),
(196,614,cs),
(163,614,o),
(141,584,o),
(141,547,cs),
(141,509,o),
(163,484,o),
(196,484,cs)
);
}
);
width = 850;
},
{
layerId = "B882EE25-4F70-487C-AAE1-5981B86ECF6B";
shapes = (
{
closed = 1;
nodes = (
(564,-11,o),
(539,-5,o),
(517,8,cs),
(473,33,o),
(447,79,o),
(447,135,cs),
(447,163,o),
(454,188,o),
(466,211,c),
(491,255,o),
(538,281,o),
(594,281,cs),
(622,281,o),
(647,274,o),
(669,262,cs),
(713,237,o),
(740,190,o),
(740,133,cs),
(740,106,o),
(733,81,o),
(721,59,c),
(695,15,o),
(648,-11,o),
(592,-11,cs)
);
},
{
closed = 1;
nodes = (
(632,54,o),
(664,90,o),
(664,134,cs),
(664,178,o),
(632,214,o),
(594,214,cs),
(554,214,o),
(521,178,o),
(521,133,cs),
(521,90,o),
(553,54,o),
(594,54,cs)
);
},
{
closed = 1;
nodes = (
(635,707,l),
(239,-14,l),
(152,-14,l),
(550,707,l)
);
},
{
closed = 1;
nodes = (
(145,424,o),
(120,430,o),
(98,443,cs),
(54,468,o),
(28,514,o),
(28,570,cs),
(28,598,o),
(35,623,o),
(47,646,c),
(72,690,o),
(119,716,o),
(175,716,cs),
(203,716,o),
(228,709,o),
(250,697,cs),
(294,672,o),
(321,625,o),
(321,568,cs),
(321,541,o),
(314,516,o),
(302,494,c),
(276,450,o),
(229,424,o),
(173,424,cs)
);
},
{
closed = 1;
nodes = (
(213,489,o),
(245,525,o),
(245,569,cs),
(245,613,o),
(213,649,o),
(175,649,cs),
(135,649,o),
(102,613,o),
(102,568,cs),
(102,525,o),
(134,489,o),
(175,489,cs)
);
}
);
width = 767;
},
{
layerId = "DF327079-0489-4E1B-B65C-406769ADC3EE";
shapes = (
{
closed = 1;
nodes = (
(559,-13,o),
(536,-7,o),
(516,5,cs),
(476,28,o),
(453,70,o),
(453,123,cs),
(453,149,o),
(459,172,o),
(470,192,cs),
(493,232,o),
(536,256,o),
(588,256,cs),
(613,256,o),
(636,250,o),
(656,239,cs),
(696,216,o),
(719,173,o),
(719,121,cs),
(719,95,o),
(713,72,o),
(702,52,cs),
(679,11,o),
(636,-13,o),
(584,-13,cs)
);
},
{
closed = 1;
nodes = (
(643,20,o),
(680,59,o),
(680,122,cs),
(680,183,o),
(644,223,o),
(587,223,cs),
(528,223,o),
(490,184,o),
(490,121,cs),
(490,60,o),
(527,20,o),
(586,20,cs)
);
},
{
closed = 1;
nodes = (
(565,698,l),
(180,-9,l),
(139,-9,l),
(525,698,l)
);
},
{
closed = 1;
nodes = (
(148,430,o),
(125,436,o),
(105,448,cs),
(65,471,o),
(42,513,o),
(42,566,cs),
(42,592,o),
(48,615,o),
(59,635,cs),
(82,675,o),
(125,699,o),
(177,699,cs),
(202,699,o),
(225,693,o),
(245,682,cs),
(285,659,o),
(308,616,o),
(308,564,cs),
(308,538,o),
(302,515,o),
(291,495,cs),
(268,454,o),
(225,430,o),
(173,430,cs)
);
},
{
closed = 1;
nodes = (
(232,463,o),
(269,502,o),
(269,565,cs),
(269,626,o),
(233,666,o),
(176,666,cs),
(117,666,o),
(79,627,o),
(79,564,cs),
(79,503,o),
(116,463,o),
(175,463,cs)
);
}
);
width = 761;
}
);
leftKerningGroup = degree2;
unicode = 37;
},
{
glyphname = ampersand;
layers = (
{
layerId = "8644C546-E7FE-4718-8D12-21E7933BC7CE";
shapes = (
{
closed = 1;
nodes = (
(634,77,l),
(591,116,o),
(547,154,o),
(503,192,cs),
(474,217,o),
(441,247,o),
(403,282,cs),
(364,317,o),
(333,348,o),
(308,373,cs),
(261,421,o),
(245,447,o),
(245,476,cs),
(245,493,o),
(253,507,o),
(266,515,cs),
(272,518,o),
(279,520,o),
(288,520,cs),
(311,520,o),
(328,509,o),
(339,489,c),
(471,555,l),
(439,619,o),
(369,668,o),
(286,668,cs),
(217,668,o),
(149,635,o),
(110,579,cs),
(90,550,o),
(80,518,o),
(80,481,cs),
(80,445,o),
(89,412,o),
(108,383,cs),
(126,354,o),
(153,321,o),
(189,285,cs),
(219,254,o),
(255,219,o),
(298,179,cs),
(340,139,o),
(378,104,o),
(411,75,cs),
(429,60,o),
(447,44,o),
(464,29,cs),
(489,8,o),
(513,-14,o),
(537,-35,c)
);
},
{
closed = 1;
nodes = (
(348,-33,o),
(406,-14,o),
(452,25,cs),
(498,64,o),
(532,112,o),
(553,171,cs),
(574,229,o),
(585,288,o),
(585,348,c),
(442,348,l),
(442,249,o),
(414,178,o),
(367,142,cs),
(343,123,o),
(316,114,o),
(285,114,cs),
(248,114,o),
(219,129,o),
(204,154,cs),
(197,167,o),
(193,181,o),
(193,197,cs),
(193,228,o),
(207,257,o),
(250,277,c),
(187,411,l),
(142,390,o),
(104,359,o),
(74,318,cs),
(43,277,o),
(28,231,o),
(28,180,cs),
(28,97,o),
(74,30,o),
(150,-6,cs),
(188,-24,o),
(231,-33,o),
(278,-33,cs)
);
}
);
width = 646;
},
{
layerId = "B882EE25-4F70-487C-AAE1-5981B86ECF6B";
shapes = (
{
closed = 1;
nodes = (
(605,35,l),
(521,108,o),
(462,159,o),
(429,189,cs),
(406,210,o),
(379,235,o),
(349,263,cs),
(319,291,o),
(293,316,o),
(271,338,cs),
(200,410,o),
(174,452,o),
(174,491,cs),
(174,520,o),
(188,547,o),
(216,563,c),
(230,570,o),
(247,574,o),
(266,574,cs),
(310,574,o),
(340,553,o),
(357,518,c),
(422,553,l),
(394,609,o),
(338,650,o),
(267,650,cs),
(202,650,o),
(147,617,o),
(117,566,cs),
(102,541,o),
(94,514,o),
(94,486,cs),
(94,459,o),
(103,430,o),
(120,401,cs),
(137,372,o),
(168,335,o),
(211,291,cs),
(238,263,o),
(274,229,o),
(317,189,cs),
(360,148,o),
(394,117,o),
(419,95,cs),
(439,78,o),
(459,60,o),
(478,43,c),
(483,40,o),
(508,18,o),
(555,-22,c)
);
},
{
closed = 1;
nodes = (
(327,-15,o),
(381,3,o),
(424,40,cs),
(467,76,o),
(498,121,o),
(518,176,cs),
(537,231,o),
(547,287,o),
(547,345,c),
(471,345,l),
(471,233,o),
(436,144,o),
(372,97,cs),
(340,73,o),
(302,61,o),
(259,61,cs),
(204,61,o),
(159,82,o),
(136,118,c),
(124,135,o),
(118,155,o),
(118,178,cs),
(118,231,o),
(152,285,o),
(209,312,c),
(177,376,l),
(134,359,o),
(101,332,o),
(76,296,cs),
(51,259,o),
(38,219,o),
(38,174,cs),
(38,93,o),
(83,35,o),
(151,7,c),
(184,-8,o),
(221,-15,o),
(261,-15,cs)
);
}
);
width = 624;
},
{
layerId = "DF327079-0489-4E1B-B65C-406769ADC3EE";
shapes = (
{
closed = 1;
nodes = (
(599,8,l),
(508,86,o),
(453,133,o),
(436,149,cs),
(409,174,o),
(376,204,o),
(338,241,c),
(299,277,o),
(269,306,o),
(247,328,cs),
(166,409,o),
(141,459,o),
(141,500,cs),
(141,540,o),
(166,577,o),
(205,598,cs),
(224,608,o),
(245,613,o),
(268,613,cs),
(319,613,o),
(356,586,o),
(379,541,c),
(410,557,l),
(382,612,o),
(331,649,o),
(266,649,cs),
(205,649,o),
(152,619,o),
(124,572,cs),
(110,549,o),
(103,524,o),
(103,498,cs),
(103,471,o),
(112,443,o),
(130,414,cs),
(148,385,o),
(179,348,o),
(222,303,cs),
(244,280,o),
(274,251,o),
(313,215,c),
(351,178,o),
(384,147,o),
(412,122,cs),
(418,116,o),
(449,89,o),
(505,41,cs),
(529,21,o),
(553,1,o),
(576,-20,c)
);
},
{
closed = 1;
nodes = (
(310,-13,o),
(359,2,o),
(402,33,cs),
(445,64,o),
(478,106,o),
(502,159,cs),
(526,212,o),
(538,272,o),
(538,339,c),
(502,339,l),
(502,220,o),
(459,120,o),
(385,65,cs),
(348,37,o),
(306,23,o),
(259,23,cs),
(196,23,o),
(138,49,o),
(106,94,cs),
(89,117,o),
(81,142,o),
(81,171,cs),
(81,235,o),
(123,299,o),
(192,335,c),
(177,365,l),
(136,346,o),
(104,319,o),
(80,284,cs),
(55,249,o),
(43,211,o),
(43,172,cs),
(43,105,o),
(81,45,o),
(146,12,cs),
(178,-5,o),
(214,-13,o),
(255,-13,cs)
);
}
);
width = 628;
}
);
unicode = 38;
},
{
glyphname = quotesingle;
layers = (
{
layerId = "8644C546-E7FE-4718-8D12-21E7933BC7CE";
shapes = (
{
closed = 1;
nodes = (
(47,743,l),
(209,743,l),
(194,449,l),
(62,449,l)
);
}
);
width = 256;
},
{
layerId = "B882EE25-4F70-487C-AAE1-5981B86ECF6B";
shapes = (
{
closed = 1;
nodes = (
(61,716,l),
(148,716,l),
(139,487,l),
(70,487,l)
);
}
);
width = 209;
},
{
layerId = "DF327079-0489-4E1B-B65C-406769ADC3EE";
shapes = (
{
closed = 1;
nodes = (
(66,705,l),
(112,705,l),
(106,498,l),
(72,498,l)
);
}
);
width = 178;
}
);
leftKerningGroup = degree2;
rightKerningGroup = degree;
unicode = 39;
},
{
glyphname = parenleft;
layers = (
{
layerId = "8644C546-E7FE-4718-8D12-21E7933BC7CE";
shapes = (
{
closed = 1;
nodes = (
(389,-36,l),
(314,-4,o),
(247,72,o),
(208,164,cs),
(189,210,o),
(179,256,o),
(179,302,cs),
(179,403,o),
(216,503,o),
(280,571,cs),
(312,605,o),
(348,629,o),
(388,642,c),
(314,769,l),
(190,720,o),
(99,622,o),
(53,499,cs),
(30,438,o),
(18,373,o),
(18,305,cs),
(18,201,o),
(44,108,o),
(97,25,cs),
(150,-58,o),
(222,-120,o),
(314,-161,c)
);
}
);
width = 394;
},
{
layerId = "B882EE25-4F70-487C-AAE1-5981B86ECF6B";
shapes = (
{
closed = 1;
nodes = (
(329,-99,l),
(240,-50,o),
(172,34,o),
(136,136,cs),
(118,187,o),
(109,240,o),
(109,296,cs),
(109,412,o),
(147,518,o),
(213,598,cs),
(246,638,o),
(284,669,o),
(329,692,c),
(293,754,l),
(178,695,o),
(98,597,o),
(58,480,cs),
(37,421,o),
(27,360,o),
(27,295,cs),
(27,197,o),
(50,108,o),
(97,27,cs),
(143,-54,o),
(208,-116,o),
(293,-161,c)
);
}
);
width = 337;
},
{
layerId = "DF327079-0489-4E1B-B65C-406769ADC3EE";
shapes = (
{
closed = 1;
nodes = (
(301,-132,l),
(208,-76,o),
(137,12,o),
(98,121,cs),
(79,176,o),
(69,233,o),
(69,294,cs),
(69,411,o),
(109,524,o),
(178,612,cs),
(213,656,o),
(254,692,o),
(301,721,c),
(285,749,l),
(172,685,o),
(97,587,o),
(61,473,cs),
(42,416,o),
(33,356,o),
(33,293,cs),
(33,197,o),
(55,109,o),
(99,29,cs),
(142,-52,o),
(204,-115,o),
(285,-161,c)
);
}
);
width = 313;
}
);
rightKerningGroup = parenleft;
unicode = 40;
},
{
glyphname = parenright;
layers = (
{
layerId = "8644C546-E7FE-4718-8D12-21E7933BC7CE";
shapes = (
{
closed = 1;
nodes = (
(80,-161,l),
(172,-120,o),
(244,-58,o),
(297,25,cs),
(350,108,o),
(376,201,o),
(376,305,cs),
(376,441,o),
(329,568,o),
(240,662,cs),
(195,709,o),
(142,744,o),
(80,769,c),
(6,642,l),
(86,615,o),
(153,544,o),
(189,449,cs),
(206,402,o),
(215,353,o),
(215,302,cs),
(215,210,o),
(173,113,o),
(109,42,cs),
(77,6,o),
(42,-20,o),
(5,-36,c)
);
}
);
width = 394;
},
{
layerId = "B882EE25-4F70-487C-AAE1-5981B86ECF6B";
shapes = (
{
closed = 1;
nodes = (
(44,-161,l),
(129,-116,o),
(194,-54,o),
(241,27,cs),
(287,108,o),
(310,197,o),
(310,295,cs),
(310,424,o),
(269,544,o),
(190,639,cs),
(150,686,o),
(101,725,o),
(44,754,c),
(8,692,l),
(97,647,o),
(165,564,o),
(201,461,cs),
(219,409,o),
(228,354,o),
(228,296,cs),
(228,184,o),
(191,79,o),
(125,-2,cs),
(92,-42,o),
(53,-74,o),
(8,-99,c)
);
}
);
width = 337;
},
{
layerId = "DF327079-0489-4E1B-B65C-406769ADC3EE";
shapes = (
{
closed = 1;
nodes = (
(28,-161,l),
(109,-115,o),
(171,-52,o),
(215,29,cs),
(258,109,o),
(280,197,o),
(280,293,cs),
(280,418,o),
(244,534,o),
(169,630,cs),
(132,677,o),
(85,717,o),
(28,749,c),
(12,721,l),
(107,664,o),
(178,573,o),
(216,464,cs),
(235,409,o),
(244,353,o),
(244,294,cs),
(244,173,o),
(203,61,o),
(134,-26,cs),
(99,-69,o),
(59,-104,o),
(12,-132,c)
);
}
);
width = 313;
}
);
leftKerningGroup = parenright;
unicode = 41;
},
{
glyphname = asterisk;
layers = (
{
layerId = "8644C546-E7FE-4718-8D12-21E7933BC7CE";
shapes = (
{
closed = 1;
nodes = (
(67,458,l),
(187,369,l),
(254,482,l),
(319,372,l),
(437,455,l),
(358,547,l),
(476,573,l),
(434,713,l),
(314,662,l),
(326,796,l),
(179,796,l),
(191,663,l),
(71,713,l),
(26,573,l),
(148,548,l)
);
}
);
width = 502;
},
{
layerId = "B882EE25-4F70-487C-AAE1-5981B86ECF6B";
shapes = (
{
closed = 1;
nodes = (
(78,459,l),
(146,407,l),
(226,532,l),
(306,409,l),
(374,458,l),
(288,564,l),
(424,602,l),
(398,683,l),
(260,628,l),
(268,780,l),
(183,780,l),
(191,629,l),
(54,683,l),
(28,602,l),
(165,566,l)
);
}
);
width = 453;
},
{
layerId = "DF327079-0489-4E1B-B65C-406769ADC3EE";
shapes = (
{
closed = 1;
nodes = (
(86,468,l),
(120,441,l),
(210,580,l),
(300,442,l),
(336,468,l),
(239,585,l),
(391,629,l),
(377,671,l),
(223,610,l),
(234,779,l),
(187,779,l),
(196,611,l),
(44,671,l),
(31,629,l),
(183,587,l)
);
}
);
width = 422;
}
);
leftKerningGroup = degree2;
rightKerningGroup = degree;
unicode = 42;
},
{
glyphname = plus;
layers = (
{
layerId = "8644C546-E7FE-4718-8D12-21E7933BC7CE";
shapes = (
{
closed = 1;
nodes = (
(193,227,l),
(59,227,l),
(59,375,l),
(193,375,l),
(193,511,l),
(354,511,l),
(354,375,l),
(488,375,l),
(488,227,l),
(354,227,l),
(354,90,l),
(193,90,l)
);
}
);
width = 546;
},
{
layerId = "B882EE25-4F70-487C-AAE1-5981B86ECF6B";
shapes = (
{
closed = 1;
nodes = (
(221,259,l),
(73,259,l),
(73,332,l),
(221,332,l),
(221,487,l),
(299,487,l),
(299,332,l),
(448,332,l),
(448,259,l),
(299,259,l),
(299,103,l),
(221,103,l)
);
}
);
width = 520;
},
{
layerId = "DF327079-0489-4E1B-B65C-406769ADC3EE";
shapes = (
{
closed = 1;
nodes = (
(221,276,l),
(64,276,l),
(64,310,l),
(221,310,l),
(221,474,l),
(259,474,l),
(259,310,l),
(417,310,l),
(417,276,l),
(259,276,l),
(259,111,l),
(221,111,l)
);
}
);
width = 480;
}
);
unicode = 43;
},
{
glyphname = comma;
layers = (
{
layerId = "8644C546-E7FE-4718-8D12-21E7933BC7CE";
shapes = (
{
closed = 1;
nodes = (
(103,-198,l),
(134,-167,o),
(165,-121,o),
(186,-66,cs),
(206,-14,o),
(212,37,o),
(212,65,cs),
(212,122,o),
(175,161,o),
(131,161,cs),
(110,161,o),
(92,153,o),
(75,136,cs),
(58,119,o),
(49,100,o),
(49,78,cs),
(49,73,o),
(50,61,o),
(53,44,cs),
(60,5,o),
(62,-13,o),
(58,-40,cs),
(54,-71,o),
(40,-106,o),
(19,-133,c)
);
}
);
width = 240;
},
{
layerId = "B882EE25-4F70-487C-AAE1-5981B86ECF6B";
shapes = (
{
closed = 1;
nodes = (
(93,-148,l),
(122,-117,o),
(148,-75,o),
(159,-46,c),
(168,-19,o),
(176,22,o),
(176,49,cs),
(176,77,o),
(159,95,o),
(134,95,cs),
(122,95,o),
(112,91,o),
(105,83,cs),
(97,74,o),
(93,63,o),
(93,50,c),
(94,41,o),
(94,33,o),
(95,24,cs),
(96,5,o),
(98,-18,o),
(95,-30,c),
(91,-54,o),
(68,-92,o),
(51,-116,c)
);
}
);
width = 240;
},
{
layerId = "DF327079-0489-4E1B-B65C-406769ADC3EE";
shapes = (
{
closed = 1;
nodes = (
(103,-121,l),
(122,-97,o),
(135,-68,o),
(143,-44,cs),
(151,-17,o),
(155,14,o),
(155,43,cs),
(155,58,o),
(146,71,o),
(131,71,cs),
(124,71,o),
(118,69,o),
(114,64,cs),
(110,59,o),
(108,52,o),
(108,43,cs),
(108,40,o),
(108,38,o),
(108,35,c),
(109,14,o),
(109,-13,o),
(104,-32,cs),
(99,-53,o),
(85,-83,o),
(72,-103,c)
);
}
);
width = 240;
}
);
unicode = 44;
},
{
glyphname = hyphen;
layers = (
{
layerId = "8644C546-E7FE-4718-8D12-21E7933BC7CE";
shapes = (
{
closed = 1;
nodes = (
(58,392,l),
(58,244,l),
(442,244,l),
(442,392,l)
);
}
);
width = 500;
},
{
layerId = "B882EE25-4F70-487C-AAE1-5981B86ECF6B";
shapes = (
{
closed = 1;
nodes = (
(85,345,l),
(85,269,l),
(416,269,l),
(416,345,l)
);
}
);
width = 500;
},
{
layerId = "DF327079-0489-4E1B-B65C-406769ADC3EE";
shapes = (
{
closed = 1;
nodes = (
(97,324,l),
(97,288,l),
(404,288,l),
(404,324,l)
);
}
);
width = 500;
}
);
leftKerningGroup = hyphen2;
rightKerningGroup = hyphen;
unicode = 45;
},
{
glyphname = period;
layers = (
{
layerId = "8644C546-E7FE-4718-8D12-21E7933BC7CE";
shapes = (
{
closed = 1;
nodes = (
(169,-11,o),
(206,25,o),
(206,74,cs),
(206,123,o),
(169,160,o),
(118,160,cs),
(70,160,o),
(34,123,o),
(34,74,cs),
(34,25,o),
(70,-11,o),
(118,-11,cs)
);
}
);
width = 240;
},
{
layerId = "B882EE25-4F70-487C-AAE1-5981B86ECF6B";
shapes = (
{
closed = 1;
nodes = (
(150,-14,o),
(172,9,o),
(172,38,cs),
(172,69,o),
(150,91,o),
(119,91,cs),
(90,91,o),
(67,69,o),
(67,38,cs),
(67,9,o),
(90,-14,o),
(119,-14,cs)
);
}
);
width = 240;
},
{
layerId = "DF327079-0489-4E1B-B65C-406769ADC3EE";
shapes = (
{
closed = 1;
nodes = (
(139,-5,o),
(155,10,o),
(155,30,cs),
(155,50,o),
(139,64,o),
(119,64,cs),
(99,64,o),
(85,49,o),
(85,30,cs),
(85,9,o),
(99,-5,o),
(119,-5,cs)
);
}
);
width = 240;
}
);
unicode = 46;
},
{
glyphname = slash;
layers = (
{
layerId = "8644C546-E7FE-4718-8D12-21E7933BC7CE";
shapes = (
{
closed = 1;
nodes = (
(227,751,l),
(8,-69,l),
(182,-69,l),
(395,751,l)
);
}
);
width = 403;
},
{
layerId = "B882EE25-4F70-487C-AAE1-5981B86ECF6B";
shapes = (
{
closed = 1;
nodes = (
(233,750,l),
(14,-68,l),
(101,-68,l),
(318,750,l)
);
}
);
width = 333;
},
{
layerId = "DF327079-0489-4E1B-B65C-406769ADC3EE";
shapes = (
{
closed = 1;
nodes = (
(241,751,l),
(22,-69,l),
(62,-69,l),
(281,751,l)
);
}
);
width = 303;
}
);
unicode = 47;
},
{
glyphname = zero;
layers = (
{
layerId = "8644C546-E7FE-4718-8D12-21E7933BC7CE";
shapes = (
{
closed = 1;
nodes = (
(537,-16,o),
(620,168,o),
(620,336,cs),
(620,507,o),
(535,698,o),
(320,698,cs),
(107,698,o),
(14,511,o),
(14,339,cs),
(14,174,o),
(100,-16,o),
(320,-16,cs)
);
},
{
closed = 1;
nodes = (
(234,139,o),
(188,212,o),
(188,339,cs),
(188,466,o),
(234,538,o),
(316,538,cs),
(399,538,o),
(446,467,o),
(446,340,cs),
(446,213,o),
(399,139,o),
(317,139,cs)
);
}
);
width = 634;
},
{
layerId = "B882EE25-4F70-487C-AAE1-5981B86ECF6B";
shapes = (
{
closed = 1;
nodes = (
(509,-11,o),
(606,156,o),
(606,336,cs),
(606,516,o),
(512,691,o),
(317,691,cs),
(125,691,o),
(28,520,o),
(28,340,cs),
(28,163,o),
(122,-11,o),
(317,-11,cs)
);
},
{
closed = 1;
nodes = (
(182,63,o),
(111,191,o),
(111,340,cs),
(111,486,o),
(181,614,o),
(317,614,cs),
(451,614,o),
(522,489,o),
(522,341,cs),
(522,197,o),
(457,63,o),
(318,63,cs)
);
}
);
width = 634;
},
{
layerId = "DF327079-0489-4E1B-B65C-406769ADC3EE";
shapes = (
{
closed = 1;
nodes = (
(496,-9,o),
(599,150,o),
(599,336,cs),
(599,520,o),
(500,687,o),
(316,687,cs),
(134,687,o),
(34,524,o),
(34,340,cs),
(34,158,o),
(132,-9,o),
(316,-9,cs)
);
},
{
closed = 1;
nodes = (
(156,26,o),
(74,181,o),
(74,340,cs),
(74,496,o),
(155,651,o),
(317,651,cs),
(476,651,o),
(559,500,o),
(559,341,cs),
(559,190,o),
(485,26,o),
(318,26,cs)
);
}
);
width = 634;
}
);
unicode = 48;
},
{
glyphname = one;
layers = (
{
layerId = "8644C546-E7FE-4718-8D12-21E7933BC7CE";
shapes = (
{
closed = 1;
nodes = (
(409,0,l),
(409,685,l),
(320,685,l),
(240,625,o),
(135,574,o),
(69,563,c),
(104,397,l),
(176,406,o),
(241,440,o),
(256,473,c),
(235,522,l),
(235,0,l)
);
},
{
closed = 1;
nodes = (
(78,148,l),
(78,0,l),
(566,0,l),
(566,148,l)
);
}
);
width = 634;
},
{
layerId = "B882EE25-4F70-487C-AAE1-5981B86ECF6B";
shapes = (
{
closed = 1;
nodes = (
(359,0,l),
(359,685,l),
(320,685,l),
(238,620,o),
(160,577,o),
(103,565,c),
(121,488,l),
(191,504,o),
(245,532,o),
(288,580,c),
(275,602,l),
(275,0,l)
);
},
{
closed = 1;
nodes = (
(92,76,l),
(92,0,l),
(542,0,l),
(542,76,l)
);
}
);
width = 634;
},
{
layerId = "DF327079-0489-4E1B-B65C-406769ADC3EE";
shapes = (
{
closed = 1;
nodes = (
(337,0,l),
(337,685,l),
(323,685,l),
(240,617,o),
(175,579,o),
(122,566,c),
(131,532,l),
(200,551,o),
(249,576,o),
(306,632,c),
(297,640,l),
(297,0,l)
);
},
{
closed = 1;
nodes = (
(100,36,l),
(100,0,l),
(534,0,l),
(534,36,l)
);
}
);
width = 634;
}
);
unicode = 49;
},
{
glyphname = two;
layers = (
{
layerId = "8644C546-E7FE-4718-8D12-21E7933BC7CE";
shapes = (
{
closed = 1;
nodes = (
(564,1,l),
(564,156,l),
(293,156,l),
(300,177,o),
(377,231,o),
(422,269,cs),
(490,326,o),
(550,399,o),
(550,492,cs),
(550,612,o),
(450,698,o),
(311,698,cs),
(180,698,o),
(83,622,o),
(56,511,c),
(196,446,l),
(212,506,o),
(254,541,o),
(308,541,cs),
(349,541,o),
(377,520,o),
(377,486,cs),
(377,446,o),
(337,411,o),
(286,373,cs),
(57,203,o),
(65,105,o),
(65,14,cs),
(65,1,l)
);
}
);
width = 634;
},
{
layerId = "B882EE25-4F70-487C-AAE1-5981B86ECF6B";
shapes = (
{
closed = 1;
nodes = (
(553,0,l),
(553,75,l),
(190,75,l),
(200,126,o),
(253,176,o),
(318,229,cs),
(424,314,o),
(524,375,o),
(524,498,cs),
(524,613,o),
(437,691,o),
(307,691,cs),
(199,691,o),
(121,633,o),
(88,534,c),
(154,503,l),
(179,577,o),
(234,619,o),
(309,619,cs),
(388,619,o),
(442,566,o),
(442,495,cs),
(442,406,o),
(356,359,o),
(273,295,cs),
(118,179,o),
(88,101,o),
(88,6,cs),
(88,0,l)
);
}
);
width = 634;
},
{
layerId = "DF327079-0489-4E1B-B65C-406769ADC3EE";
shapes = (
{
closed = 1;
nodes = (
(547,0,l),
(547,36,l),
(140,36,l),
(151,101,o),
(192,150,o),
(267,210,cs),
(392,308,o),
(511,363,o),
(511,501,cs),
(511,614,o),
(430,688,o),
(304,688,cs),
(207,688,o),
(138,639,o),
(102,545,c),
(133,531,l),
(162,611,o),
(223,657,o),
(308,657,cs),
(406,657,o),
(473,588,o),
(473,500,cs),
(473,387,o),
(365,334,o),
(266,258,cs),
(146,167,o),
(98,99,o),
(98,2,cs),
(98,0,l)
);
}
);
width = 634;
}
);
unicode = 50;
},
{
glyphname = three;
layers = (
{
layerId = "8644C546-E7FE-4718-8D12-21E7933BC7CE";
shapes = (
{
closed = 1;
nodes = (
(463,-23,o),
(568,63,o),
(568,193,cs),
(568,272,o),
(520,345,o),
(445,371,c),
(502,396,o),
(536,447,o),
(536,510,cs),
(536,618,o),
(437,698,o),
(302,698,cs),
(213,698,o),
(111,660,o),
(72,618,c),
(150,493,l),
(187,525,o),
(230,542,o),
(278,542,cs),
(331,542,o),
(363,521,o),
(363,485,cs),
(363,450,o),
(340,429,o),
(304,429,cs),
(193,429,l),
(193,282,l),
(305,282,ls),
(361,282,o),
(393,256,o),
(393,215,cs),
(393,163,o),
(356,133,o),
(290,133,cs),
(230,133,o),
(169,157,o),
(127,200,c),
(36,83,l),
(89,19,o),
(195,-23,o),
(305,-23,cs)
);
}
);
width = 634;
},
{
layerId = "B882EE25-4F70-487C-AAE1-5981B86ECF6B";
shapes = (
{
closed = 1;
nodes = (
(446,-16,o),
(544,69,o),
(544,191,cs),
(544,286,o),
(479,361,o),
(380,372,c),
(453,381,o),
(506,455,o),
(506,528,cs),
(506,623,o),
(418,691,o),
(295,691,cs),
(229,691,o),
(150,664,o),
(106,628,c),
(143,567,l),
(184,599,o),
(238,614,o),
(291,614,cs),
(372,614,o),
(422,576,o),
(422,518,cs),
(422,451,o),
(358,403,o),
(297,403,cs),
(198,403,l),
(198,329,l),
(298,329,ls),
(379,329,o),
(459,282,o),
(459,195,cs),
(459,111,o),
(397,61,o),
(295,61,cs),
(218,61,o),
(152,87,o),
(99,140,c),
(52,82,l),
(109,25,o),
(188,-16,o),
(293,-16,cs)
);
}
);
width = 634;
},
{
layerId = "DF327079-0489-4E1B-B65C-406769ADC3EE";
shapes = (
{
closed = 1;
nodes = (
(439,-12,o),
(533,72,o),
(533,190,cs),
(533,293,o),
(460,369,o),
(349,372,c),
(431,374,o),
(492,459,o),
(492,536,cs),
(492,626,o),
(410,687,o),
(292,687,cs),
(237,687,o),
(169,666,o),
(124,633,c),
(141,602,l),
(183,634,o),
(243,649,o),
(298,649,cs),
(393,649,o),
(452,603,o),
(452,534,cs),
(452,452,o),
(367,390,o),
(295,390,cs),
(201,390,l),
(201,352,l),
(296,352,ls),
(388,352,o),
(492,295,o),
(492,185,cs),
(492,86,o),
(418,26,o),
(299,26,cs),
(213,26,o),
(145,53,o),
(86,111,c),
(61,82,l),
(120,28,o),
(185,-12,o),
(288,-12,cs)
);
}
);
width = 634;
}
);
unicode = 51;
},
{
glyphname = four;
layers = (
{
layerId = "8644C546-E7FE-4718-8D12-21E7933BC7CE";
shapes = (
{
closed = 1;
nodes = (
(520,-3,l),
(520,157,l),
(482,119,l),
(589,119,l),
(589,275,l),
(482,275,l),
(520,237,l),
(520,451,l),
(346,451,l),
(346,237,l),
(384,275,l),
(209,275,l),
(233,240,l),
(414,685,l),
(240,685,l),
(46,237,l),
(46,119,l),
(384,119,l),
(346,157,l),
(346,-3,l)
);
}
);
width = 634;
},
{
layerId = "B882EE25-4F70-487C-AAE1-5981B86ECF6B";
shapes = (
{
closed = 1;
nodes = (
(486,-2,l),
(486,156,l),
(462,133,l),
(570,133,l),
(570,209,l),
(462,209,l),
(486,185,l),
(486,429,l),
(402,429,l),
(402,185,l),
(426,209,l),
(141,209,l),
(156,187,l),
(365,685,l),
(281,685,l),
(72,198,l),
(72,133,l),
(426,133,l),
(402,156,l),
(402,-2,l)
);
}
);
width = 634;
},
{
layerId = "DF327079-0489-4E1B-B65C-406769ADC3EE";
shapes = (
{
closed = 1;
nodes = (
(470,-2,l),
(470,156,l),
(453,139,l),
(562,139,l),
(562,177,l),
(453,177,l),
(470,160,l),
(470,418,l),
(430,418,l),
(430,160,l),
(447,177,l),
(109,177,l),
(119,161,l),
(342,685,l),
(301,685,l),
(85,179,l),
(85,139,l),
(447,139,l),
(430,156,l),
(430,-2,l)
);
}
);
width = 634;
}
);
unicode = 52;
},
{
glyphname = five;
layers = (
{
layerId = "8644C546-E7FE-4718-8D12-21E7933BC7CE";
shapes = (
{
closed = 1;
nodes = (
(455,-23,o),
(567,85,o),
(567,235,cs),
(567,370,o),
(481,456,o),
(346,456,cs),
(329,456,o),
(280,455,o),
(253,447,c),
(273,415,l),
(277,565,l),
(245,528,l),
(527,528,l),
(527,685,l),
(109,685,l),
(99,306,l),
(169,320,o),
(215,322,o),
(252,322,cs),
(342,322,o),
(389,286,o),
(389,226,cs),
(389,176,o),
(351,140,o),
(289,140,cs),
(244,140,o),
(184,156,o),
(145,195,c),
(50,64,l),
(105,4,o),
(209,-23,o),
(294,-23,cs)
);
}
);
width = 634;
},
{
layerId = "B882EE25-4F70-487C-AAE1-5981B86ECF6B";
shapes = (
{
closed = 1;
nodes = (
(444,-12,o),
(546,90,o),
(546,229,cs),
(546,362,o),
(444,448,o),
(304,448,cs),
(274,448,o),
(221,444,o),
(183,435,c),
(204,415,l),
(211,632,l),
(191,609,l),
(502,609,l),
(502,685,l),
(131,685,l),
(121,360,l),
(171,374,o),
(211,379,o),
(268,379,cs),
(394,379,o),
(462,314,o),
(462,223,cs),
(462,133,o),
(393,67,o),
(295,67,cs),
(238,67,o),
(178,89,o),
(135,126,c),
(88,61,l),
(132,18,o),
(213,-12,o),
(295,-12,cs)
);
}
);
width = 634;
},
{
layerId = "DF327079-0489-4E1B-B65C-406769ADC3EE";
shapes = (
{
closed = 1;
nodes = (
(439,-6,o),
(537,92,o),
(537,226,cs),
(537,358,o),
(427,444,o),
(284,444,cs),
(248,444,o),
(193,438,o),
(150,429,c),
(172,415,l),
(179,664,l),
(165,648,l),
(490,648,l),
(490,685,l),
(142,685,l),
(132,386,l),
(172,400,o),
(209,407,o),
(276,407,cs),
(419,407,o),
(497,328,o),
(497,221,cs),
(497,112,o),
(413,32,o),
(299,32,cs),
(235,32,o),
(175,56,o),
(131,93,c),
(107,60,l),
(146,25,o),
(216,-6,o),
(296,-6,cs)
);
}
);
width = 634;
}
);
unicode = 53;
},
{
glyphname = six;
layers = (
{
layerId = "8644C546-E7FE-4718-8D12-21E7933BC7CE";
shapes = (
{
closed = 1;
nodes = (
(272,136,o),
(233,175,o),
(233,230,cs),
(233,287,o),
(272,329,o),
(326,329,cs),
(380,329,o),
(418,287,o),
(418,230,cs),
(418,175,o),
(380,136,o),
(326,136,cs)
);
},
{
closed = 1;
nodes = (
(481,-16,o),
(588,86,o),
(588,237,cs),
(588,376,o),
(485,478,o),
(351,478,cs),
(197,478,o),
(142,353,o),
(154,246,c),
(187,343,l),
(202,414,o),
(226,473,o),
(265,510,cs),
(291,536,o),
(325,551,o),
(366,551,cs),
(402,551,o),
(448,543,o),
(484,524,c),
(555,650,l),
(502,684,o),
(422,701,o),
(366,701,cs),
(283,701,o),
(214,668,o),
(164,615,cs),
(94,541,o),
(57,426,o),
(57,306,cs),
(57,122,o),
(161,-16,o),
(327,-16,cs)
);
}
);
width = 634;
},
{
layerId = "B882EE25-4F70-487C-AAE1-5981B86ECF6B";
shapes = (
{
closed = 1;
nodes = (
(237,63,o),
(161,135,o),
(161,222,cs),
(161,312,o),
(240,388,o),
(330,388,cs),
(423,388,o),
(494,315,o),
(494,224,cs),
(494,134,o),
(419,63,o),
(328,63,cs)
);
},
{
closed = 1;
nodes = (
(468,-13,o),
(576,90,o),
(576,226,cs),
(576,358,o),
(474,462,o),
(339,462,cs),
(220,462,o),
(139,372,o),
(121,266,c),
(133,293,l),
(144,416,o),
(176,514,o),
(229,570,cs),
(266,610,o),
(314,621,o),
(370,621,cs),
(423,621,o),
(469,613,o),
(510,591,c),
(546,655,l),
(491,687,o),
(434,698,o),
(370,698,cs),
(290,698,o),
(224,672,o),
(175,620,cs),
(107,548,o),
(71,431,o),
(71,284,cs),
(71,111,o),
(175,-13,o),
(326,-13,cs)
);
}
);
width = 634;
},
{
layerId = "DF327079-0489-4E1B-B65C-406769ADC3EE";
shapes = (
{
closed = 1;
nodes = (
(221,28,o),
(127,115,o),
(127,217,cs),
(127,322,o),
(225,414,o),
(333,414,cs),
(444,414,o),
(530,326,o),
(530,220,cs),
(530,114,o),
(438,28,o),
(330,28,cs)
);
},
{
closed = 1;
nodes = (
(461,-10,o),
(569,91,o),
(569,219,cs),
(569,347,o),
(468,452,o),
(334,452,cs),
(233,452,o),
(139,379,o),
(106,274,c),
(109,267,l),
(117,415,o),
(153,531,o),
(213,596,cs),
(255,642,o),
(309,654,o),
(372,654,cs),
(433,654,o),
(478,644,o),
(522,619,c),
(542,654,l),
(486,686,o),
(440,695,o),
(372,695,cs),
(294,695,o),
(230,670,o),
(182,619,cs),
(115,548,o),
(79,431,o),
(79,272,cs),
(79,104,o),
(183,-10,o),
(326,-10,cs)
);
}
);
width = 634;
}
);
unicode = 54;
},
{
glyphname = seven;
layers = (
{
layerId = "8644C546-E7FE-4718-8D12-21E7933BC7CE";
shapes = (
{
closed = 1;
nodes = (
(327,-5,l),
(557,592,l),
(557,685,l),
(77,685,l),
(77,530,l),
(346,530,l),
(140,-5,l)
);
}
);
width = 634;
},
{
layerId = "B882EE25-4F70-487C-AAE1-5981B86ECF6B";
shapes = (
{
closed = 1;
nodes = (
(277,-1,l),
(535,645,l),
(535,685,l),
(92,685,l),
(92,610,l),
(431,610,l),
(188,-1,l)
);
}
);
width = 634;
},
{
layerId = "DF327079-0489-4E1B-B65C-406769ADC3EE";
shapes = (
{
closed = 1;
nodes = (
(254,1,l),
(525,670,l),
(525,685,l),
(100,685,l),
(100,649,l),
(472,649,l),
(212,1,l)
);
}
);
width = 634;
}
);
unicode = 55;
},
{
glyphname = eight;
layers = (
{
layerId = "8644C546-E7FE-4718-8D12-21E7933BC7CE";
shapes = (
{
closed = 1;
nodes = (
(463,-16,o),
(572,78,o),
(572,195,cs),
(572,255,o),
(544,350,o),
(435,393,c),
(392,345,l),
(487,379,o),
(534,428,o),
(539,503,cs),
(546,621,o),
(449,702,o),
(314,702,cs),
(178,702,o),
(92,619,o),
(92,511,cs),
(92,437,o),
(134,386,o),
(184,366,c),
(222,404,l),
(120,362,o),
(61,293,o),
(61,203,cs),
(61,78,o),
(170,-16,o),
(317,-16,cs)
);
},
{
closed = 1;
nodes = (
(268,137,o),
(225,165,o),
(225,211,cs),
(225,252,o),
(253,306,o),
(344,360,c),
(225,337,l),
(334,313,o),
(401,261,o),
(401,205,cs),
(401,165,o),
(365,137,o),
(317,137,cs)
);
},
{
closed = 1;
nodes = (
(414,407,l),
(327,440,ls),
(293,453,o),
(263,475,o),
(263,501,cs),
(263,531,o),
(286,548,o),
(315,548,cs),
(346,548,o),
(369,528,o),
(369,497,cs),
(369,474,o),
(354,444,o),
(289,394,c)
);
}
);
width = 634;
},
{
layerId = "B882EE25-4F70-487C-AAE1-5981B86ECF6B";
shapes = (
{
closed = 1;
nodes = (
(457,-12,o),
(556,74,o),
(556,191,cs),
(556,273,o),
(509,349,o),
(397,387,c),
(383,366,l),
(461,403,o),
(516,460,o),
(518,531,cs),
(520,627,o),
(433,697,o),
(316,697,cs),
(198,697,o),
(118,626,o),
(118,526,cs),
(118,457,o),
(157,409,o),
(222,382,c),
(241,404,l),
(126,342,o),
(81,275,o),
(81,192,cs),
(81,71,o),
(174,-12,o),
(315,-12,cs)
);
},
{
closed = 1;
nodes = (
(225,62,o),
(161,115,o),
(161,189,cs),
(161,259,o),
(217,334,o),
(307,378,c),
(246,373,l),
(421,322,o),
(474,275,o),
(474,200,cs),
(474,115,o),
(411,62,o),
(318,62,cs)
);
},
{
closed = 1;
nodes = (
(385,394,l),
(290,425,ls),
(241,441,o),
(201,477,o),
(201,525,cs),
(201,582,o),
(252,623,o),
(317,623,cs),
(384,623,o),
(436,581,o),
(436,528,cs),
(436,477,o),
(400,439,o),
(324,389,c)
);
}
);
width = 634;
},
{
layerId = "DF327079-0489-4E1B-B65C-406769ADC3EE";
shapes = (
{
closed = 1;
nodes = (
(455,-10,o),
(549,72,o),
(549,189,cs),
(549,281,o),
(492,348,o),
(379,384,c),
(379,376,l),
(449,414,o),
(508,476,o),
(508,544,cs),
(508,630,o),
(426,695,o),
(317,695,cs),
(208,695,o),
(131,629,o),
(131,533,cs),
(131,467,o),
(168,420,o),
(240,390,c),
(250,404,l),
(129,333,o),
(91,266,o),
(91,187,cs),
(91,67,o),
(177,-10,o),
(314,-10,cs)
);
},
{
closed = 1;
nodes = (
(204,26,o),
(131,91,o),
(131,179,cs),
(131,263,o),
(200,347,o),
(289,387,c),
(256,390,l),
(464,327,o),
(509,281,o),
(509,198,cs),
(509,91,o),
(434,26,o),
(319,26,cs)
);
},
{
closed = 1;
nodes = (
(371,387,l),
(272,418,ls),
(216,435,o),
(171,478,o),
(171,537,cs),
(171,607,o),
(236,659,o),
(319,659,cs),
(402,659,o),
(469,606,o),
(469,543,cs),
(469,479,o),
(423,436,o),
(341,386,c)
);
}
);
width = 634;
}
);
unicode = 56;
},
{
glyphname = nine;
layers = (
{
layerId = "8644C546-E7FE-4718-8D12-21E7933BC7CE";
shapes = (
{
closed = 1;
nodes = (
(362,549,o),
(401,510,o),
(401,455,cs),
(401,398,o),
(362,356,o),
(308,356,cs),
(254,356,o),
(216,398,o),
(216,455,cs),
(216,510,o),
(254,549,o),
(308,549,cs)
);
},
{
closed = 1;
nodes = (
(153,701,o),
(46,599,o),
(46,448,cs),
(46,309,o),
(149,207,o),
(283,207,cs),
(437,207,o),
(492,332,o),
(480,439,c),
(447,342,l),
(432,271,o),
(408,212,o),
(369,175,cs),
(343,149,o),
(309,134,o),
(268,134,cs),
(232,134,o),
(186,142,o),
(150,161,c),
(79,35,l),
(132,1,o),
(212,-16,o),
(268,-16,cs),
(351,-16,o),
(420,17,o),
(470,70,cs),
(540,144,o),
(577,259,o),
(577,379,cs),
(577,563,o),
(473,701,o),
(307,701,cs)
);
}
);
width = 634;
},
{
layerId = "B882EE25-4F70-487C-AAE1-5981B86ECF6B";
shapes = (
{
closed = 1;
nodes = (
(397,622,o),
(473,550,o),
(473,463,cs),
(473,373,o),
(394,297,o),
(304,297,cs),
(211,297,o),
(140,370,o),
(140,461,cs),
(140,551,o),
(215,622,o),
(306,622,cs)
);
},
{
closed = 1;
nodes = (
(166,698,o),
(58,595,o),
(58,459,cs),
(58,327,o),
(160,223,o),
(295,223,cs),
(414,223,o),
(495,313,o),
(513,419,c),
(501,392,l),
(490,269,o),
(458,171,o),
(405,115,cs),
(368,75,o),
(320,64,o),
(264,64,cs),
(211,64,o),
(165,72,o),
(124,94,c),
(88,30,l),
(143,-2,o),
(200,-13,o),
(264,-13,cs),
(344,-13,o),
(410,13,o),
(459,65,cs),
(527,137,o),
(563,254,o),
(563,401,cs),
(563,574,o),
(459,698,o),
(308,698,cs)
);
}
);
width = 634;
},
{
layerId = "DF327079-0489-4E1B-B65C-406769ADC3EE";
shapes = (
{
closed = 1;
nodes = (
(413,657,o),
(507,570,o),
(507,468,cs),
(507,363,o),
(409,271,o),
(301,271,cs),
(190,271,o),
(104,359,o),
(104,465,cs),
(104,571,o),
(196,657,o),
(304,657,cs)
);
},
{
closed = 1;
nodes = (
(173,695,o),
(65,594,o),
(65,466,cs),
(65,338,o),
(166,233,o),
(300,233,cs),
(401,233,o),
(495,306,o),
(528,411,c),
(525,418,l),
(517,270,o),
(481,154,o),
(421,89,cs),
(379,43,o),
(325,31,o),
(262,31,cs),
(201,31,o),
(156,41,o),
(112,66,c),
(92,31,l),
(148,-1,o),
(194,-10,o),
(262,-10,cs),
(340,-10,o),
(404,15,o),
(452,66,cs),
(519,137,o),
(555,254,o),
(555,413,cs),
(555,581,o),
(451,695,o),
(308,695,cs)
);
}
);
width = 634;
}
);
unicode = 57;
},
{
glyphname = colon;
layers = (
{
layerId = "8644C546-E7FE-4718-8D12-21E7933BC7CE";
shapes = (
{
closed = 1;
nodes = (
(169,-15,o),
(206,21,o),
(206,70,cs),
(206,119,o),
(169,156,o),
(118,156,cs),
(70,156,o),
(34,119,o),
(34,70,cs),
(34,21,o),
(70,-15,o),
(118,-15,cs)
);
},
{
closed = 1;
nodes = (
(169,367,o),
(206,403,o),
(206,452,cs),
(206,501,o),
(169,538,o),
(118,538,cs),
(70,538,o),
(34,501,o),
(34,452,cs),
(34,403,o),
(70,367,o),
(118,367,cs)
);
}
);
width = 240;
},
{
layerId = "B882EE25-4F70-487C-AAE1-5981B86ECF6B";
shapes = (
{
closed = 1;
nodes = (
(150,-18,o),
(172,5,o),
(172,34,cs),
(172,65,o),
(150,87,o),
(119,87,cs),
(90,87,o),
(67,65,o),
(67,34,cs),
(67,5,o),
(90,-18,o),
(119,-18,cs)
);
},
{
closed = 1;
nodes = (
(150,364,o),
(172,387,o),
(172,416,cs),
(172,447,o),
(150,469,o),
(119,469,cs),
(90,469,o),
(67,447,o),
(67,416,cs),
(67,387,o),
(90,364,o),
(119,364,cs)
);
}
);
width = 240;
},
{
layerId = "DF327079-0489-4E1B-B65C-406769ADC3EE";
shapes = (
{
closed = 1;
nodes = (
(139,-11,o),
(155,4,o),
(155,24,cs),
(155,44,o),
(139,58,o),
(119,58,cs),
(99,58,o),
(85,43,o),
(85,24,cs),
(85,3,o),
(99,-11,o),
(119,-11,cs)
);
},
{
closed = 1;
nodes = (
(139,384,o),
(155,399,o),
(155,419,cs),
(155,439,o),
(139,453,o),
(119,453,cs),
(99,453,o),
(85,438,o),
(85,419,cs),
(85,398,o),
(99,384,o),
(119,384,cs)
);
}
);
width = 240;
}
);
unicode = 58;
},
{
glyphname = semicolon;
layers = (
{
layerId = "8644C546-E7FE-4718-8D12-21E7933BC7CE";
shapes = (
{
closed = 1;
nodes = (
(173,364,o),
(210,400,o),
(210,449,cs),
(210,498,o),
(173,535,o),
(122,535,cs),
(74,535,o),
(38,498,o),
(38,449,cs),
(38,400,o),
(74,364,o),
(122,364,cs)
);
},
{
closed = 1;
nodes = (
(94,-207,l),
(125,-176,o),
(156,-130,o),
(177,-75,cs),
(197,-23,o),
(203,28,o),
(203,56,cs),
(203,113,o),
(166,152,o),
(122,152,cs),
(101,152,o),
(83,144,o),
(66,127,cs),
(49,110,o),
(40,91,o),
(40,69,cs),
(40,64,o),
(41,52,o),
(44,35,cs),
(51,-4,o),
(53,-22,o),
(49,-49,cs),
(45,-80,o),
(31,-115,o),
(10,-142,c)
);
}
);
width = 240;
},
{
layerId = "B882EE25-4F70-487C-AAE1-5981B86ECF6B";
shapes = (
{
closed = 1;
nodes = (
(149,364,o),
(171,387,o),
(171,416,cs),
(171,447,o),
(149,469,o),
(118,469,cs),
(89,469,o),
(66,447,o),
(66,416,cs),
(66,387,o),
(89,364,o),
(118,364,cs)
);
},
{
closed = 1;
nodes = (
(87,-157,l),
(116,-126,o),
(142,-84,o),
(153,-55,c),
(162,-28,o),
(170,13,o),
(170,40,cs),
(170,68,o),
(153,86,o),
(128,86,cs),
(116,86,o),
(106,82,o),
(99,74,cs),
(91,65,o),
(87,54,o),
(87,41,c),
(88,32,o),
(88,24,o),
(89,15,cs),
(90,-4,o),
(92,-27,o),
(89,-39,c),
(85,-63,o),
(62,-101,o),
(45,-125,c)
);
}
);
width = 240;
},
{
layerId = "DF327079-0489-4E1B-B65C-406769ADC3EE";
shapes = (
{
closed = 1;
nodes = (
(135,385,o),
(151,400,o),
(151,420,cs),
(151,440,o),
(135,454,o),
(115,454,cs),
(95,454,o),
(81,439,o),
(81,420,cs),
(81,399,o),
(95,385,o),
(115,385,cs)
);
},
{
closed = 1;
nodes = (
(94,-127,l),
(113,-103,o),
(126,-74,o),
(134,-50,cs),
(142,-23,o),
(146,8,o),
(146,37,cs),
(146,52,o),
(137,65,o),
(122,65,cs),
(115,65,o),
(109,63,o),
(105,58,cs),
(101,53,o),
(99,46,o),
(99,37,cs),
(99,34,o),
(99,32,o),
(99,29,c),
(100,8,o),
(100,-19,o),
(95,-38,cs),
(90,-59,o),
(76,-89,o),
(63,-109,c)
);
}
);
width = 240;
}
);
unicode = 59;
},
{
glyphname = less;
layers = (
{
layerId = "8644C546-E7FE-4718-8D12-21E7933BC7CE";
shapes = (
{
closed = 1;
nodes = (
(14,240,l),
(518,16,l),
(518,197,l),
(226,316,l),
(518,429,l),
(518,606,l),
(14,392,l)
);
}
);
width = 546;
},
{
layerId = "B882EE25-4F70-487C-AAE1-5981B86ECF6B";
shapes = (
{
closed = 1;
nodes = (
(26,256,l),
(470,50,l),
(470,143,l),
(114,307,l),
(470,459,l),
(470,550,l),
(26,353,l)
);
}
);
width = 520;
},
{
layerId = "DF327079-0489-4E1B-B65C-406769ADC3EE";
shapes = (
{
closed = 1;
nodes = (
(25,277,l),
(454,73,l),
(454,116,l),
(59,303,l),
(454,477,l),
(454,521,l),
(25,329,l)
);
}
);
width = 480;
}
);
unicode = 60;
},
{
glyphname = equal;
layers = (
{
layerId = "8644C546-E7FE-4718-8D12-21E7933BC7CE";
shapes = (
{
closed = 1;
nodes = (
(46,249,l),
(46,107,l),
(500,107,l),
(500,249,l)
);
},
{
closed = 1;
nodes = (
(46,456,l),
(46,314,l),
(500,314,l),
(500,456,l)
);
}
);
width = 546;
},
{
layerId = "B882EE25-4F70-487C-AAE1-5981B86ECF6B";
shapes = (
{
closed = 1;
nodes = (
(73,239,l),
(73,163,l),
(448,163,l),
(448,239,l)
);
},
{
closed = 1;
nodes = (
(73,426,l),
(73,350,l),
(448,350,l),
(448,426,l)
);
}
);
width = 520;
},
{
layerId = "DF327079-0489-4E1B-B65C-406769ADC3EE";
shapes = (
{
closed = 1;
nodes = (
(69,227,l),
(69,189,l),
(412,189,l),
(412,227,l)
);
},
{
closed = 1;
nodes = (
(69,394,l),
(69,356,l),
(412,356,l),
(412,394,l)
);
}
);
width = 480;
}
);
unicode = 61;
},
{
glyphname = greater;
layers = (
{
layerId = "8644C546-E7FE-4718-8D12-21E7933BC7CE";
shapes = (
{
closed = 1;
nodes = (
(28,197,l),
(28,16,l),
(532,240,l),
(532,392,l),
(28,606,l),
(28,429,l),
(320,316,l)
);
}
);
width = 546;
},
{
layerId = "B882EE25-4F70-487C-AAE1-5981B86ECF6B";
shapes = (
{
closed = 1;
nodes = (
(50,143,l),
(50,50,l),
(494,256,l),
(494,353,l),
(50,550,l),
(50,459,l),
(406,307,l)
);
}
);
width = 520;
},
{
layerId = "DF327079-0489-4E1B-B65C-406769ADC3EE";
shapes = (
{
closed = 1;
nodes = (
(26,116,l),
(26,73,l),
(455,277,l),
(455,329,l),
(26,521,l),
(26,477,l),
(421,303,l)
);
}
);
width = 480;
}
);
unicode = 62;
},
{
glyphname = question;
leftMetricsKey = "=24";
rightMetricsKey = "=49";
layers = (
{
layerId = "8644C546-E7FE-4718-8D12-21E7933BC7CE";
shapes = (
{
closed = 1;
nodes = (
(333,325,l),
(311,328,o),
(256,358,o),
(256,388,cs),
(256,402,o),
(269,418,o),
(298,440,cs),
(372,496,o),
(400,543,o),
(400,609,cs),
(400,700,o),
(295,740,o),
(204,740,cs),
(129,740,o),
(54,713,o),
(24,671,c),
(105,567,l),
(121,587,o),
(147,602,o),
(171,602,cs),
(191,602,o),
(205,591,o),
(205,569,cs),
(205,544,o),
(186,517,o),
(157,489,cs),
(121,455,o),
(103,419,o),
(103,378,cs),
(103,278,o),
(201,229,o),
(293,224,c)
);
},
{
closed = 1;
nodes = (
(274,-16,o),
(313,22,o),
(313,73,cs),
(313,123,o),
(274,161,o),
(223,161,cs),
(172,161,o),
(134,123,o),
(134,73,cs),
(134,22,o),
(172,-16,o),
(223,-16,cs)
);
}
);
width = 449;
},
{
layerId = "EB95E28F-32AF-4799-9E5E-19537F77C088";
associatedMasterId = "B882EE25-4F70-487C-AAE1-5981B86ECF6B";
name = 1;
shapes = (
{
closed = 1;
nodes = (
(280,259,l),
(240,266,o),
(214,294,o),
(214,329,cs),
(214,372,o),
(254,413,o),
(290,455,cs),
(331,501,o),
(367,548,o),
(367,604,cs),
(367,682,o),
(296,738,o),
(200,738,cs),
(134,738,o),
(51,698,o),
(24,634,c),
(82,590,l),
(103,632,o),
(153,660,o),
(199,660,cs),
(242,660,o),
(277,639,o),
(277,593,cs),
(277,546,o),
(242,512,o),
(207,470,cs),
(173,430,o),
(140,384,o),
(140,326,cs),
(140,257,o),
(187,208,o),
(257,199,c)
);
},
{
closed = 1;
nodes = (
(232,-10,o),
(255,13,o),
(255,43,cs),
(255,72,o),
(232,94,o),
(202,94,cs),
(172,94,o),
(150,72,o),
(150,42,cs),
(150,12,o),
(172,-10,o),
(202,-10,cs)
);
}
);
width = 416;
},
{
layerId = "B882EE25-4F70-487C-AAE1-5981B86ECF6B";
shapes = (
{
closed = 1;
nodes = (
(273,257,l),
(242,267,o),
(193,303,o),
(193,341,cs),
(193,365,o),
(215,395,o),
(258,429,cs),
(325,482,o),
(366,549,o),
(366,605,cs),
(366,689,o),
(279,737,o),
(197,737,cs),
(126,737,o),
(57,701,o),
(24,648,c),
(75,594,l),
(99,632,o),
(137,659,o),
(183,659,cs),
(226,659,o),
(263,633,o),
(263,588,cs),
(263,547,o),
(233,505,o),
(188,467,cs),
(138,425,o),
(111,379,o),
(111,337,cs),
(111,263,o),
(181,214,o),
(247,201,c)
);
},
{
closed = 1;
nodes = (
(230,-11,o),
(255,14,o),
(255,46,cs),
(255,78,o),
(230,102,o),
(197,102,cs),
(165,102,o),
(141,78,o),
(141,46,cs),
(141,13,o),
(165,-11,o),
(197,-11,cs)
);
}
);
width = 415;
},
{
layerId = "DF327079-0489-4E1B-B65C-406769ADC3EE";
shapes = (
{
closed = 1;
nodes = (
(216,211,l),
(179,225,o),
(135,266,o),
(135,308,cs),
(135,343,o),
(166,387,o),
(216,423,cs),
(284,472,o),
(327,542,o),
(327,602,cs),
(327,681,o),
(252,735,o),
(176,735,cs),
(109,735,o),
(43,692,o),
(9,633,c),
(39,612,l),
(68,663,o),
(115,698,o),
(175,698,cs),
(235,698,o),
(288,662,o),
(288,601,cs),
(288,553,o),
(255,502,o),
(196,455,cs),
(137,407,o),
(101,353,o),
(101,307,cs),
(101,253,o),
(152,204,o),
(200,185,c)
);
},
{
closed = 1;
nodes = (
(184,-7,o),
(200,8,o),
(200,28,cs),
(200,48,o),
(184,62,o),
(164,62,cs),
(144,62,o),
(130,47,o),
(130,27,cs),
(130,7,o),
(144,-7,o),
(164,-7,cs)
);
}
);
width = 376;
}
);
rightKerningGroup = P;
unicode = 63;
},
{
glyphname = at;
layers = (
{
layerId = "8644C546-E7FE-4718-8D12-21E7933BC7CE";
shapes = (
{
closed = 1;
nodes = (
(470,-84,o),
(521,-77,o),
(574,-63,cs),
(627,-48,o),
(671,-30,o),
(706,-7,c),
(657,103,l),
(596,66,o),
(514,42,o),
(433,42,cs),
(332,42,o),
(249,83,o),
(205,152,cs),
(183,187,o),
(172,227,o),
(172,272,cs),
(172,373,o),
(213,451,o),
(286,492,cs),
(323,513,o),
(366,523,o),
(415,523,cs),
(502,523,o),
(571,486,o),
(610,422,cs),
(629,389,o),
(639,352,o),
(639,311,cs),
(639,255,o),
(619,218,o),
(591,217,cs),
(568,216,o),
(559,227,o),
(558,258,c),
(558,430,l),
(531,445,o),
(505,457,o),
(478,464,cs),
(451,471,o),
(424,474,o),
(395,474,cs),
(330,474,o),
(275,439,o),
(245,381,cs),
(230,352,o),
(222,319,o),
(222,283,cs),
(222,215,o),
(253,159,o),
(303,128,cs),
(328,113,o),
(356,105,o),
(387,105,cs),
(440,105,o),
(476,131,o),
(495,172,c),
(502,123,o),
(542,91,o),
(597,91,cs),
(672,91,o),
(728,131,o),
(757,200,cs),
(772,235,o),
(779,274,o),
(779,319,cs),
(779,442,o),
(710,548,o),
(598,606,cs),
(541,635,o),
(479,649,o),
(410,649,cs),
(263,649,o),
(144,582,o),
(80,469,cs),
(48,412,o),
(32,348,o),
(32,275,cs),
(32,135,o),
(102,22,o),
(220,-39,cs),
(279,-69,o),
(346,-84,o),
(422,-84,cs)
);
},
{
closed = 1;
nodes = (
(374,226,o),
(360,252,o),
(360,291,cs),
(360,331,o),
(375,352,o),
(399,349,c),
(414,348,o),
(421,344,o),
(429,335,c),
(429,265,l),
(426,242,o),
(413,226,o),
(397,226,cs)
);
}
);
width = 807;
},
{
layerId = "B882EE25-4F70-487C-AAE1-5981B86ECF6B";
shapes = (
{
closed = 1;
nodes = (
(457,-68,o),
(501,-63,o),
(543,-52,cs),
(585,-41,o),
(623,-27,o),
(657,-9,c),
(627,58,l),
(578,27,o),
(496,6,o),
(417,6,cs),
(298,6,o),
(209,52,o),
(162,134,cs),
(138,175,o),
(126,223,o),
(126,279,cs),
(126,391,o),
(176,481,o),
(260,529,cs),
(302,553,o),
(350,565,o),
(405,565,cs),
(508,565,o),
(592,519,o),
(637,442,cs),
(660,403,o),
(671,359,o),
(671,309,cs),
(671,225,o),
(637,170,o),
(588,170,cs),
(559,170,o),
(539,188,o),
(532,225,c),
(532,457,l),
(516,462,o),
(495,467,o),
(468,471,cs),
(441,475,o),
(420,477,o),
(403,477,cs),
(328,477,o),
(272,441,o),
(244,382,cs),
(229,352,o),
(222,319,o),
(222,282,cs),
(222,217,o),
(253,160,o),
(299,130,cs),
(322,115,o),
(346,107,o),
(371,108,cs),
(424,111,o),
(476,137,o),
(485,173,c),
(493,130,o),
(543,98,o),
(602,98,cs),
(661,98,o),
(709,136,o),
(734,200,cs),
(747,232,o),
(753,268,o),
(753,309,cs),
(753,436,o),
(690,541,o),
(583,598,cs),
(530,627,o),
(469,641,o),
(402,641,cs),
(263,641,o),
(150,577,o),
(90,468,cs),
(59,413,o),
(44,351,o),
(44,281,cs),
(44,142,o),
(108,32,o),
(219,-25,cs),
(274,-54,o),
(339,-68,o),
(412,-68,cs)
);
},
{
closed = 1;
nodes = (
(333,185,o),
(300,229,o),
(300,290,cs),
(300,357,o),
(339,402,o),
(399,402,cs),
(416,402,o),
(443,398,o),
(456,394,c),
(456,251,l),
(452,211,o),
(416,183,o),
(381,184,cs)
);
}
);
width = 793;
},
{
layerId = "DF327079-0489-4E1B-B65C-406769ADC3EE";
shapes = (
{
closed = 1;
nodes = (
(465,-69,o),
(500,-65,o),
(534,-58,c),
(567,-50,o),
(601,-38,o),
(636,-22,c),
(624,9,l),
(577,-18,o),
(495,-35,o),
(420,-35,cs),
(289,-35,o),
(185,19,o),
(129,114,cs),
(100,161,o),
(86,216,o),
(86,278,cs),
(86,399,o),
(143,500,o),
(240,555,cs),
(289,582,o),
(344,596,o),
(405,596,cs),
(521,596,o),
(617,544,o),
(669,456,c),
(694,411,o),
(707,361,o),
(707,305,cs),
(707,205,o),
(666,138,o),
(603,138,cs),
(555,138,o),
(519,171,o),
(520,211,c),
(520,444,l),
(504,451,o),
(485,456,o),
(464,460,cs),
(443,463,o),
(423,465,o),
(406,465,cs),
(337,465,o),
(280,433,o),
(250,379,cs),
(235,352,o),
(227,321,o),
(227,286,cs),
(227,225,o),
(254,170,o),
(296,140,cs),
(317,125,o),
(340,117,o),
(366,117,cs),
(421,117,o),
(474,149,o),
(495,192,c),
(494,141,o),
(537,106,o),
(601,106,cs),
(658,106,o),
(702,138,o),
(726,197,cs),
(737,226,o),
(743,261,o),
(743,301,cs),
(743,428,o),
(683,532,o),
(580,588,cs),
(528,616,o),
(469,630,o),
(403,630,cs),
(267,630,o),
(155,566,o),
(95,460,cs),
(65,407,o),
(50,346,o),
(50,279,cs),
(50,142,o),
(116,33,o),
(230,-26,cs),
(287,-55,o),
(353,-69,o),
(428,-69,cs)
);
},
{
closed = 1;
nodes = (
(307,149,o),
(265,202,o),
(265,281,cs),
(265,372,o),
(321,433,o),
(408,433,cs),
(428,433,o),
(455,430,o),
(482,423,c),
(482,225,l),
(459,176,o),
(419,149,o),
(372,149,cs)
);
}
);
width = 790;
}
);
leftKerningGroup = c2;
rightKerningGroup = at;
unicode = 64;
},
{
glyphname = A;
layers = (
{
anchors = (
{
name = m.uni0324_3;
position = "{346, 0}";
},
{
name = t.uni0308_1_3;
position = "{345, 694}";
},
{
name = m.uni0328_2;
position = "{686, 0}";
}
);
layerId = "8644C546-E7FE-4718-8D12-21E7933BC7CE";
shapes = (
{
closed = 1;
nodes = (
(306,684,l),
(5,0,l),
(186,0,l),
(291,257,l),
(190,136,l),
(500,136,l),
(399,257,l),
(507,0,l),
(686,0,l),
(392,684,l)
);
},
{
closed = 1;
nodes = (
(247,274,l),
(297,268,l),
(358,465,l),
(344,474,l),
(326,465,l),
(392,272,l),
(438,274,l)
);
}
);
width = 691;
},
{
anchors = (
{
name = m.uni0324_3;
position = "{341, 2}";
},
{
name = t.uni0308_1_3;
position = "{341, 700}";
},
{
name = m.uni0328_2;
position = "{690, -1}";
}
);
layerId = "B882EE25-4F70-487C-AAE1-5981B86ECF6B";
shapes = (
{
closed = 1;
nodes = (
(304,684,l),
(11,0,l),
(100,0,l),
(205,253,l),
(154,210,l),
(487,210,l),
(437,253,l),
(543,0,l),
(632,0,l),
(337,684,l)
);
},
{
closed = 1;
nodes = (
(185,284,l),
(210,260,l),
(310,493,l),
(320,530,l),
(331,493,l),
(430,260,l),
(455,284,l)
);
}
);
width = 643;
},
{
anchors = (
{
name = m.uni0324_3;
position = "{341, 2}";
},
{
name = t.uni0308_1_3;
position = "{341, 700}";
},
{
name = m.uni0328_2;
position = "{690, -1}";
}
);
layerId = "DF327079-0489-4E1B-B65C-406769ADC3EE";
shapes = (
{
closed = 1;
nodes = (
(321,684,l),
(25,0,l),
(66,0,l),
(170,251,l),
(149,236,l),
(502,236,l),
(481,251,l),
(587,0,l),
(628,0,l),
(330,684,l)
);
},
{
closed = 1;
nodes = (
(163,272,l),
(173,257,l),
(312,570,l),
(326,612,l),
(339,572,l),
(478,257,l),
(488,272,l)
);
}
);
width = 653;
}
);
leftKerningGroup = A2;
rightKerningGroup = A;
unicode = 65;
},
{
glyphname = B;
layers = (
{
layerId = "8644C546-E7FE-4718-8D12-21E7933BC7CE";
shapes = (
{
closed = 1;
nodes = (
(261,-13,l),
(350,-14,o),
(422,2,o),
(477,34,cs),
(532,65,o),
(559,119,o),
(559,195,cs),
(559,254,o),
(526,312,o),
(481,339,cs),
(456,354,o),
(439,360,o),
(414,364,c),
(412,365,o),
(410,365,o),
(407,365,c),
(438,369,o),
(454,376,o),
(474,391,cs),
(519,424,o),
(537,467,o),
(537,520,cs),
(537,584,o),
(501,637,o),
(435,665,cs),
(402,679,o),
(363,684,o),
(320,684,cs),
(66,684,l),
(66,534,l),
(320,534,ls),
(355,534,o),
(376,514,o),
(376,485,cs),
(376,452,o),
(353,424,o),
(326,424,cs),
(201,424,l),
(201,289,l),
(317,289,ls),
(349,289,o),
(377,275,o),
(393,252,c),
(400,240,o),
(404,226,o),
(404,211,cs),
(404,158,o),
(368,132,o),
(293,132,cs),
(282,132,o),
(272,132,o),
(263,133,cs),
(253,134,o),
(242,135,o),
(231,137,c),
(231,552,l),
(66,550,l),
(66,6,l),
(99,-1,o),
(128,-5,o),
(154,-8,cs),
(179,-11,o),
(207,-12,o),
(236,-13,c)
);
}
);
width = 587;
},
{
layerId = "B882EE25-4F70-487C-AAE1-5981B86ECF6B";
shapes = (
{
closed = 1;
nodes = (
(265,-10,ls),
(356,-10,o),
(426,7,o),
(473,42,cs),
(520,77,o),
(543,126,o),
(543,190,cs),
(543,262,o),
(513,317,o),
(462,348,cs),
(441,361,o),
(418,365,o),
(394,369,c),
(393,370,o),
(392,370,o),
(391,370,c),
(407,371,o),
(428,376,o),
(445,385,c),
(489,406,o),
(513,452,o),
(513,511,cs),
(513,582,o),
(478,635,o),
(415,663,cs),
(384,677,o),
(347,684,o),
(305,684,cs),
(79,684,l),
(79,606,l),
(306,606,l),
(389,601,o),
(431,568,o),
(431,508,cs),
(431,443,o),
(381,401,o),
(304,401,cs),
(119,401,l),
(119,324,l),
(311,324,ls),
(372,324,o),
(419,301,o),
(444,261,c),
(456,240,o),
(462,216,o),
(462,188,cs),
(462,103,o),
(405,67,o),
(278,64,cs),
(259,63,o),
(240,64,o),
(219,65,cs),
(198,66,o),
(179,68,o),
(161,71,c),
(161,642,l),
(79,642,l),
(79,2,l),
(111,-2,o),
(138,-5,o),
(160,-7,cs),
(182,-8,o),
(208,-9,o),
(239,-10,c)
);
}
);
width = 581;
},
{
layerId = "DF327079-0489-4E1B-B65C-406769ADC3EE";
shapes = (
{
closed = 1;
nodes = (
(311,-9,ls),
(380,-9,o),
(434,7,o),
(474,40,cs),
(514,73,o),
(534,118,o),
(534,177,cs),
(534,254,o),
(496,318,o),
(437,346,cs),
(420,354,o),
(394,360,o),
(370,364,c),
(368,365,o),
(366,365,o),
(364,365,c),
(393,369,o),
(422,380,o),
(450,403,cs),
(485,430,o),
(501,467,o),
(501,516,cs),
(501,584,o),
(468,636,o),
(409,664,c),
(379,677,o),
(344,684,o),
(304,684,cs),
(86,684,l),
(86,648,l),
(320,648,l),
(413,641,o),
(462,596,o),
(462,520,cs),
(462,435,o),
(400,382,o),
(303,382,cs),
(121,382,l),
(121,347,l),
(310,347,ls),
(382,347,o),
(441,317,o),
(473,266,c),
(488,240,o),
(496,211,o),
(496,179,cs),
(496,67,o),
(426,26,o),
(267,26,cs),
(246,26,o),
(221,27,o),
(193,28,cs),
(164,29,o),
(144,31,o),
(131,32,c),
(128,654,l),
(86,654,l),
(89,3,l),
(122,-2,o),
(150,-6,o),
(175,-7,cs),
(199,-8,o),
(234,-9,o),
(279,-9,cs)
);
}
);
width = 579;
}
);
rightKerningGroup = B;
unicode = 66;
},
{
glyphname = C;
layers = (
{
anchors = (
{
name = m.uni0324_3;
position = "{393, -12}";
},
{
name = t.uni0308_1_3;
position = "{382, 696}";
}
);
layerId = "8644C546-E7FE-4718-8D12-21E7933BC7CE";
shapes = (
{
closed = 1;
nodes = (
(322,-16,o),
(262,-1,o),
(209,30,cs),
(102,92,o),
(37,206,o),
(37,341,cs),
(37,408,o),
(52,469,o),
(82,524,cs),
(142,632,o),
(253,700,o),
(382,700,cs),
(427,700,o),
(469,692,o),
(507,676,cs),
(584,644,o),
(638,587,o),
(656,515,c),
(521,476,l),
(515,499,o),
(500,518,o),
(474,534,cs),
(448,551,o),
(419,558,o),
(386,558,cs),
(350,558,o),
(318,548,o),
(290,529,cs),
(233,490,o),
(199,419,o),
(199,338,cs),
(199,298,o),
(208,261,o),
(224,229,cs),
(257,164,o),
(317,128,o),
(391,128,cs),
(453,128,o),
(509,155,o),
(539,200,c),
(660,127,l),
(636,82,o),
(599,47,o),
(551,22,cs),
(502,-4,o),
(448,-16,o),
(389,-16,cs)
);
}
);
width = 685;
},
{
anchors = (
{
name = m.uni0324_3;
position = "{386, -6}";
},
{
name = t.uni0308_1_3;
position = "{385, 700}";
}
);
layerId = "B882EE25-4F70-487C-AAE1-5981B86ECF6B";
shapes = (
{
closed = 1;
nodes = (
(322,-13,o),
(264,2,o),
(212,30,cs),
(109,87,o),
(45,197,o),
(45,337,cs),
(45,406,o),
(61,469,o),
(91,523,cs),
(152,633,o),
(258,697,o),
(383,697,cs),
(427,697,o),
(467,690,o),
(503,675,cs),
(575,644,o),
(624,590,o),
(643,527,c),
(569,509,l),
(557,542,o),
(536,569,o),
(507,592,cs),
(478,614,o),
(439,625,o),
(389,625,cs),
(338,625,o),
(293,613,o),
(253,588,cs),
(174,539,o),
(127,446,o),
(127,336,cs),
(127,282,o),
(138,234,o),
(160,192,cs),
(205,108,o),
(286,59,o),
(386,59,cs),
(477,59,o),
(554,97,o),
(592,161,c),
(652,125,l),
(626,81,o),
(589,47,o),
(542,23,cs),
(494,-1,o),
(443,-13,o),
(385,-13,cs)
);
}
);
width = 680;
},
{
anchors = (
{
name = m.uni0324_3;
position = "{386, -6}";
},
{
name = t.uni0308_1_3;
position = "{385, 700}";
}
);
layerId = "DF327079-0489-4E1B-B65C-406769ADC3EE";
shapes = (
{
closed = 1;
nodes = (
(323,-10,o),
(267,3,o),
(216,32,cs),
(114,89,o),
(50,197,o),
(50,335,cs),
(50,404,o),
(65,466,o),
(95,521,cs),
(153,630,o),
(261,694,o),
(384,694,cs),
(428,694,o),
(469,687,o),
(506,673,cs),
(579,645,o),
(627,592,o),
(646,529,c),
(612,520,l),
(600,558,o),
(574,591,o),
(535,618,cs),
(494,645,o),
(443,658,o),
(382,658,cs),
(327,658,o),
(278,644,o),
(233,617,cs),
(143,562,o),
(88,461,o),
(88,335,cs),
(88,273,o),
(102,219,o),
(128,172,cs),
(181,78,o),
(277,25,o),
(388,25,cs),
(492,25,o),
(575,67,o),
(620,142,c),
(651,125,l),
(625,82,o),
(589,48,o),
(543,25,cs),
(496,1,o),
(443,-10,o),
(386,-10,cs)
);
}
);
width = 689;
}
);
leftKerningGroup = C2;
rightKerningGroup = C;
unicode = 67;
},
{
glyphname = D;
layers = (
{
layerId = "8644C546-E7FE-4718-8D12-21E7933BC7CE";
shapes = (
{
closed = 1;
nodes = (
(441,-13,o),
(558,56,o),
(618,165,cs),
(648,220,o),
(663,280,o),
(663,346,cs),
(663,466,o),
(606,576,o),
(503,638,cs),
(452,669,o),
(392,684,o),
(325,684,cs),
(66,684,l),
(66,532,l),
(323,532,ls),
(402,532,o),
(453,497,o),
(477,441,cs),
(489,412,o),
(495,380,o),
(495,343,cs),
(495,214,o),
(421,141,o),
(304,141,cs),
(281,141,o),
(254,142,o),
(231,146,c),
(231,655,l),
(66,655,l),
(66,5,l),
(156,-4,l),
(158,-4,l),
(161,-5,o),
(172,-6,o),
(191,-7,cs),
(210,-8,o),
(242,-9,o),
(289,-10,cs)
);
}
);
width = 689;
},
{
layerId = "B882EE25-4F70-487C-AAE1-5981B86ECF6B";
shapes = (
{
closed = 1;
nodes = (
(441,-10,o),
(550,53,o),
(610,160,cs),
(639,213,o),
(654,274,o),
(654,342,cs),
(654,471,o),
(600,579,o),
(504,639,cs),
(456,669,o),
(400,684,o),
(336,684,cs),
(79,684,l),
(79,608,l),
(325,608,ls),
(428,608,o),
(502,562,o),
(541,481,cs),
(560,440,o),
(570,393,o),
(570,339,cs),
(570,163,o),
(465,65,o),
(274,65,cs),
(241,65,o),
(202,67,o),
(161,70,c),
(161,651,l),
(79,651,l),
(79,1,l),
(135,-4,l),
(159,-6,ls),
(180,-8,o),
(201,-9,o),
(222,-10,c),
(242,-10,o),
(270,-10,o),
(306,-10,cs)
);
}
);
width = 691;
},
{
layerId = "DF327079-0489-4E1B-B65C-406769ADC3EE";
shapes = (
{
closed = 1;
nodes = (
(448,-9,o),
(554,51,o),
(610,158,cs),
(638,211,o),
(652,273,o),
(652,342,cs),
(652,474,o),
(598,583,o),
(502,641,cs),
(454,670,o),
(398,684,o),
(335,684,cs),
(86,684,l),
(86,649,l),
(326,649,ls),
(443,649,o),
(532,595,o),
(578,502,cs),
(601,455,o),
(612,401,o),
(612,339,cs),
(612,140,o),
(497,26,o),
(293,26,cs),
(225,26,o),
(156,28,o),
(124,31,c),
(124,649,l),
(86,649,l),
(86,0,l),
(125,-3,l),
(152,-5,l),
(177,-6,o),
(203,-7,o),
(229,-8,cs),
(255,-9,o),
(284,-9,o),
(315,-9,cs)
);
}
);
width = 700;
}
);
rightKerningGroup = D;
unicode = 68;
},
{
glyphname = E;
layers = (
{
anchors = (
{
name = m.uni0324_3;
position = "{322, 0}";
},
{
name = t.uni0308_1_3;
position = "{309, 687}";
},
{
name = m.uni0328_2;
position = "{557, 0}";
}
);
layerId = "8644C546-E7FE-4718-8D12-21E7933BC7CE";
shapes = (
{
closed = 1;
nodes = (
(66,684,l),
(547,684,l),
(547,536,l),
(231,536,l),
(231,411,l),
(511,411,l),
(511,273,l),
(231,273,l),
(231,148,l),
(557,148,l),
(557,0,l),
(66,0,l)
);
}
);
width = 588;
},
{
anchors = (
{
name = m.uni0324_3;
position = "{325, -2}";
},
{
name = t.uni0308_1_3;
position = "{316, 688}";
},
{
name = m.uni0328_2;
position = "{569, -2}";
}
);
layerId = "B882EE25-4F70-487C-AAE1-5981B86ECF6B";
shapes = (
{
closed = 1;
nodes = (
(79,684,l),
(529,684,l),
(529,608,l),
(161,608,l),
(161,399,l),
(482,399,l),
(482,323,l),
(161,323,l),
(161,75,l),
(548,75,l),
(548,-1,l),
(79,-1,l)
);
}
);
width = 571;
},
{
anchors = (
{
name = m.uni0324_3;
position = "{325, -2}";
},
{
name = t.uni0308_1_3;
position = "{316, 688}";
},
{
name = m.uni0328_2;
position = "{569, -2}";
}
);
layerId = "DF327079-0489-4E1B-B65C-406769ADC3EE";
shapes = (
{
closed = 1;
nodes = (
(86,684,l),
(516,684,l),
(516,648,l),
(124,648,l),
(124,382,l),
(463,382,l),
(463,346,l),
(124,346,l),
(124,36,l),
(536,36,l),
(536,0,l),
(86,0,l)
);
}
);
width = 567;
}
);
rightKerningGroup = E;
unicode = 69;
},
{
glyphname = F;
layers = (
{
layerId = "8644C546-E7FE-4718-8D12-21E7933BC7CE";
shapes = (
{
closed = 1;
nodes = (
(66,684,l),
(538,684,l),
(538,536,l),
(232,536,l),
(232,401,l),
(502,401,l),
(502,263,l),
(232,263,l),
(233,1,l),
(66,1,l)
);
}
);
width = 563;
},
{
layerId = "B882EE25-4F70-487C-AAE1-5981B86ECF6B";
shapes = (
{
closed = 1;
nodes = (
(79,684,l),
(507,684,l),
(507,606,l),
(161,606,l),
(161,393,l),
(489,393,l),
(489,315,l),
(161,315,l),
(161,-1,l),
(79,-1,l)
);
}
);
width = 525;
},
{
layerId = "DF327079-0489-4E1B-B65C-406769ADC3EE";
shapes = (
{
closed = 1;
nodes = (
(86,684,l),
(493,684,l),
(493,647,l),
(124,647,l),
(124,372,l),
(471,372,l),
(471,337,l),
(124,337,l),
(124,1,l),
(86,1,l)
);
}
);
width = 518;
}
);
rightKerningGroup = F;
unicode = 70;
},
{
glyphname = G;
layers = (
{
anchors = (
{
name = m.uni0324_3;
position = "{372, -12}";
},
{
name = t.uni0308_1_3;
position = "{386, 698}";
}
);
layerId = "8644C546-E7FE-4718-8D12-21E7933BC7CE";
shapes = (
{
closed = 1;
nodes = (
(313,-16,o),
(256,-1,o),
(205,29,cs),
(102,90,o),
(39,201,o),
(39,341,cs),
(39,410,o),
(54,472,o),
(84,527,cs),
(145,636,o),
(256,700,o),
(387,700,cs),
(431,700,o),
(471,694,o),
(510,680,cs),
(587,653,o),
(643,597,o),
(666,521,c),
(529,481,l),
(525,493,o),
(517,505,o),
(505,517,cs),
(481,540,o),
(438,558,o),
(391,558,cs),
(353,558,o),
(319,549,o),
(290,530,cs),
(231,492,o),
(198,421,o),
(198,339,cs),
(198,296,o),
(205,258,o),
(222,227,c),
(253,162,o),
(313,126,o),
(387,126,cs),
(424,126,o),
(456,134,o),
(482,150,cs),
(534,180,o),
(562,238,o),
(562,315,c),
(633,253,l),
(399,253,l),
(399,377,l),
(704,377,l),
(704,341,ls),
(704,270,o),
(691,207,o),
(664,153,cs),
(609,46,o),
(506,-16,o),
(378,-16,cs)
);
}
);
width = 743;
},
{
anchors = (
{
name = m.uni0324_3;
position = "{369, -16}";
},
{
name = t.uni0308_1_3;
position = "{373, 695}";
}
);
layerId = "B882EE25-4F70-487C-AAE1-5981B86ECF6B";
shapes = (
{
closed = 1;
nodes = (
(316,-13,o),
(258,2,o),
(208,32,cs),
(105,92,o),
(44,204,o),
(44,340,cs),
(44,409,o),
(59,470,o),
(88,524,cs),
(147,632,o),
(255,697,o),
(385,697,cs),
(428,697,o),
(468,690,o),
(506,675,cs),
(580,647,o),
(635,593,o),
(655,527,c),
(584,505,l),
(577,528,o),
(564,548,o),
(545,567,c),
(507,602,o),
(449,623,o),
(386,623,cs),
(336,623,o),
(292,610,o),
(251,586,cs),
(171,538,o),
(123,448,o),
(123,341,cs),
(123,287,o),
(134,239,o),
(156,197,cs),
(201,111,o),
(283,61,o),
(384,61,cs),
(430,61,o),
(471,72,o),
(506,94,cs),
(576,136,o),
(616,215,o),
(616,317,c),
(654,279,l),
(390,279,l),
(390,354,l),
(691,354,l),
(691,317,ls),
(691,251,o),
(679,194,o),
(653,144,cs),
(602,45,o),
(504,-13,o),
(382,-13,cs)
);
}
);
width = 735;
},
{
anchors = (
{
name = m.uni0324_3;
position = "{369, -16}";
},
{
name = t.uni0308_1_3;
position = "{373, 695}";
}
);
layerId = "DF327079-0489-4E1B-B65C-406769ADC3EE";
shapes = (
{
closed = 1;
nodes = (
(325,-10,o),
(267,5,o),
(216,34,cs),
(113,93,o),
(51,202,o),
(51,337,cs),
(51,407,o),
(67,470,o),
(97,524,cs),
(157,631,o),
(265,694,o),
(392,694,cs),
(435,694,o),
(475,687,o),
(512,672,cs),
(584,643,o),
(634,592,o),
(654,531,c),
(622,520,l),
(616,545,o),
(602,568,o),
(581,590,cs),
(539,632,o),
(474,661,o),
(392,661,cs),
(334,661,o),
(283,647,o),
(237,620,cs),
(145,566,o),
(89,465,o),
(89,337,cs),
(89,277,o),
(102,222,o),
(128,175,cs),
(180,80,o),
(275,23,o),
(390,23,cs),
(442,23,o),
(490,36,o),
(530,60,cs),
(612,109,o),
(658,201,o),
(658,317,c),
(675,301,l),
(394,301,l),
(394,334,l),
(691,334,l),
(691,317,ls),
(691,252,o),
(678,194,o),
(653,145,cs),
(603,46,o),
(510,-10,o),
(390,-10,cs)
);
}
);
width = 742;
}
);
leftKerningGroup = C2;
rightKerningGroup = D;
unicode = 71;
},
{
glyphname = H;
layers = (
{
anchors = (
{
name = m.uni0324_3;
position = "{357, 0}";
},
{
name = t.uni0308_1_3;
position = "{357, 684}";
},
{
name = t.uni0335_4;
position = "{358, 508}";
}
);
layerId = "8644C546-E7FE-4718-8D12-21E7933BC7CE";
shapes = (
{
closed = 1;
nodes = (
(66,684,l),
(231,684,l),
(231,418,l),
(482,418,l),
(482,684,l),
(647,684,l),
(647,0,l),
(482,0,l),
(482,280,l),
(231,280,l),
(231,0,l),
(66,0,l)
);
}
);
width = 713;
},
{
anchors = (
{
name = m.uni0324_3;
position = "{373, 0}";
},
{
name = t.uni0308_1_3;
position = "{372, 684}";
},
{
name = t.uni0335_4;
position = "{372, 522}";
}
);
layerId = "B882EE25-4F70-487C-AAE1-5981B86ECF6B";
shapes = (
{
closed = 1;
nodes = (
(79,684,l),
(161,684,l),
(161,397,l),
(539,397,l),
(539,684,l),
(621,684,l),
(621,-1,l),
(539,-1,l),
(539,321,l),
(161,321,l),
(161,-1,l),
(79,-1,l)
);
}
);
width = 700;
},
{
anchors = (
{
name = m.uni0324_3;
position = "{373, 0}";
},
{
name = t.uni0308_1_3;
position = "{372, 684}";
},
{
name = t.uni0335_4;
position = "{372, 522}";
}
);
layerId = "DF327079-0489-4E1B-B65C-406769ADC3EE";
shapes = (
{
closed = 1;
nodes = (
(86,684,l),
(124,684,l),
(124,384,l),
(552,384,l),
(552,684,l),
(590,684,l),
(590,0,l),
(552,0,l),
(552,348,l),
(124,348,l),
(124,0,l),
(86,0,l)
);
}
);
width = 676;
}
);
unicode = 72;
},
{
glyphname = I;
layers = (
{
anchors = (
{
name = m.uni0324_3;
position = "{149, -1}";
},
{
name = t.uni0308_1_3;
position = "{148, 684}";
},
{
name = t.uni0335_4;
position = "{149, 339}";
},
{
name = m.uni0328_2;
position = "{231, 0}";
}
);
layerId = "8644C546-E7FE-4718-8D12-21E7933BC7CE";
shapes = (
{
closed = 1;
nodes = (
(66,684,l),
(231,684,l),
(231,0,l),
(66,0,l)
);
}
);
width = 297;
},
{
anchors = (
{
name = m.uni0324_3;
position = "{166, -1}";
},
{
name = t.uni0308_1_3;
position = "{161, 683}";
},
{
name = t.uni0335_4;
position = "{165, 336}";
},
{
name = m.uni0328_2;
position = "{268, -2}";
}
);
layerId = "B882EE25-4F70-487C-AAE1-5981B86ECF6B";
shapes = (
{
closed = 1;
nodes = (
(79,684,l),
(161,684,l),
(161,-1,l),
(79,-1,l)
);
}
);
width = 240;
},
{
anchors = (
{
name = m.uni0324_3;
position = "{166, -1}";
},
{
name = t.uni0308_1_3;
position = "{161, 683}";
},
{
name = t.uni0335_4;
position = "{165, 336}";
},
{
name = m.uni0328_2;
position = "{268, -2}";
}
);
layerId = "DF327079-0489-4E1B-B65C-406769ADC3EE";
shapes = (
{
closed = 1;
nodes = (
(86,684,l),
(124,684,l),
(124,1,l),
(86,1,l)
);
}
);
width = 210;
}
);
unicode = 73;
},
{
glyphname = J;
layers = (
{
layerId = "8644C546-E7FE-4718-8D12-21E7933BC7CE";
shapes = (
{
closed = 1;
nodes = (
(188,-22,o),
(145,-11,o),
(110,11,cs),
(39,55,o),
(4,133,o),
(16,224,c),
(163,224,l),
(163,173,o),
(186,130,o),
(238,130,cs),
(286,130,o),
(313,167,o),
(313,230,cs),
(313,684,l),
(478,684,l),
(478,227,ls),
(478,150,o),
(457,90,o),
(414,45,cs),
(371,0,o),
(313,-22,o),
(238,-22,cs)
);
}
);
width = 541;
},
{
layerId = "B882EE25-4F70-487C-AAE1-5981B86ECF6B";
shapes = (
{
closed = 1;
nodes = (
(181,-9,o),
(141,0,o),
(108,18,cs),
(43,54,o),
(11,121,o),
(15,212,c),
(89,212,l),
(84,116,o),
(132,67,o),
(231,67,cs),
(304,67,o),
(362,125,o),
(362,229,cs),
(362,684,l),
(444,684,l),
(444,226,ls),
(444,154,o),
(425,97,o),
(386,55,cs),
(347,12,o),
(294,-9,o),
(228,-9,cs)
);
}
);
width = 519;
},
{
layerId = "DF327079-0489-4E1B-B65C-406769ADC3EE";
shapes = (
{
closed = 1;
nodes = (
(179,-6,o),
(144,2,o),
(115,19,c),
(56,51,o),
(23,111,o),
(22,190,c),
(62,190,l),
(65,91,o),
(125,30,o),
(217,30,cs),
(318,30,o),
(384,100,o),
(384,213,cs),
(384,684,l),
(422,684,l),
(422,210,ls),
(422,144,o),
(404,92,o),
(367,53,cs),
(330,14,o),
(281,-6,o),
(218,-6,cs)
);
}
);
width = 504;
}
);
rightKerningGroup = J;
unicode = 74;
},
{
glyphname = K;
layers = (
{
anchors = (
{
name = m.uni0324_3;
position = "{351, 0}";
},
{
name = t.uni0308_1_3;
position = "{334, 684}";
}
);
layerId = "8644C546-E7FE-4718-8D12-21E7933BC7CE";
shapes = (
{
closed = 1;
nodes = (
(66,684,l),
(231,684,l),
(231,0,l),
(66,0,l)
);
},
{
closed = 1;
nodes = (
(496,0,l),
(293,347,l),
(409,451,l),
(686,0,l)
);
},
{
closed = 1;
nodes = (
(170,290,l),
(462,684,l),
(655,684,l),
(170,47,l)
);
}
);
width = 666;
},
{
anchors = (
{
name = m.uni0324_3;
position = "{367, 0}";
},
{
name = t.uni0308_1_3;
position = "{351, 684}";
}
);
layerId = "B882EE25-4F70-487C-AAE1-5981B86ECF6B";
shapes = (
{
closed = 1;
nodes = (
(79,684,l),
(161,684,l),
(161,0,l),
(79,0,l)
);
},
{
closed = 1;
nodes = (
(511,0,l),
(274,391,l),
(332,443,l),
(606,0,l)
);
},
{
closed = 1;
nodes = (
(135,282,l),
(467,684,l),
(569,684,l),
(135,162,l)
);
}
);
width = 618;
},
{
anchors = (
{
name = m.uni0324_3;
position = "{367, 0}";
},
{
name = t.uni0308_1_3;
position = "{351, 684}";
}
);
layerId = "DF327079-0489-4E1B-B65C-406769ADC3EE";
shapes = (
{
closed = 1;
nodes = (
(86,684,l),
(124,684,l),
(124,1,l),
(86,1,l)
);
},
{
closed = 1;
nodes = (
(528,0,l),
(274,418,l),
(301,444,l),
(574,0,l)
);
},
{
closed = 1;
nodes = (
(114,258,l),
(478,684,l),
(525,684,l),
(114,204,l)
);
}
);
width = 609;
}
);
rightKerningGroup = K;
unicode = 75;
},
{
glyphname = L;
layers = (
{
anchors = (
{
name = m.uni0324_3;
position = "{311, 1}";
},
{
name = t.uni0308_1_3;
position = "{149, 684}";
},
{
name = t.uni0335_4;
position = "{144, 390}";
},
{
name = t.uni030C.alt_4;
position = "{305, 436}";
}
);
layerId = "8644C546-E7FE-4718-8D12-21E7933BC7CE";
shapes = (
{
closed = 1;
nodes = (
(66,684,l),
(231,684,l),
(231,148,l),
(546,148,l),
(546,0,l),
(66,0,l)
);
}
);
width = 560;
},
{
anchors = (
{
name = m.uni0324_3;
position = "{330, 1}";
},
{
name = t.uni0308_1_3;
position = "{165, 685}";
},
{
name = t.uni0335_4;
position = "{141, 402}";
},
{
name = t.uni030C.alt_4;
position = "{327, 437}";
}
);
layerId = "B882EE25-4F70-487C-AAE1-5981B86ECF6B";
shapes = (
{
closed = 1;
nodes = (
(79,684,l),
(161,684,l),
(161,75,l),
(508,75,l),
(508,-1,l),
(79,-1,l)
);
}
);
width = 521;
},
{
anchors = (
{
name = m.uni0324_3;
position = "{330, 1}";
},
{
name = t.uni0308_1_3;
position = "{165, 685}";
},
{
name = t.uni0335_4;
position = "{141, 402}";
},
{
name = t.uni030C.alt_4;
position = "{327, 437}";
}
);
layerId = "DF327079-0489-4E1B-B65C-406769ADC3EE";
shapes = (
{
closed = 1;
nodes = (
(86,684,l),
(124,684,l),
(124,36,l),
(502,36,l),
(502,0,l),
(86,0,l)
);
}
);
width = 525;
}
);
rightKerningGroup = L;
unicode = 76;
},
{
glyphname = M;
leftMetricsKey = "=13";
rightMetricsKey = "=13";
layers = (
{
layerId = "8644C546-E7FE-4718-8D12-21E7933BC7CE";
shapes = (
{
closed = 1;
nodes = (
(510,4,l),
(645,443,l),
(599,443,l),
(679,0,l),
(853,0,l),
(744,684,l),
(570,684,l),
(422,222,l),
(444,222,l),
(296,684,l),
(122,684,l),
(13,0,l),
(187,0,l),
(267,443,l),
(221,443,l),
(356,4,l)
);
}
);
width = 866;
},
{
layerId = "B882EE25-4F70-487C-AAE1-5981B86ECF6B";
leftMetricsKey = "=28";
rightMetricsKey = "=28";
shapes = (
{
closed = 1;
nodes = (
(436,2,l),
(635,588,l),
(618,588,l),
(683,0,l),
(763,0,l),
(686,684,l),
(599,684,l),
(389,90,l),
(399,90,l),
(194,684,l),
(107,684,l),
(28,0,l),
(111,0,l),
(175,588,l),
(158,588,l),
(354,2,l)
);
}
);
width = 791;
},
{
layerId = "DF327079-0489-4E1B-B65C-406769ADC3EE";
leftMetricsKey = "=34";
rightMetricsKey = "=34";
shapes = (
{
closed = 1;
nodes = (
(406,1,l),
(633,644,l),
(627,644,l),
(687,0,l),
(727,0,l),
(662,684,l),
(612,684,l),
(374,30,l),
(384,30,l),
(152,684,l),
(101,684,l),
(34,0,l),
(77,0,l),
(135,644,l),
(129,644,l),
(353,1,l)
);
}
);
width = 761;
}
);
leftKerningGroup = M;
rightKerningGroup = M;
unicode = 77;
},
{
glyphname = N;
layers = (
{
layerId = "8644C546-E7FE-4718-8D12-21E7933BC7CE";
shapes = (
{
closed = 1;
nodes = (
(300,276,l),
(220,398,l),
(231,291,l),
(231,0,l),
(66,0,l),
(66,684,l),
(177,684,l),
(451,352,l),
(494,283,l),
(485,369,l),
(485,684,l),
(650,684,l),
(650,0,l),
(545,0,l)
);
}
);
width = 716;
},
{
layerId = "B882EE25-4F70-487C-AAE1-5981B86ECF6B";
shapes = (
{
closed = 1;
nodes = (
(215,454,l),
(154,542,l),
(161,440,l),
(161,0,l),
(79,0,l),
(79,684,l),
(133,684,l),
(488,230,l),
(550,142,l),
(543,244,l),
(543,684,l),
(625,684,l),
(625,0,l),
(569,0,l)
);
}
);
width = 704;
},
{
layerId = "DF327079-0489-4E1B-B65C-406769ADC3EE";
shapes = (
{
closed = 1;
nodes = (
(140,589,l),
(122,619,l),
(124,584,l),
(124,0,l),
(86,0,l),
(86,684,l),
(112,684,l),
(555,98,l),
(575,67,l),
(572,108,l),
(572,684,l),
(610,684,l),
(610,0,l),
(587,0,l)
);
}
);
width = 696;
}
);
unicode = 78;
},
{
glyphname = O;
layers = (
{
anchors = (
{
name = m.uni0324_3;
position = "{395, -15}";
},
{
name = t.uni0308_1_3;
position = "{397, 699}";
},
{
name = t.uni0335_4;
position = "{394, 337}";
},
{
name = t.uni031B_4;
position = "{521, 693}";
},
{
name = m.uni0328_2;
position = "{607, 34}";
},
{
name = t.uni030C.alt_4;
position = "{769, 643}";
}
);
layerId = "8644C546-E7FE-4718-8D12-21E7933BC7CE";
shapes = (
{
closed = 1;
nodes = (
(329,-16,o),
(270,1,o),
(216,32,cs),
(107,95,o),
(39,209,o),
(39,340,cs),
(39,407,o),
(56,467,o),
(87,523,cs),
(149,633,o),
(263,700,o),
(395,700,cs),
(461,700,o),
(522,685,o),
(577,653,cs),
(685,591,o),
(751,476,o),
(751,340,cs),
(751,274,o),
(735,213,o),
(704,159,cs),
(642,51,o),
(529,-16,o),
(395,-16,cs)
);
},
{
closed = 1;
nodes = (
(432,126,o),
(464,136,o),
(494,154,cs),
(553,191,o),
(589,258,o),
(589,340,cs),
(589,382,o),
(581,420,o),
(564,454,cs),
(531,519,o),
(468,557,o),
(394,557,cs),
(358,557,o),
(326,548,o),
(296,530,c),
(237,491,o),
(201,422,o),
(201,340,cs),
(201,301,o),
(210,264,o),
(227,231,cs),
(261,166,o),
(322,126,o),
(394,126,cs)
);
}
);
width = 790;
},
{
anchors = (
{
name = m.uni0324_3;
position = "{400, -21}";
},
{
name = t.uni0308_1_3;
position = "{404, 707}";
},
{
name = t.uni0335_4;
position = "{401, 336}";
},
{
name = t.uni031B_4;
position = "{522, 705}";
},
{
name = m.uni0328_2;
position = "{632, 36}";
},
{
name = t.uni030C.alt_4;
position = "{776, 643}";
}
);
layerId = "B882EE25-4F70-487C-AAE1-5981B86ECF6B";
shapes = (
{
closed = 1;
nodes = (
(321,-13,o),
(263,2,o),
(211,33,cs),
(109,95,o),
(45,208,o),
(45,341,cs),
(45,408,o),
(60,469,o),
(90,523,cs),
(149,631,o),
(256,697,o),
(384,697,cs),
(447,697,o),
(506,682,o),
(557,651,cs),
(660,589,o),
(723,475,o),
(723,341,cs),
(723,275,o),
(709,214,o),
(679,160,cs),
(620,52,o),
(512,-13,o),
(384,-13,cs)
);
},
{
closed = 1;
nodes = (
(433,61,o),
(477,73,o),
(517,98,cs),
(595,147,o),
(643,236,o),
(643,341,cs),
(643,394,o),
(632,442,o),
(610,485,cs),
(565,571,o),
(482,622,o),
(384,622,cs),
(335,622,o),
(291,611,o),
(252,586,cs),
(173,537,o),
(125,446,o),
(125,341,cs),
(125,288,o),
(137,240,o),
(159,198,cs),
(204,112,o),
(287,61,o),
(384,61,cs)
);
}
);
width = 768;
},
{
anchors = (
{
name = m.uni0324_3;
position = "{400, -21}";
},
{
name = t.uni0308_1_3;
position = "{404, 707}";
},
{
name = t.uni0335_4;
position = "{401, 336}";
},
{
name = t.uni031B_4;
position = "{522, 705}";
},
{
name = m.uni0328_2;
position = "{632, 36}";
},
{
name = t.uni030C.alt_4;
position = "{776, 643}";
}
);
layerId = "DF327079-0489-4E1B-B65C-406769ADC3EE";
shapes = (
{
closed = 1;
nodes = (
(316,-10,o),
(261,5,o),
(212,35,cs),
(113,96,o),
(54,207,o),
(54,341,cs),
(54,409,o),
(68,469,o),
(96,523,cs),
(151,629,o),
(255,694,o),
(378,694,cs),
(440,694,o),
(495,679,o),
(545,648,cs),
(643,587,o),
(702,476,o),
(702,341,cs),
(702,274,o),
(688,214,o),
(660,161,cs),
(604,54,o),
(501,-10,o),
(378,-10,cs)
);
},
{
closed = 1;
nodes = (
(431,25,o),
(481,39,o),
(525,66,cs),
(614,121,o),
(666,222,o),
(666,341,cs),
(666,401,o),
(653,455,o),
(628,503,cs),
(578,600,o),
(486,658,o),
(377,658,cs),
(323,658,o),
(275,644,o),
(232,617,cs),
(144,562,o),
(91,460,o),
(91,341,cs),
(91,281,o),
(104,228,o),
(129,180,cs),
(179,84,o),
(270,25,o),
(377,25,cs)
);
}
);
width = 756;
}
);
leftKerningGroup = C2;
rightKerningGroup = D;
unicode = 79;
},
{
glyphname = P;
layers = (
{
layerId = "8644C546-E7FE-4718-8D12-21E7933BC7CE";
shapes = (
{
closed = 1;
nodes = (
(283,194,o),
(263,195,o),
(246,197,cs),
(228,199,o),
(214,203,o),
(205,208,c),
(205,354,l),
(211,351,l),
(228,344,o),
(251,341,o),
(280,341,cs),
(356,341,o),
(391,382,o),
(391,435,cs),
(391,468,o),
(381,493,o),
(361,509,cs),
(341,524,o),
(320,532,o),
(297,532,cs),
(66,532,l),
(66,684,l),
(311,684,ls),
(357,684,o),
(399,674,o),
(436,653,cs),
(511,612,o),
(556,532,o),
(556,435,cs),
(556,392,o),
(547,353,o),
(529,318,cs),
(492,246,o),
(417,198,o),
(306,195,cs)
);
},
{
closed = 1;
nodes = (
(66,559,l),
(231,547,l),
(231,-1,l),
(66,-1,l)
);
}
);
width = 577;
},
{
layerId = "B882EE25-4F70-487C-AAE1-5981B86ECF6B";
shapes = (
{
closed = 1;
nodes = (
(237,216,o),
(218,217,o),
(196,219,cs),
(173,221,o),
(151,223,o),
(130,226,c),
(130,303,l),
(143,301,l),
(197,295,o),
(234,292,o),
(253,292,cs),
(370,292,o),
(435,354,o),
(435,454,cs),
(435,501,o),
(422,539,o),
(397,567,c),
(371,594,o),
(337,608,o),
(294,608,cs),
(79,608,l),
(79,684,l),
(307,684,ls),
(348,684,o),
(385,674,o),
(417,653,cs),
(480,612,o),
(517,538,o),
(517,451,cs),
(517,405,o),
(507,364,o),
(486,329,cs),
(445,257,o),
(363,216,o),
(254,216,cs)
);
},
{
closed = 1;
nodes = (
(79,683,l),
(161,683,l),
(161,-1,l),
(79,-1,l)
);
}
);
width = 546;
},
{
layerId = "DF327079-0489-4E1B-B65C-406769ADC3EE";
shapes = (
{
closed = 1;
nodes = (
(211,235,o),
(188,236,o),
(163,238,c),
(137,239,o),
(119,242,o),
(110,247,c),
(110,282,l),
(120,279,l),
(143,274,o),
(183,271,o),
(240,271,cs),
(377,271,o),
(466,343,o),
(466,468,cs),
(466,523,o),
(450,567,o),
(417,600,cs),
(384,632,o),
(337,648,o),
(274,648,cs),
(86,648,l),
(86,684,l),
(288,684,ls),
(331,684,o),
(368,675,o),
(401,657,cs),
(466,621,o),
(504,553,o),
(504,468,cs),
(504,421,o),
(493,381,o),
(472,346,cs),
(429,276,o),
(347,235,o),
(232,235,cs)
);
},
{
closed = 1;
nodes = (
(86,681,l),
(124,681,l),
(124,0,l),
(86,0,l)
);
}
);
width = 544;
}
);
rightKerningGroup = P;
unicode = 80;
},
{
glyphname = Q;
layers = (
{
anchors = (
{
name = m.uni0324_3;
position = "{392, 0}";
},
{
name = t.uni0308_1_3;
position = "{392, 684}";
},
{
name = t.uni0335_4;
position = "{394, 337}";
},
{
name = t.uni031B_4;
position = "{521, 693}";
},
{
name = m.uni0328_2;
position = "{607, 34}";
},
{
name = t.uni030C.alt_4;
position = "{769, 643}";
}
);
layerId = "8644C546-E7FE-4718-8D12-21E7933BC7CE";
shapes = (
{
closed = 1;
nodes = (
(351,-13,l),
(382,-16,o),
(422,-30,o),
(459,-76,cs),
(491,-115,ls),
(527,-159,o),
(574,-176,o),
(615,-176,cs),
(660,-176,o),
(705,-158,o),
(722,-139,c),
(671,-24,l),
(662,-32,o),
(650,-36,o),
(643,-36,cs),
(628,-36,o),
(611,-17,o),
(588,3,cs),
(575,14,ls),
(535,48,o),
(454,74,o),
(408,74,c)
);
},
{
closed = 1;
nodes = (
(529,-16,o),
(642,51,o),
(704,159,cs),
(735,213,o),
(751,274,o),
(751,340,cs),
(751,476,o),
(685,591,o),
(577,653,cs),
(522,685,o),
(461,700,o),
(395,700,cs),
(263,700,o),
(149,633,o),
(87,523,cs),
(56,467,o),
(39,407,o),
(39,340,cs),
(39,209,o),
(107,95,o),
(216,32,cs),
(270,1,o),
(329,-16,o),
(395,-16,cs)
);
},
{
closed = 1;
nodes = (
(322,126,o),
(261,166,o),
(227,231,cs),
(210,264,o),
(201,301,o),
(201,340,cs),
(201,422,o),
(237,491,o),
(296,530,c),
(326,548,o),
(358,557,o),
(394,557,cs),
(468,557,o),
(531,519,o),
(564,454,cs),
(581,420,o),
(589,382,o),
(589,340,cs),
(589,258,o),
(553,191,o),
(494,154,cs),
(464,136,o),
(432,126,o),
(394,126,cs)
);
}
);
width = 790;
},
{
anchors = (
{
name = m.uni0324_3;
position = "{396, 0}";
},
{
name = t.uni0308_1_3;
position = "{396, 684}";
},
{
name = t.uni0335_4;
position = "{398, 336}";
},
{
name = t.uni031B_4;
position = "{522, 701}";
},
{
name = m.uni0328_2;
position = "{623, 35}";
},
{
name = t.uni030C.alt_4;
position = "{773, 643}";
}
);
layerId = "B882EE25-4F70-487C-AAE1-5981B86ECF6B";
shapes = (
{
closed = 1;
nodes = (
(342,-9,l),
(411,-17,o),
(448,-44,o),
(485,-89,cs),
(519,-129,ls),
(548,-163,o),
(580,-175,o),
(613,-175,cs),
(641,-175,o),
(665,-164,o),
(677,-152,c),
(643,-89,l),
(637,-95,o),
(628,-98,o),
(619,-98,cs),
(605,-98,o),
(593,-88,o),
(579,-73,cs),
(530,-21,ls),
(500,10,o),
(456,27,o),
(416,32,c)
);
},
{
closed = 1;
nodes = (
(512,-13,o),
(620,52,o),
(679,160,cs),
(709,214,o),
(723,275,o),
(723,341,cs),
(723,475,o),
(660,589,o),
(557,651,cs),
(506,682,o),
(447,697,o),
(384,697,cs),
(256,697,o),
(149,631,o),
(90,523,cs),
(60,469,o),
(45,408,o),
(45,341,cs),
(45,208,o),
(109,95,o),
(211,33,cs),
(263,2,o),
(321,-13,o),
(384,-13,cs)
);
},
{
closed = 1;
nodes = (
(287,61,o),
(204,112,o),
(159,198,cs),
(137,240,o),
(125,288,o),
(125,341,cs),
(125,446,o),
(173,537,o),
(252,586,cs),
(291,611,o),
(335,622,o),
(384,622,cs),
(482,622,o),
(565,571,o),
(610,485,cs),
(632,442,o),
(643,394,o),
(643,341,cs),
(643,236,o),
(595,147,o),
(517,98,cs),
(477,73,o),
(433,61,o),
(384,61,cs)
);
}
);
width = 774;
},
{
anchors = (
{
name = m.uni0324_3;
position = "{398, 0}";
},
{
name = t.uni0308_1_3;
position = "{398, 684}";
},
{
name = t.uni0335_4;
position = "{401, 336}";
},
{
name = t.uni031B_4;
position = "{522, 705}";
},
{
name = m.uni0328_2;
position = "{632, 36}";
},
{
name = t.uni030C.alt_4;
position = "{776, 643}";
}
);
layerId = "DF327079-0489-4E1B-B65C-406769ADC3EE";
shapes = (
{
closed = 1;
nodes = (
(336,-7,l),
(429,-17,o),
(463,-52,o),
(501,-96,cs),
(535,-137,ls),
(560,-166,o),
(583,-174,o),
(611,-174,cs),
(630,-174,o),
(641,-168,o),
(650,-160,c),
(626,-128,l),
(622,-132,o),
(615,-135,o),
(605,-135,cs),
(591,-135,o),
(583,-129,o),
(573,-118,cs),
(503,-42,ls),
(478,-14,o),
(457,-2,o),
(421,7,c)
);
},
{
closed = 1;
nodes = (
(501,-10,o),
(604,54,o),
(660,161,cs),
(688,214,o),
(702,274,o),
(702,341,cs),
(702,476,o),
(643,587,o),
(545,648,cs),
(495,679,o),
(440,694,o),
(378,694,cs),
(255,694,o),
(151,629,o),
(96,523,cs),
(68,469,o),
(54,409,o),
(54,341,cs),
(54,207,o),
(113,96,o),
(212,35,cs),
(261,5,o),
(316,-10,o),
(378,-10,cs)
);
},
{
closed = 1;
nodes = (
(270,25,o),
(179,84,o),
(129,180,cs),
(104,228,o),
(91,281,o),
(91,341,cs),
(91,460,o),
(144,562,o),
(232,617,cs),
(275,644,o),
(323,658,o),
(377,658,cs),
(486,658,o),
(578,600,o),
(628,503,cs),
(653,455,o),
(666,401,o),
(666,341,cs),
(666,222,o),
(614,121,o),
(525,66,cs),
(481,39,o),
(431,25,o),
(377,25,cs)
);
}
);
width = 764;
}
);
leftKerningGroup = C2;
rightKerningGroup = D;
unicode = 81;
},
{
glyphname = R;
layers = (
{
layerId = "B9CCD1C7-992E-4052-97DD-2CC74A5B09E2";
name = "#instance";
shapes = (
{
closed = 1;
nodes = (
(574,-21,o),
(607,-9,o),
(627,10,c),
(579,118,l),
(576,116,o),
(571,113,o),
(562,113,cs),
(547,113,o),
(533,133,o),
(519,151,cs),
(507,166,o),
(486,210,o),
(476,227,cs),
(451,266,o),
(414,285,o),
(382,292,c),
(398,292,o),
(409,292,o),
(422,292,cs),
(508,292,o),
(575,373,o),
(575,473,cs),
(575,598,o),
(487,685,o),
(349,685,cs),
(66,685,l),
(66,537,l),
(318,537,ls),
(381,537,o),
(410,507,o),
(410,457,cs),
(410,412,o),
(377,382,o),
(314,382,cs),
(83,382,l),
(171,338,o),
(307,217,o),
(348,150,cs),
(378,101,o),
(408,51,o),
(416,40,cs),
(447,-4,o),
(488,-21,o),
(531,-21,cs)
);
},
{
closed = 1;
nodes = (
(231,0,l),
(231,685,l),
(66,685,l),
(66,0,l)
);
}
);
width = 635;
},
{
layerId = "8644C546-E7FE-4718-8D12-21E7933BC7CE";
shapes = (
{
closed = 1;
nodes = (
(574,-21,o),
(607,-9,o),
(627,10,c),
(579,118,l),
(576,116,o),
(571,113,o),
(562,113,cs),
(547,113,o),
(533,133,o),
(519,151,cs),
(507,166,o),
(486,210,o),
(476,227,cs),
(451,266,o),
(414,285,o),
(382,292,c),
(398,292,o),
(409,292,o),
(422,292,cs),
(508,292,o),
(575,373,o),
(575,473,cs),
(575,598,o),
(487,685,o),
(349,685,cs),
(66,685,l),
(66,537,l),
(318,537,ls),
(381,537,o),
(410,507,o),
(410,457,cs),
(410,412,o),
(377,382,o),
(314,382,cs),
(83,382,l),
(171,338,o),
(307,217,o),
(348,150,cs),
(378,101,o),
(408,51,o),
(416,40,cs),
(447,-4,o),
(488,-21,o),
(531,-21,cs)
);
},
{
closed = 1;
nodes = (
(231,0,l),
(231,685,l),
(66,685,l),
(66,0,l)
);
}
);
width = 635;
},
{
layerId = "B882EE25-4F70-487C-AAE1-5981B86ECF6B";
shapes = (
{
closed = 1;
nodes = (
(546,-12,o),
(564,-5,o),
(576,6,c),
(551,60,l),
(546,56,o),
(538,54,o),
(531,54,cs),
(515,54,o),
(506,65,o),
(495,79,cs),
(483,95,o),
(423,201,o),
(395,238,cs),
(372,269,o),
(350,284,o),
(315,292,c),
(333,292,o),
(337,292,o),
(353,292,cs),
(447,292,o),
(524,376,o),
(524,483,cs),
(524,598,o),
(441,685,o),
(319,685,cs),
(80,685,l),
(80,613,l),
(307,613,ls),
(390,613,o),
(446,555,o),
(446,475,cs),
(446,394,o),
(388,338,o),
(298,338,cs),
(189,338,l),
(265,293,o),
(305,248,o),
(346,185,cs),
(367,154,o),
(428,50,o),
(440,33,cs),
(463,0,o),
(489,-12,o),
(520,-12,cs)
);
},
{
closed = 1;
nodes = (
(159,0,l),
(159,676,l),
(80,676,l),
(80,0,l)
);
}
);
width = 595;
},
{
layerId = "DF327079-0489-4E1B-B65C-406769ADC3EE";
shapes = (
{
closed = 1;
nodes = (
(533,-8,o),
(543,-3,o),
(551,4,c),
(537,32,l),
(532,27,o),
(522,26,o),
(516,26,cs),
(500,26,o),
(493,32,o),
(484,44,cs),
(472,61,o),
(392,197,o),
(356,243,cs),
(334,270,o),
(319,283,o),
(283,292,c),
(301,292,o),
(303,292,o),
(320,292,cs),
(417,292,o),
(500,378,o),
(500,488,cs),
(500,598,o),
(419,685,o),
(305,685,cs),
(86,685,l),
(86,649,l),
(301,649,ls),
(395,649,o),
(463,578,o),
(463,483,cs),
(463,385,o),
(393,317,o),
(290,317,cs),
(184,317,l),
(259,290,o),
(309,253,o),
(351,192,cs),
(367,169,o),
(437,49,o),
(451,29,cs),
(470,2,o),
(489,-8,o),
(515,-8,cs)
);
},
{
closed = 1;
nodes = (
(124,0,l),
(124,672,l),
(86,672,l),
(86,0,l)
);
}
);
width = 576;
}
);
unicode = 82;
},
{
glyphname = S;
layers = (
{
layerId = "8644C546-E7FE-4718-8D12-21E7933BC7CE";
shapes = (
{
closed = 1;
nodes = (
(237,-16,o),
(196,-7,o),
(160,10,cs),
(87,45,o),
(42,110,o),
(28,187,c),
(168,226,l),
(173,194,o),
(187,170,o),
(207,153,cs),
(227,135,o),
(253,126,o),
(284,126,cs),
(302,126,o),
(317,129,o),
(332,136,cs),
(359,148,o),
(375,172,o),
(375,200,cs),
(375,212,o),
(371,223,o),
(364,234,c),
(357,243,o),
(344,253,o),
(327,263,cs),
(309,274,o),
(285,285,o),
(253,299,cs),
(205,319,o),
(167,338,o),
(139,358,cs),
(82,398,o),
(58,442,o),
(58,503,cs),
(58,545,o),
(68,580,o),
(88,610,cs),
(126,669,o),
(197,700,o),
(280,700,cs),
(337,700,o),
(384,687,o),
(420,659,cs),
(457,631,o),
(478,594,o),
(483,549,c),
(344,512,l),
(340,540,o),
(316,558,o),
(282,558,cs),
(269,558,o),
(258,556,o),
(248,552,cs),
(228,545,o),
(217,530,o),
(217,511,cs),
(217,502,o),
(221,494,o),
(227,487,cs),
(241,472,o),
(269,455,o),
(322,433,cs),
(374,412,o),
(415,390,o),
(446,368,cs),
(507,323,o),
(533,273,o),
(533,208,cs),
(533,164,o),
(523,126,o),
(501,92,cs),
(458,24,o),
(378,-16,o),
(282,-16,cs)
);
}
);
width = 563;
},
{
layerId = "B882EE25-4F70-487C-AAE1-5981B86ECF6B";
shapes = (
{
closed = 1;
nodes = (
(223,-12,o),
(187,-3,o),
(153,13,cs),
(85,46,o),
(37,104,o),
(26,171,c),
(99,195,l),
(108,155,o),
(130,124,o),
(162,100,cs),
(194,76,o),
(231,63,o),
(269,62,cs),
(294,61,o),
(319,65,o),
(341,76,c),
(387,96,o),
(416,137,o),
(417,187,cs),
(418,213,o),
(411,234,o),
(397,252,c),
(383,268,o),
(364,283,o),
(340,296,cs),
(317,308,o),
(282,322,o),
(234,341,cs),
(203,353,o),
(177,365,o),
(154,377,cs),
(109,402,o),
(68,450,o),
(71,520,cs),
(72,557,o),
(83,589,o),
(103,616,c),
(142,670,o),
(209,697,o),
(277,697,cs),
(323,697,o),
(361,685,o),
(392,663,cs),
(424,640,o),
(442,612,o),
(448,579,c),
(375,557,l),
(370,597,o),
(331,622,o),
(276,623,cs),
(255,624,o),
(235,621,o),
(216,612,cs),
(178,594,o),
(152,561,o),
(151,520,cs),
(150,500,o),
(158,482,o),
(170,468,cs),
(196,438,o),
(228,424,o),
(278,405,cs),
(330,385,o),
(371,367,o),
(400,351,cs),
(458,319,o),
(500,270,o),
(497,191,cs),
(496,150,o),
(485,114,o),
(462,82,cs),
(418,19,o),
(343,-16,o),
(261,-13,cs)
);
}
);
width = 529;
},
{
layerId = "DF327079-0489-4E1B-B65C-406769ADC3EE";
shapes = (
{
closed = 1;
nodes = (
(225,-9,o),
(192,-2,o),
(161,12,cs),
(99,40,o),
(51,91,o),
(34,150,c),
(69,163,l),
(82,123,o),
(106,90,o),
(142,65,cs),
(177,40,o),
(216,26,o),
(260,25,cs),
(292,24,o),
(322,32,o),
(349,45,cs),
(404,72,o),
(440,124,o),
(441,187,cs),
(442,215,o),
(434,239,o),
(419,260,cs),
(404,280,o),
(384,297,o),
(362,311,c),
(338,323,o),
(308,339,o),
(270,357,cs),
(224,378,o),
(190,396,o),
(166,410,c),
(118,438,o),
(83,481,o),
(87,543,c),
(88,574,o),
(97,600,o),
(115,624,cs),
(149,670,o),
(212,697,o),
(285,694,cs),
(323,693,o),
(357,683,o),
(383,667,cs),
(410,650,o),
(426,628,o),
(432,600,c),
(396,588,l),
(389,634,o),
(339,656,o),
(276,659,cs),
(251,660,o),
(228,655,o),
(204,644,cs),
(157,624,o),
(124,584,o),
(123,540,cs),
(122,517,o),
(130,496,o),
(143,480,cs),
(171,446,o),
(207,427,o),
(284,391,cs),
(328,371,o),
(364,352,o),
(389,337,cs),
(439,307,o),
(482,257,o),
(479,182,cs),
(478,143,o),
(467,108,o),
(447,79,cs),
(406,20,o),
(335,-13,o),
(258,-10,cs)
);
}
);
width = 522;
}
);
leftKerningGroup = S2;
rightKerningGroup = S;
unicode = 83;
},
{
glyphname = T;
layers = (
{
layerId = "8644C546-E7FE-4718-8D12-21E7933BC7CE";
shapes = (
{
closed = 1;
nodes = (
(212,538,l),
(210,0,l),
(375,0,l),
(377,538,l),
(572,538,l),
(572,684,l),
(16,684,l),
(16,538,l)
);
}
);
width = 588;
},
{
layerId = "B882EE25-4F70-487C-AAE1-5981B86ECF6B";
shapes = (
{
closed = 1;
nodes = (
(234,608,l),
(234,0,l),
(316,0,l),
(316,608,l),
(536,608,l),
(536,684,l),
(14,684,l),
(14,608,l)
);
}
);
width = 550;
},
{
layerId = "DF327079-0489-4E1B-B65C-406769ADC3EE";
shapes = (
{
closed = 1;
nodes = (
(254,648,l),
(254,0,l),
(292,0,l),
(292,648,l),
(522,648,l),
(522,684,l),
(24,684,l),
(24,648,l)
);
}
);
width = 546;
}
);
leftKerningGroup = T2;
rightKerningGroup = T;
unicode = 84;
},
{
glyphname = U;
layers = (
{
anchors = (
{
name = m.uni0324_3;
position = "{352, -10}";
},
{
name = t.uni0308_1_3;
position = "{348, 675}";
},
{
name = t.uni0335_4;
position = "{346, 366}";
},
{
name = t.uni031B_4;
position = "{577, 684}";
},
{
name = m.uni0328_2;
position = "{512, 17}";
},
{
name = t.uni030C.alt_4;
position = "{630, 684}";
}
);
layerId = "8644C546-E7FE-4718-8D12-21E7933BC7CE";
shapes = (
{
closed = 1;
nodes = (
(292,-28,o),
(240,-16,o),
(196,8,cs),
(108,55,o),
(59,144,o),
(59,263,cs),
(59,684,l),
(224,684,l),
(224,263,ls),
(224,234,o),
(229,208,o),
(240,186,c),
(260,142,o),
(299,118,o),
(350,118,cs),
(376,118,o),
(398,124,o),
(417,136,cs),
(454,159,o),
(475,204,o),
(475,263,cs),
(475,684,l),
(640,684,l),
(640,263,ls),
(640,204,o),
(628,152,o),
(605,109,cs),
(557,21,o),
(468,-28,o),
(351,-28,cs)
);
}
);
width = 699;
},
{
anchors = (
{
name = m.uni0324_3;
position = "{369, -1}";
},
{
name = t.uni0308_1_3;
position = "{367, 665}";
},
{
name = t.uni0335_4;
position = "{360, 366}";
},
{
name = t.uni031B_4;
position = "{601, 683}";
},
{
name = m.uni0328_2;
position = "{553, 34}";
},
{
name = t.uni030C.alt_4;
position = "{653, 682}";
}
);
layerId = "B882EE25-4F70-487C-AAE1-5981B86ECF6B";
shapes = (
{
closed = 1;
nodes = (
(294,-17,o),
(245,-5,o),
(203,20,cs),
(119,68,o),
(71,158,o),
(71,263,cs),
(71,684,l),
(153,684,l),
(153,263,ls),
(153,222,o),
(161,185,o),
(178,154,cs),
(211,91,o),
(273,56,o),
(352,56,cs),
(392,56,o),
(427,65,o),
(457,82,cs),
(517,117,o),
(551,182,o),
(551,263,cs),
(551,684,l),
(633,684,l),
(633,263,ls),
(633,208,o),
(621,159,o),
(597,117,cs),
(549,32,o),
(459,-17,o),
(350,-17,cs)
);
}
);
width = 704;
},
{
anchors = (
{
name = m.uni0324_3;
position = "{369, -1}";
},
{
name = t.uni0308_1_3;
position = "{367, 665}";
},
{
name = t.uni0335_4;
position = "{360, 366}";
},
{
name = t.uni031B_4;
position = "{601, 683}";
},
{
name = m.uni0328_2;
position = "{553, 34}";
},
{
name = t.uni030C.alt_4;
position = "{653, 682}";
}
);
layerId = "DF327079-0489-4E1B-B65C-406769ADC3EE";
shapes = (
{
closed = 1;
nodes = (
(284,-12,o),
(238,0,o),
(199,24,cs),
(120,71,o),
(77,158,o),
(77,263,cs),
(77,684,l),
(115,684,l),
(115,263,ls),
(115,216,o),
(125,174,o),
(144,138,cs),
(183,66,o),
(254,24,o),
(338,24,cs),
(381,24,o),
(419,34,o),
(453,54,cs),
(521,94,o),
(561,170,o),
(561,263,cs),
(561,684,l),
(599,684,l),
(599,263,ls),
(599,208,o),
(588,159,o),
(566,118,cs),
(522,35,o),
(440,-12,o),
(336,-12,cs)
);
}
);
width = 676;
}
);
rightKerningGroup = U;
unicode = 85;
},
{
glyphname = V;
leftMetricsKey = "=15";
layers = (
{
anchors = (
{
name = m.uni0324_3;
position = "{336, 1}";
},
{
name = t.uni0308_1_3;
position = "{329, 684}";
}
);
layerId = "8644C546-E7FE-4718-8D12-21E7933BC7CE";
leftMetricsKey = "=9";
shapes = (
{
closed = 1;
nodes = (
(9,684,l),
(268,-13,l),
(402,-13,l),
(644,684,l),
(479,684,l),
(348,288,l),
(336,223,l),
(323,288,l),
(186,684,l)
);
}
);
width = 653;
},
{
anchors = (
{
name = m.uni0324_3;
position = "{326, -3}";
},
{
name = t.uni0308_1_3;
position = "{369, 683}";
}
);
layerId = "B882EE25-4F70-487C-AAE1-5981B86ECF6B";
shapes = (
{
closed = 1;
nodes = (
(15,684,l),
(254,-1,l),
(328,-1,l),
(566,684,l),
(484,684,l),
(306,163,l),
(291,120,l),
(281,161,l),
(99,684,l)
);
}
);
width = 581;
},
{
anchors = (
{
name = m.uni0324_3;
position = "{333, -3}";
},
{
name = t.uni0308_1_3;
position = "{375, 683}";
}
);
layerId = "DF327079-0489-4E1B-B65C-406769ADC3EE";
leftMetricsKey = "=28";
shapes = (
{
closed = 1;
nodes = (
(28,685,l),
(271,0,l),
(309,0,l),
(542,685,l),
(501,685,l),
(301,91,l),
(290,45,l),
(278,90,l),
(67,685,l)
);
}
);
width = 570;
}
);
leftKerningGroup = V2;
rightKerningGroup = V;
unicode = 86;
},
{
glyphname = W;
leftMetricsKey = "=10";
layers = (
{
layerId = "8644C546-E7FE-4718-8D12-21E7933BC7CE";
shapes = (
{
closed = 1;
nodes = (
(10,684,l),
(217,0,l),
(374,0,l),
(481,354,l),
(488,395,l),
(495,354,l),
(609,0,l),
(773,0,l),
(988,684,l),
(808,684,l),
(665,191,l),
(693,117,l),
(713,191,l),
(562,684,l),
(416,684,l),
(274,191,l),
(300,117,l),
(332,190,l),
(183,684,l)
);
}
);
width = 998;
},
{
layerId = "B882EE25-4F70-487C-AAE1-5981B86ECF6B";
leftMetricsKey = "=16";
shapes = (
{
closed = 1;
nodes = (
(16,684,l),
(237,-1,l),
(317,-1,l),
(479,514,l),
(491,567,l),
(504,514,l),
(667,-1,l),
(747,-1,l),
(968,684,l),
(886,684,l),
(712,126,l),
(707,84,l),
(700,126,l),
(529,684,l),
(455,684,l),
(281,126,l),
(276,87,l),
(272,126,l),
(100,684,l)
);
}
);
width = 984;
},
{
layerId = "DF327079-0489-4E1B-B65C-406769ADC3EE";
shapes = (
{
closed = 1;
nodes = (
(28,684,l),
(247,1,l),
(295,1,l),
(488,598,l),
(498,639,l),
(508,598,l),
(703,1,l),
(750,1,l),
(972,684,l),
(930,684,l),
(739,91,l),
(726,31,l),
(713,91,l),
(520,684,l),
(476,684,l),
(283,91,l),
(270,34,l),
(258,91,l),
(67,684,l)
);
}
);
width = 1000;
}
);
leftKerningGroup = V2;
rightKerningGroup = V;
unicode = 87;
},
{
glyphname = X;
rightMetricsKey = "=14";
layers = (
{
layerId = "8644C546-E7FE-4718-8D12-21E7933BC7CE";
rightMetricsKey = "=6";
shapes = (
{
closed = 1;
nodes = (
(255,427,l),
(269,306,l),
(30,684,l),
(221,684,l),
(357,448,l),
(288,439,l),
(421,684,l),
(616,684,l),
(381,311,l),
(379,432,l),
(656,0,l),
(473,0,l),
(291,285,l),
(345,296,l),
(196,0,l),
(6,0,l)
);
}
);
width = 662;
},
{
layerId = "B882EE25-4F70-487C-AAE1-5981B86ECF6B";
shapes = (
{
closed = 1;
nodes = (
(251,402,l),
(246,335,l),
(32,684,l),
(128,684,l),
(297,399,l),
(261,400,l),
(427,684,l),
(524,684,l),
(305,327,l),
(308,399,l),
(548,0,l),
(451,0,l),
(260,328,l),
(297,333,l),
(110,0,l),
(14,0,l)
);
}
);
width = 562;
},
{
layerId = "DF327079-0489-4E1B-B65C-406769ADC3EE";
rightMetricsKey = "=25";
shapes = (
{
closed = 1;
nodes = (
(252,381,l),
(250,353,l),
(54,684,l),
(101,684,l),
(275,384,l),
(259,384,l),
(442,684,l),
(489,684,l),
(285,354,l),
(280,382,l),
(514,0,l),
(475,0,l),
(260,343,l),
(273,343,l),
(71,0,l),
(25,0,l)
);
}
);
width = 539;
}
);
unicode = 88;
},
{
glyphname = Y;
leftMetricsKey = "=6";
layers = (
{
layerId = "8644C546-E7FE-4718-8D12-21E7933BC7CE";
shapes = (
{
closed = 1;
nodes = (
(212,292,l),
(6,684,l),
(196,684,l),
(281,489,l),
(291,452,l),
(302,489,l),
(393,684,l),
(577,684,l),
(377,294,l),
(378,0,l),
(213,0,l)
);
}
);
width = 583;
},
{
layerId = "B882EE25-4F70-487C-AAE1-5981B86ECF6B";
shapes = (
{
closed = 1;
nodes = (
(221,296,l),
(10,684,l),
(101,684,l),
(240,418,l),
(262,367,l),
(284,418,l),
(426,684,l),
(515,684,l),
(303,298,l),
(304,0,l),
(224,0,l)
);
}
);
width = 525;
},
{
layerId = "DF327079-0489-4E1B-B65C-406769ADC3EE";
shapes = (
{
closed = 1;
nodes = (
(231,301,l),
(24,684,l),
(66,684,l),
(238,366,l),
(251,340,l),
(261,366,l),
(433,684,l),
(476,684,l),
(267,303,l),
(269,0,l),
(231,0,l)
);
}
);
width = 500;
}
);
leftKerningGroup = Y2;
rightKerningGroup = Y;
unicode = 89;
},
{
glyphname = Z;
layers = (
{
layerId = "8644C546-E7FE-4718-8D12-21E7933BC7CE";
shapes = (
{
closed = 1;
nodes = (
(29,85,l),
(302,532,l),
(34,532,l),
(34,684,l),
(523,684,l),
(523,614,l),
(250,152,l),
(543,152,l),
(543,0,l),
(29,0,l)
);
}
);
width = 567;
},
{
layerId = "B882EE25-4F70-487C-AAE1-5981B86ECF6B";
shapes = (
{
closed = 1;
nodes = (
(23,27,l),
(364,608,l),
(32,608,l),
(32,684,l),
(489,684,l),
(483,659,l),
(144,75,l),
(503,75,l),
(503,-1,l),
(23,-1,l)
);
}
);
width = 524;
},
{
layerId = "DF327079-0489-4E1B-B65C-406769ADC3EE";
shapes = (
{
closed = 1;
nodes = (
(29,3,l),
(405,648,l),
(39,648,l),
(39,684,l),
(472,684,l),
(469,681,l),
(93,37,l),
(494,37,l),
(494,1,l),
(29,1,l)
);
}
);
width = 521;
}
);
unicode = 90;
},
{
glyphname = bracketleft;
layers = (
{
layerId = "8644C546-E7FE-4718-8D12-21E7933BC7CE";
shapes = (
{
closed = 1;
nodes = (
(60,751,l),
(60,-175,l),
(378,-175,l),
(378,-27,l),
(225,-27,l),
(225,603,l),
(378,603,l),
(378,751,l)
);
}
);
width = 390;
},
{
layerId = "B882EE25-4F70-487C-AAE1-5981B86ECF6B";
shapes = (
{
closed = 1;
nodes = (
(72,750,l),
(72,-169,l),
(326,-169,l),
(326,-93,l),
(154,-93,l),
(154,674,l),
(326,674,l),
(326,750,l)
);
}
);
width = 346;
},
{
layerId = "DF327079-0489-4E1B-B65C-406769ADC3EE";
shapes = (
{
closed = 1;
nodes = (
(76,752,l),
(76,-178,l),
(297,-178,l),
(297,-143,l),
(114,-143,l),
(114,716,l),
(297,716,l),
(297,752,l)
);
}
);
width = 321;
}
);
rightKerningGroup = parenleft;
unicode = 91;
},
{
glyphname = backslash;
layers = (
{
layerId = "8644C546-E7FE-4718-8D12-21E7933BC7CE";
shapes = (
{
closed = 1;
nodes = (
(221,-69,l),
(395,-69,l),
(176,751,l),
(8,751,l)
);
}
);
width = 403;
},
{
layerId = "B882EE25-4F70-487C-AAE1-5981B86ECF6B";
shapes = (
{
closed = 1;
nodes = (
(232,-68,l),
(319,-68,l),
(100,750,l),
(15,750,l)
);
}
);
width = 333;
},
{
layerId = "DF327079-0489-4E1B-B65C-406769ADC3EE";
shapes = (
{
closed = 1;
nodes = (
(241,-69,l),
(281,-69,l),
(62,751,l),
(22,751,l)
);
}
);
width = 303;
}
);
unicode = 92;
},
{
glyphname = bracketright;
layers = (
{
layerId = "8644C546-E7FE-4718-8D12-21E7933BC7CE";
shapes = (
{
closed = 1;
nodes = (
(12,-175,l),
(330,-175,l),
(330,751,l),
(12,751,l),
(12,603,l),
(165,603,l),
(165,-27,l),
(12,-27,l)
);
}
);
width = 390;
},
{
layerId = "B882EE25-4F70-487C-AAE1-5981B86ECF6B";
shapes = (
{
closed = 1;
nodes = (
(20,-169,l),
(274,-169,l),
(274,750,l),
(20,750,l),
(20,674,l),
(192,674,l),
(192,-93,l),
(20,-93,l)
);
}
);
width = 346;
},
{
layerId = "DF327079-0489-4E1B-B65C-406769ADC3EE";
shapes = (
{
closed = 1;
nodes = (
(24,-178,l),
(245,-178,l),
(245,752,l),
(24,752,l),
(24,716,l),
(207,716,l),
(207,-143,l),
(24,-143,l)
);
}
);
width = 321;
}
);
leftKerningGroup = parenright;
unicode = 93;
},
{
glyphname = asciicircum;
layers = (
{
layerId = "8644C546-E7FE-4718-8D12-21E7933BC7CE";
shapes = (
{
closed = 1;
nodes = (
(255,405,l),
(358,256,l),
(489,349,l),
(290,634,l),
(218,634,l),
(19,349,l),
(153,258,l)
);
}
);
width = 546;
},
{
layerId = "B882EE25-4F70-487C-AAE1-5981B86ECF6B";
shapes = (
{
closed = 1;
nodes = (
(225,499,l),
(355,313,l),
(422,360,l),
(242,619,l),
(211,619,l),
(31,360,l),
(97,315,l)
);
}
);
width = 520;
},
{
layerId = "DF327079-0489-4E1B-B65C-406769ADC3EE";
shapes = (
{
closed = 1;
nodes = (
(213,545,l),
(357,341,l),
(393,367,l),
(221,614,l),
(210,614,l),
(38,367,l),
(73,343,l)
);
}
);
width = 480;
}
);
unicode = 94;
},
{
glyphname = underscore;
layers = (
{
layerId = "8644C546-E7FE-4718-8D12-21E7933BC7CE";
shapes = (
{
closed = 1;
nodes = (
(48,0,l),
(48,-148,l),
(536,-148,l),
(536,0,l)
);
}
);
width = 584;
},
{
layerId = "B882EE25-4F70-487C-AAE1-5981B86ECF6B";
shapes = (
{
closed = 1;
nodes = (
(58,0,l),
(58,-76,l),
(508,-76,l),
(508,0,l)
);
}
);
width = 566;
},
{
layerId = "DF327079-0489-4E1B-B65C-406769ADC3EE";
shapes = (
{
closed = 1;
nodes = (
(61,0,l),
(61,-36,l),
(495,-36,l),
(495,0,l)
);
}
);
width = 556;
}
);
unicode = 95;
},
{
glyphname = grave;
layers = (
{
layerId = "8644C546-E7FE-4718-8D12-21E7933BC7CE";
shapes = (
{
closed = 1;
nodes = (
(9,742,l),
(186,548,l),
(281,629,l),
(126,837,l)
);
}
);
width = 292;
},
{
layerId = "B882EE25-4F70-487C-AAE1-5981B86ECF6B";
shapes = (
{
closed = 1;
nodes = (
(25,703,l),
(165,549,l),
(211,590,l),
(90,755,l)
);
}
);
width = 238;
},
{
layerId = "DF327079-0489-4E1B-B65C-406769ADC3EE";
shapes = (
{
closed = 1;
nodes = (
(36,679,l),
(156,548,l),
(172,563,l),
(69,705,l)
);
}
);
width = 209;
}
);
unicode = 96;
},
{
glyphname = a;
layers = (
{
anchors = (
{
name = m.uni0324_3;
position = "{218, -12}";
},
{
name = t.uni0308_1_3;
position = "{251, 512}";
},
{
name = m.uni0328_2;
position = "{502, -16}";
}
);
layerId = "8644C546-E7FE-4718-8D12-21E7933BC7CE";
shapes = (
{
closed = 1;
nodes = (
(511,117,l),
(490,117,o),
(476,127,o),
(476,144,cs),
(476,326,ls),
(476,448,o),
(407,516,o),
(282,516,cs),
(239,516,o),
(197,509,o),
(154,494,cs),
(111,480,o),
(75,463,o),
(49,441,c),
(112,336,l),
(127,347,o),
(148,357,o),
(175,366,cs),
(200,374,o),
(224,378,o),
(246,378,cs),
(289,378,o),
(319,360,o),
(319,330,cs),
(319,312,l),
(303,314,o),
(284,316,o),
(261,317,cs),
(191,320,o),
(136,306,o),
(96,276,cs),
(56,245,o),
(36,202,o),
(36,148,cs),
(36,87,o),
(69,34,o),
(124,5,cs),
(152,-10,o),
(182,-16,o),
(218,-16,cs),
(275,-16,o),
(325,18,o),
(353,56,cs),
(367,76,o),
(374,91,o),
(374,106,c),
(318,146,l),
(318,141,ls),
(318,50,o),
(390,-13,o),
(501,-13,c)
);
},
{
closed = 1;
nodes = (
(222,115,o),
(210,120,o),
(199,128,cs),
(189,136,o),
(183,146,o),
(183,160,cs),
(183,190,o),
(207,206,o),
(253,206,cs),
(265,206,o),
(283,205,o),
(303,202,cs),
(308,201,o),
(314,200,o),
(319,199,c),
(319,180,ls),
(319,156,o),
(305,135,o),
(281,124,cs),
(268,118,o),
(255,115,o),
(240,115,cs)
);
}
);
width = 557;
},
{
anchors = (
{
name = m.uni0324_3;
position = "{202, -12}";
},
{
name = t.uni0308_1_3;
position = "{259, 507}";
},
{
name = m.uni0328_2;
position = "{539, 73}";
}
);
layerId = "B882EE25-4F70-487C-AAE1-5981B86ECF6B";
shapes = (
{
closed = 1;
nodes = (
(489,66,l),
(460,66,o),
(444,79,o),
(444,102,cs),
(444,348,ls),
(444,453,o),
(378,513,o),
(267,513,cs),
(228,513,o),
(188,507,o),
(148,494,cs),
(107,481,o),
(74,465,o),
(47,446,c),
(83,384,l),
(106,401,o),
(134,414,o),
(167,424,cs),
(200,434,o),
(231,439,o),
(260,439,cs),
(329,439,o),
(362,405,o),
(362,337,cs),
(362,312,l),
(317,315,o),
(284,316,o),
(264,316,cs),
(191,316,o),
(134,302,o),
(95,273,cs),
(56,244,o),
(36,202,o),
(36,148,cs),
(36,83,o),
(66,31,o),
(117,4,cs),
(142,-9,o),
(171,-16,o),
(202,-16,cs),
(257,-16,o),
(309,7,o),
(346,43,cs),
(364,60,o),
(378,80,o),
(387,101,c),
(364,104,l),
(364,102,ls),
(364,30,o),
(406,-10,o),
(484,-10,c)
);
},
{
closed = 1;
nodes = (
(187,58,o),
(163,66,o),
(144,82,cs),
(125,98,o),
(116,121,o),
(116,152,cs),
(116,217,o),
(163,247,o),
(254,247,cs),
(289,247,o),
(317,246,o),
(339,245,c),
(349,245,o),
(357,245,o),
(362,244,c),
(362,181,ls),
(362,137,o),
(334,97,o),
(290,75,cs),
(267,64,o),
(243,58,o),
(217,58,cs)
);
}
);
width = 525;
},
{
anchors = (
{
name = m.uni0324_3;
position = "{202, -12}";
},
{
name = t.uni0308_1_3;
position = "{259, 507}";
},
{
name = m.uni0328_2;
position = "{539, 73}";
}
);
layerId = "DF327079-0489-4E1B-B65C-406769ADC3EE";
shapes = (
{
closed = 1;
nodes = (
(484,25,l),
(454,25,o),
(437,39,o),
(437,65,cs),
(437,356,ls),
(437,455,o),
(373,510,o),
(262,510,cs),
(227,510,o),
(192,505,o),
(156,494,cs),
(120,483,o),
(86,467,o),
(53,446,c),
(71,417,l),
(96,434,o),
(126,448,o),
(160,459,cs),
(193,469,o),
(226,474,o),
(257,474,cs),
(354,474,o),
(399,432,o),
(399,349,cs),
(399,297,l),
(345,300,o),
(298,301,o),
(257,301,cs),
(189,301,o),
(136,288,o),
(99,261,cs),
(61,234,o),
(42,196,o),
(42,146,cs),
(42,82,o),
(75,32,o),
(129,5,cs),
(156,-8,o),
(186,-15,o),
(219,-15,cs),
(279,-15,o),
(333,10,o),
(370,45,cs),
(388,62,o),
(401,80,o),
(408,99,c),
(400,99,l),
(400,65,ls),
(400,18,o),
(429,-7,o),
(483,-7,c)
);
},
{
closed = 1;
nodes = (
(181,19,o),
(147,31,o),
(120,54,cs),
(93,77,o),
(80,107,o),
(80,142,cs),
(80,219,o),
(150,267,o),
(251,267,cs),
(302,267,o),
(341,266,o),
(368,265,cs),
(379,264,o),
(389,264,o),
(399,263,c),
(399,177,ls),
(399,118,o),
(365,68,o),
(311,40,cs),
(284,26,o),
(254,19,o),
(223,19,cs)
);
}
);
width = 522;
}
);
leftKerningGroup = a2;
rightKerningGroup = a;
unicode = 97;
},
{
glyphname = b;
layers = (
{
layerId = "B9CCD1C7-992E-4052-97DD-2CC74A5B09E2";
name = "#instance";
shapes = (
{
closed = 1;
nodes = (
(149,-2,l),
(137,-1,o),
(123,1,o),
(108,6,c),
(91,10,o),
(79,14,o),
(70,18,c),
(70,729,l),
(149,729,l)
);
},
{
closed = 1;
nodes = (
(190,-16,o),
(130,-5,o),
(92,18,c),
(127,74,l),
(160,62,o),
(206,56,o),
(243,56,cs),
(288,56,o),
(325,65,o),
(354,84,cs),
(413,121,o),
(442,186,o),
(442,263,cs),
(442,298,o),
(436,329,o),
(424,355,cs),
(400,409,o),
(352,440,o),
(295,440,cs),
(256,440,o),
(223,427,o),
(195,402,c),
(168,375,o),
(153,340,o),
(149,295,c),
(101,308,l),
(104,349,o),
(115,385,o),
(134,416,cs),
(171,477,o),
(233,512,o),
(305,512,cs),
(347,512,o),
(384,501,o),
(418,480,cs),
(483,438,o),
(522,360,o),
(522,262,cs),
(522,207,o),
(511,159,o),
(489,117,cs),
(444,34,o),
(359,-15,o),
(246,-16,cs)
);
}
);
width = 561;
},
{
layerId = "8644C546-E7FE-4718-8D12-21E7933BC7CE";
shapes = (
{
closed = 1;
nodes = (
(217,-20,l),
(194,-19,o),
(165,-15,o),
(130,-6,cs),
(94,3,o),
(68,10,o),
(52,15,c),
(52,731,l),
(217,731,l)
);
},
{
closed = 1;
nodes = (
(192,-23,o),
(126,-8,o),
(85,25,c),
(159,141,l),
(184,130,o),
(226,124,o),
(258,124,cs),
(287,124,o),
(311,130,o),
(330,142,cs),
(368,165,o),
(386,208,o),
(386,263,cs),
(386,284,o),
(383,304,o),
(376,321,cs),
(362,356,o),
(334,377,o),
(302,377,cs),
(279,377,o),
(260,368,o),
(244,351,cs),
(227,333,o),
(219,310,o),
(218,281,c),
(127,307,l),
(130,350,o),
(140,387,o),
(159,420,cs),
(195,484,o),
(258,521,o),
(329,521,cs),
(371,521,o),
(409,510,o),
(444,488,cs),
(512,444,o),
(553,363,o),
(553,264,cs),
(553,207,o),
(542,158,o),
(520,116,cs),
(475,31,o),
(387,-19,o),
(264,-22,cs)
);
}
);
width = 579;
},
{
layerId = "B882EE25-4F70-487C-AAE1-5981B86ECF6B";
shapes = (
{
closed = 1;
nodes = (
(150,-3,l),
(139,-1,o),
(125,2,o),
(109,7,c),
(92,11,o),
(79,15,o),
(68,18,c),
(68,727,l),
(150,727,l)
);
},
{
closed = 1;
nodes = (
(188,-15,o),
(126,0,o),
(93,13,c),
(132,79,l),
(155,68,o),
(205,61,o),
(246,61,cs),
(287,61,o),
(323,69,o),
(352,84,cs),
(411,115,o),
(442,175,o),
(442,260,cs),
(442,295,o),
(436,326,o),
(423,353,cs),
(398,408,o),
(350,440,o),
(290,440,cs),
(251,440,o),
(218,426,o),
(191,399,cs),
(164,372,o),
(150,335,o),
(149,289,c),
(93,302,l),
(95,343,o),
(105,380,o),
(123,413,cs),
(158,477,o),
(219,516,o),
(294,516,cs),
(337,516,o),
(377,505,o),
(412,483,cs),
(482,439,o),
(524,358,o),
(524,265,cs),
(524,208,o),
(513,159,o),
(490,117,cs),
(444,32,o),
(357,-15,o),
(248,-15,cs)
);
}
);
width = 561;
},
{
layerId = "DF327079-0489-4E1B-B65C-406769ADC3EE";
shapes = (
{
closed = 1;
nodes = (
(116,6,l),
(109,7,o),
(103,9,o),
(97,12,c),
(90,14,o),
(84,16,o),
(78,19,c),
(78,728,l),
(116,728,l)
);
},
{
closed = 1;
nodes = (
(189,-13,o),
(132,-3,o),
(95,14,c),
(112,41,l),
(148,29,o),
(196,23,o),
(236,23,cs),
(288,23,o),
(331,34,o),
(366,56,cs),
(435,100,o),
(469,176,o),
(469,263,cs),
(469,304,o),
(462,341,o),
(447,372,cs),
(418,435,o),
(361,471,o),
(292,471,cs),
(245,471,o),
(205,456,o),
(172,426,cs),
(139,395,o),
(121,354,o),
(116,302,c),
(88,308,l),
(92,349,o),
(103,384,o),
(122,414,cs),
(159,474,o),
(221,507,o),
(294,507,cs),
(335,507,o),
(372,497,o),
(405,476,cs),
(469,435,o),
(507,358,o),
(507,261,cs),
(507,207,o),
(496,159,o),
(474,118,cs),
(429,35,o),
(345,-13,o),
(238,-13,cs)
);
}
);
width = 553;
}
);
rightKerningGroup = b;
unicode = 98;
},
{
glyphname = c;
layers = (
{
anchors = (
{
name = m.uni0324_3;
position = "{287, -12}";
},
{
name = t.uni0308_1_3;
position = "{287, 512}";
}
);
layerId = "8644C546-E7FE-4718-8D12-21E7933BC7CE";
shapes = (
{
closed = 1;
nodes = (
(365,-17,o),
(443,11,o),
(495,62,c),
(434,173,l),
(383,141,o),
(344,128,o),
(309,127,cs),
(274,126,o),
(247,137,o),
(227,160,cs),
(207,182,o),
(197,212,o),
(196,249,c),
(196,297,o),
(212,336,o),
(243,357,cs),
(258,367,o),
(276,372,o),
(297,372,cs),
(334,372,o),
(361,354,o),
(381,330,c),
(481,428,l),
(462,455,o),
(435,476,o),
(400,492,cs),
(365,507,o),
(327,515,o),
(286,515,cs),
(190,515,o),
(110,468,o),
(67,388,cs),
(46,347,o),
(35,301,o),
(35,249,cs),
(35,146,o),
(79,62,o),
(155,17,cs),
(193,-6,o),
(236,-17,o),
(284,-17,cs)
);
}
);
width = 524;
},
{
anchors = (
{
name = m.uni0324_3;
position = "{279, -23}";
},
{
name = t.uni0308_1_3;
position = "{289, 514}";
}
);
layerId = "B882EE25-4F70-487C-AAE1-5981B86ECF6B";
shapes = (
{
closed = 1;
nodes = (
(352,-13,o),
(416,8,o),
(471,47,c),
(437,107,l),
(386,75,o),
(342,62,o),
(290,61,cs),
(237,60,o),
(195,77,o),
(164,110,cs),
(133,143,o),
(117,187,o),
(117,244,cs),
(117,323,o),
(147,384,o),
(200,416,cs),
(226,431,o),
(257,439,o),
(293,439,cs),
(341,439,o),
(373,427,o),
(406,392,c),
(455,443,l),
(441,463,o),
(419,480,o),
(388,493,cs),
(357,506,o),
(326,513,o),
(293,513,cs),
(193,513,o),
(113,466,o),
(70,386,cs),
(48,345,o),
(37,299,o),
(37,247,cs),
(37,144,o),
(80,63,o),
(155,20,cs),
(192,-2,o),
(236,-13,o),
(285,-13,cs)
);
}
);
width = 515;
},
{
anchors = (
{
name = m.uni0324_3;
position = "{279, -23}";
},
{
name = t.uni0308_1_3;
position = "{289, 514}";
}
);
layerId = "DF327079-0489-4E1B-B65C-406769ADC3EE";
shapes = (
{
closed = 1;
nodes = (
(349,-10,o),
(412,11,o),
(460,48,c),
(444,76,l),
(404,45,o),
(347,25,o),
(296,24,cs),
(231,23,o),
(179,43,o),
(141,82,cs),
(103,121,o),
(84,173,o),
(84,240,cs),
(84,332,o),
(120,406,o),
(184,446,cs),
(215,466,o),
(252,476,o),
(294,476,cs),
(343,476,o),
(383,459,o),
(418,424,c),
(442,449,l),
(421,470,o),
(398,485,o),
(373,495,cs),
(348,505,o),
(321,510,o),
(290,510,cs),
(199,510,o),
(121,463,o),
(78,382,cs),
(57,341,o),
(46,294,o),
(46,240,cs),
(46,136,o),
(86,60,o),
(159,20,cs),
(195,0,o),
(238,-10,o),
(288,-10,cs)
);
}
);
width = 515;
}
);
leftKerningGroup = c2;
rightKerningGroup = c;
unicode = 99;
},
{
glyphname = d;
layers = (
{
anchors = (
{
name = m.uni0324_3;
position = "{260, 0}";
},
{
name = t.uni0308_1_3;
position = "{445, 732}";
},
{
name = t.uni0335_4;
position = "{411, 610}";
},
{
name = t.uni030C.alt_4;
position = "{524, 500}";
}
);
layerId = "8644C546-E7FE-4718-8D12-21E7933BC7CE";
shapes = (
{
closed = 1;
nodes = (
(401,0,l),
(361,130,l),
(361,730,l),
(526,730,l),
(526,0,l)
);
},
{
closed = 1;
nodes = (
(387,530,o),
(453,515,o),
(494,482,c),
(420,366,l),
(395,377,o),
(353,383,o),
(321,383,cs),
(292,383,o),
(269,377,o),
(250,366,cs),
(212,342,o),
(193,299,o),
(193,244,cs),
(193,223,o),
(197,203,o),
(204,186,cs),
(218,151,o),
(245,130,o),
(277,130,cs),
(300,130,o),
(319,139,o),
(336,157,cs),
(352,174,o),
(360,197,o),
(361,226,c),
(452,200,l),
(449,157,o),
(439,120,o),
(421,88,cs),
(384,23,o),
(321,-14,o),
(250,-14,cs),
(208,-14,o),
(170,-3,o),
(136,19,cs),
(67,63,o),
(26,144,o),
(26,243,cs),
(26,300,o),
(37,349,o),
(60,392,cs),
(104,476,o),
(192,526,o),
(315,529,cs)
);
}
);
width = 589;
},
{
anchors = (
{
name = m.uni0324_3;
position = "{279, -10}";
},
{
name = t.uni0308_1_3;
position = "{448, 732}";
},
{
name = t.uni0335_4;
position = "{391, 606}";
},
{
name = t.uni030C.alt_4;
position = "{546, 501}";
}
);
layerId = "B882EE25-4F70-487C-AAE1-5981B86ECF6B";
shapes = (
{
closed = 1;
nodes = (
(432,0,l),
(412,130,l),
(412,730,l),
(494,730,l),
(494,0,l)
);
},
{
closed = 1;
nodes = (
(373,520,o),
(435,505,o),
(468,492,c),
(429,426,l),
(406,437,o),
(356,444,o),
(315,444,cs),
(274,444,o),
(238,436,o),
(209,421,cs),
(150,390,o),
(119,330,o),
(119,245,cs),
(119,210,o),
(125,179,o),
(138,152,cs),
(163,97,o),
(211,65,o),
(271,65,cs),
(310,65,o),
(344,79,o),
(371,106,cs),
(398,133,o),
(411,170,o),
(412,216,c),
(468,203,l),
(466,162,o),
(456,125,o),
(439,93,cs),
(403,28,o),
(342,-11,o),
(267,-11,cs),
(224,-11,o),
(185,0,o),
(150,22,cs),
(80,66,o),
(37,147,o),
(37,240,cs),
(37,297,o),
(49,346,o),
(72,389,cs),
(118,473,o),
(204,520,o),
(313,520,cs)
);
}
);
width = 573;
},
{
anchors = (
{
name = m.uni0324_3;
position = "{279, -10}";
},
{
name = t.uni0308_1_3;
position = "{448, 732}";
},
{
name = t.uni0335_4;
position = "{391, 606}";
},
{
name = t.uni030C.alt_4;
position = "{546, 501}";
}
);
layerId = "DF327079-0489-4E1B-B65C-406769ADC3EE";
shapes = (
{
closed = 1;
nodes = (
(438,0,l),
(433,129,l),
(433,730,l),
(470,730,l),
(470,0,l)
);
},
{
closed = 1;
nodes = (
(364,507,o),
(421,497,o),
(458,480,c),
(441,453,l),
(405,465,o),
(357,471,o),
(317,471,cs),
(265,471,o),
(222,460,o),
(187,438,cs),
(118,394,o),
(84,318,o),
(84,231,cs),
(84,190,o),
(91,153,o),
(106,122,cs),
(135,59,o),
(192,23,o),
(261,23,cs),
(308,23,o),
(348,38,o),
(381,69,cs),
(414,99,o),
(432,140,o),
(437,192,c),
(465,186,l),
(461,145,o),
(450,110,o),
(431,80,cs),
(394,20,o),
(332,-13,o),
(259,-13,cs),
(218,-13,o),
(181,-3,o),
(149,18,cs),
(84,59,o),
(46,136,o),
(46,233,cs),
(46,287,o),
(57,335,o),
(80,376,cs),
(124,459,o),
(208,507,o),
(315,507,cs)
);
}
);
width = 553;
}
);
leftKerningGroup = c2;
rightKerningGroup = a;
unicode = 100;
},
{
glyphname = e;
layers = (
{
anchors = (
{
name = m.uni0324_3;
position = "{298, -12}";
},
{
name = t.uni0308_1_3;
position = "{292, 512}";
},
{
name = m.uni0328_2;
position = "{519, 62}";
}
);
layerId = "8644C546-E7FE-4718-8D12-21E7933BC7CE";
shapes = (
{
closed = 1;
nodes = (
(259,-16,o),
(215,-5,o),
(176,17,cs),
(98,60,o),
(52,141,o),
(52,248,cs),
(52,300,o),
(63,346,o),
(84,387,cs),
(126,467,o),
(205,516,o),
(302,516,cs),
(347,516,o),
(387,507,o),
(422,488,cs),
(493,450,o),
(534,378,o),
(534,293,cs),
(534,262,o),
(529,231,o),
(519,202,c),
(208,202,l),
(210,313,l),
(442,313,l),
(374,254,l),
(374,296,ls),
(374,322,o),
(368,342,o),
(357,356,c),
(345,369,o),
(327,376,o),
(303,376,cs),
(287,376,o),
(273,373,o),
(261,366,cs),
(236,352,o),
(219,318,o),
(219,258,cs),
(219,211,o),
(229,178,o),
(248,159,cs),
(267,140,o),
(295,130,o),
(332,130,cs),
(373,130,o),
(419,150,o),
(451,182,c),
(529,79,l),
(478,24,o),
(402,-16,o),
(310,-16,cs)
);
}
);
width = 590;
},
{
anchors = (
{
name = m.uni0324_3;
position = "{290, 1}";
},
{
name = t.uni0308_1_3;
position = "{279, 511}";
},
{
name = m.uni0328_2;
position = "{530, 74}";
}
);
layerId = "B882EE25-4F70-487C-AAE1-5981B86ECF6B";
shapes = (
{
closed = 1;
nodes = (
(254,-13,o),
(211,-2,o),
(174,20,cs),
(100,63,o),
(58,141,o),
(58,237,cs),
(58,285,o),
(67,330,o),
(86,372,cs),
(123,456,o),
(197,513,o),
(297,513,cs),
(339,513,o),
(377,504,o),
(410,485,cs),
(476,447,o),
(516,378,o),
(516,294,cs),
(516,268,o),
(513,243,o),
(508,218,c),
(126,218,l),
(131,292,l),
(471,292,l),
(435,256,l),
(435,302,ls),
(435,341,o),
(422,374,o),
(396,400,cs),
(369,426,o),
(336,439,o),
(297,439,cs),
(270,439,o),
(245,432,o),
(222,419,cs),
(174,391,o),
(143,336,o),
(143,253,cs),
(143,199,o),
(156,154,o),
(183,117,cs),
(210,80,o),
(253,61,o),
(313,61,cs),
(366,61,o),
(417,78,o),
(464,115,c),
(502,59,l),
(453,14,o),
(381,-13,o),
(304,-13,cs)
);
}
);
width = 575;
},
{
anchors = (
{
name = m.uni0324_3;
position = "{290, 1}";
},
{
name = t.uni0308_1_3;
position = "{279, 511}";
},
{
name = m.uni0328_2;
position = "{530, 74}";
}
);
layerId = "DF327079-0489-4E1B-B65C-406769ADC3EE";
shapes = (
{
closed = 1;
nodes = (
(252,-10,o),
(209,0,o),
(173,21,cs),
(101,61,o),
(63,137,o),
(63,236,cs),
(63,291,o),
(73,339,o),
(93,380,cs),
(132,463,o),
(207,510,o),
(304,510,cs),
(344,510,o),
(380,501,o),
(411,484,cs),
(473,448,o),
(509,383,o),
(509,303,cs),
(509,283,o),
(507,262,o),
(502,240,c),
(92,240,l),
(94,274,l),
(484,274,l),
(469,261,l),
(470,305,l),
(470,354,o),
(455,395,o),
(424,427,cs),
(393,458,o),
(353,474,o),
(304,474,cs),
(265,474,o),
(230,465,o),
(199,447,cs),
(138,411,o),
(102,341,o),
(102,238,cs),
(102,187,o),
(116,139,o),
(144,93,cs),
(171,47,o),
(227,24,o),
(310,24,cs),
(369,24,o),
(417,37,o),
(470,72,c),
(487,45,l),
(435,8,o),
(371,-10,o),
(303,-10,cs)
);
}
);
width = 568;
}
);
leftKerningGroup = c2;
rightKerningGroup = b;
unicode = 101;
},
{
glyphname = f;
layers = (
{
layerId = "B9CCD1C7-992E-4052-97DD-2CC74A5B09E2";
name = "#instance";
shapes = (
{
closed = 1;
nodes = (
(83,584,ls),
(83,635,o),
(96,674,o),
(123,701,cs),
(150,729,o),
(186,743,o),
(232,743,cs),
(275,743,o),
(310,731,o),
(339,706,c),
(300,649,l),
(284,662,o),
(264,669,o),
(242,669,cs),
(189,669,o),
(162,637,o),
(162,579,cs),
(162,0,l),
(83,0,l)
);
},
{
closed = 1;
nodes = (
(17,500,l),
(301,500,l),
(301,436,l),
(17,436,l)
);
}
);
width = 323;
},
{
layerId = "8644C546-E7FE-4718-8D12-21E7933BC7CE";
shapes = (
{
closed = 1;
nodes = (
(65,561,ls),
(65,620,o),
(82,665,o),
(117,698,cs),
(152,731,o),
(196,747,o),
(249,747,cs),
(307,747,o),
(357,726,o),
(400,685,c),
(324,571,l),
(305,586,o),
(288,594,o),
(273,594,cs),
(246,594,o),
(230,574,o),
(230,546,cs),
(230,1,l),
(65,1,l)
);
},
{
closed = 1;
nodes = (
(14,500,l),
(344,500,l),
(344,373,l),
(14,373,l)
);
}
);
width = 365;
},
{
layerId = "B882EE25-4F70-487C-AAE1-5981B86ECF6B";
shapes = (
{
closed = 1;
nodes = (
(75,580,ls),
(75,633,o),
(88,673,o),
(114,700,cs),
(139,727,o),
(175,741,o),
(222,741,cs),
(265,741,o),
(301,729,o),
(329,705,c),
(288,642,l),
(271,657,o),
(252,665,o),
(229,665,cs),
(181,665,o),
(157,638,o),
(157,582,cs),
(157,0,l),
(75,0,l)
);
},
{
closed = 1;
nodes = (
(16,500,l),
(301,500,l),
(301,426,l),
(16,426,l)
);
}
);
width = 319;
},
{
layerId = "DF327079-0489-4E1B-B65C-406769ADC3EE";
shapes = (
{
closed = 1;
nodes = (
(91,595,ls),
(91,642,o),
(103,678,o),
(126,703,cs),
(149,728,o),
(181,741,o),
(224,741,cs),
(259,741,o),
(287,733,o),
(309,716,c),
(289,686,l),
(274,699,o),
(253,705,o),
(227,705,cs),
(162,705,o),
(129,668,o),
(129,595,cs),
(129,0,l),
(91,0,l)
);
},
{
closed = 1;
nodes = (
(18,500,l),
(280,500,l),
(280,466,l),
(18,466,l)
);
}
);
width = 303;
}
);
leftKerningGroup = f2;
rightKerningGroup = f;
unicode = 102;
},
{
glyphname = g;
layers = (
{
anchors = (
{
name = m.uni0324_3;
position = "{261, -272}";
},
{
name = t.uni0308_1_3;
position = "{265, 512}";
}
);
layerId = "8644C546-E7FE-4718-8D12-21E7933BC7CE";
shapes = (
{
closed = 1;
nodes = (
(109,-292,o),
(18,-228,o),
(18,-133,cs),
(18,-76,o),
(62,-50,o),
(110,-26,c),
(229,-80,l),
(181,-81,o),
(171,-91,o),
(171,-108,cs),
(171,-147,o),
(203,-164,o),
(274,-164,cs),
(333,-164,o),
(363,-148,o),
(363,-116,cs),
(363,-87,o),
(339,-76,o),
(276,-77,cs),
(268,-77,o),
(260,-77,o),
(252,-78,cs),
(244,-79,o),
(236,-79,o),
(229,-80,cs),
(212,-81,o),
(196,-81,o),
(179,-82,c),
(80,-82,o),
(20,-31,o),
(20,54,cs),
(20,79,o),
(27,102,o),
(41,123,cs),
(68,163,o),
(119,184,o),
(179,176,c),
(219,98,l),
(214,99,o),
(203,100,o),
(186,100,cs),
(169,100,o),
(157,89,o),
(157,73,cs),
(157,60,o),
(167,49,o),
(186,48,cs),
(202,47,o),
(229,48,o),
(266,50,cs),
(326,52,l),
(453,52,o),
(518,-9,o),
(518,-114,cs),
(518,-234,o),
(435,-292,o),
(268,-292,cs)
);
},
{
closed = 1;
nodes = (
(222,94,o),
(184,104,o),
(151,123,cs),
(83,161,o),
(42,230,o),
(42,313,cs),
(42,354,o),
(52,392,o),
(71,425,cs),
(109,491,o),
(178,531,o),
(261,531,cs),
(320,531,o),
(372,508,o),
(417,461,cs),
(465,410,o),
(486,365,o),
(486,313,cs),
(486,272,o),
(477,234,o),
(459,201,cs),
(422,134,o),
(352,94,o),
(263,94,cs)
);
},
{
closed = 1;
nodes = (
(290,237,o),
(307,244,o),
(321,259,cs),
(335,273,o),
(342,291,o),
(342,312,cs),
(342,333,o),
(335,351,o),
(321,366,cs),
(307,380,o),
(290,387,o),
(269,387,cs),
(248,387,o),
(231,380,o),
(218,366,cs),
(205,351,o),
(198,333,o),
(198,312,cs),
(198,291,o),
(205,273,o),
(218,259,cs),
(231,244,o),
(248,237,o),
(269,237,cs)
);
},
{
closed = 1;
nodes = (
(428,408,l),
(323,522,l),
(513,522,l),
(512,397,l)
);
}
);
width = 530;
},
{
anchors = (
{
name = m.uni0324_3;
position = "{261, -283}";
},
{
name = t.uni0308_1_3;
position = "{268, 513}";
}
);
layerId = "B882EE25-4F70-487C-AAE1-5981B86ECF6B";
shapes = (
{
closed = 1;
nodes = (
(118,-272,o),
(37,-214,o),
(37,-111,cs),
(37,-64,o),
(71,-23,o),
(123,-2,c),
(190,-37,l),
(148,-37,o),
(119,-69,o),
(119,-101,cs),
(119,-168,o),
(168,-202,o),
(275,-202,cs),
(372,-202,o),
(419,-173,o),
(419,-114,cs),
(419,-61,o),
(378,-33,o),
(299,-33,c),
(286,-34,o),
(276,-34,o),
(268,-34,c),
(260,-35,o),
(249,-35,o),
(237,-36,cs),
(215,-37,o),
(194,-37,o),
(172,-38,c),
(79,-38,o),
(32,2,o),
(32,72,cs),
(32,94,o),
(38,115,o),
(51,132,cs),
(76,166,o),
(124,180,o),
(186,168,c),
(207,124,l),
(195,127,o),
(182,129,o),
(168,129,cs),
(128,129,o),
(107,112,o),
(107,79,cs),
(107,50,o),
(130,34,o),
(174,34,cs),
(196,34,o),
(223,34,o),
(252,36,c),
(322,38,l),
(436,38,o),
(501,-20,o),
(501,-113,cs),
(501,-219,o),
(424,-272,o),
(273,-272,cs)
);
},
{
closed = 1;
nodes = (
(228,112,o),
(193,122,o),
(162,139,cs),
(100,175,o),
(62,239,o),
(62,315,cs),
(62,353,o),
(71,388,o),
(89,419,cs),
(123,481,o),
(187,519,o),
(263,519,cs),
(309,519,o),
(351,504,o),
(388,474,c),
(443,433,o),
(470,380,o),
(470,316,cs),
(470,278,o),
(462,243,o),
(445,212,cs),
(410,150,o),
(345,112,o),
(266,112,cs)
);
},
{
closed = 1;
nodes = (
(304,188,o),
(335,200,o),
(358,224,cs),
(381,247,o),
(393,279,o),
(393,316,cs),
(393,353,o),
(381,384,o),
(358,407,cs),
(335,431,o),
(304,443,o),
(267,443,cs),
(231,443,o),
(202,431,o),
(179,407,cs),
(156,382,o),
(144,351,o),
(144,314,cs),
(144,277,o),
(156,247,o),
(179,224,cs),
(202,200,o),
(231,188,o),
(267,188,cs)
);
},
{
closed = 1;
nodes = (
(392,448,l),
(323,508,l),
(504,508,l),
(504,440,l)
);
}
);
width = 528;
},
{
anchors = (
{
name = m.uni0324_3;
position = "{261, -289}";
},
{
name = t.uni0308_1_3;
position = "{269, 513}";
}
);
layerId = "DF327079-0489-4E1B-B65C-406769ADC3EE";
shapes = (
{
closed = 1;
nodes = (
(123,-260,o),
(49,-205,o),
(49,-97,cs),
(49,-56,o),
(77,-7,o),
(130,12,c),
(167,-11,l),
(128,-11,o),
(87,-56,o),
(87,-97,cs),
(87,-181,o),
(147,-224,o),
(276,-224,cs),
(395,-224,o),
(453,-188,o),
(453,-112,cs),
(453,-45,o),
(402,-7,o),
(313,-7,c),
(297,-8,o),
(285,-8,o),
(277,-8,cs),
(269,-8,o),
(257,-8,o),
(242,-9,cs),
(217,-10,o),
(192,-10,o),
(167,-11,c),
(78,-11,o),
(39,22,o),
(39,82,cs),
(39,103,o),
(45,122,o),
(57,137,cs),
(81,167,o),
(127,178,o),
(190,163,c),
(199,139,l),
(184,144,o),
(170,147,o),
(157,147,cs),
(104,147,o),
(77,126,o),
(77,83,cs),
(77,44,o),
(108,25,o),
(167,25,c),
(193,26,o),
(219,26,o),
(244,27,cs),
(320,29,l),
(425,29,o),
(491,-26,o),
(491,-113,cs),
(491,-210,o),
(417,-260,o),
(276,-260,cs)
);
},
{
closed = 1;
nodes = (
(231,123,o),
(198,132,o),
(169,149,cs),
(110,183,o),
(74,244,o),
(74,316,cs),
(74,353,o),
(82,386,o),
(99,416,cs),
(131,475,o),
(192,511,o),
(264,511,cs),
(302,511,o),
(338,501,o),
(371,481,cs),
(430,446,o),
(461,389,o),
(461,318,cs),
(461,281,o),
(453,248,o),
(436,219,cs),
(402,159,o),
(340,123,o),
(267,123,cs)
);
},
{
closed = 1;
nodes = (
(313,159,o),
(351,174,o),
(380,203,cs),
(409,232,o),
(423,271,o),
(423,318,cs),
(423,365,o),
(409,403,o),
(380,432,cs),
(351,461,o),
(313,476,o),
(266,476,cs),
(221,476,o),
(184,461,o),
(155,431,cs),
(126,401,o),
(112,362,o),
(112,315,cs),
(112,269,o),
(126,232,o),
(155,203,cs),
(184,174,o),
(221,159,o),
(266,159,cs)
);
},
{
closed = 1;
nodes = (
(370,472,l),
(323,500,l),
(499,500,l),
(499,466,l)
);
}
);
width = 526;
}
);
unicode = 103;
},
{
glyphname = h;
layers = (
{
layerId = "B9CCD1C7-992E-4052-97DD-2CC74A5B09E2";
name = "#instance";
shapes = (
{
closed = 1;
nodes = (
(68,730,l),
(148,730,l),
(148,0,l),
(68,0,l)
);
},
{
closed = 1;
nodes = (
(424,299,l),
(424,343,o),
(413,377,o),
(391,403,cs),
(369,428,o),
(339,441,o),
(303,441,cs),
(239,441,o),
(182,402,o),
(143,325,c),
(108,352,l),
(158,455,o),
(229,511,o),
(323,511,cs),
(358,511,o),
(390,502,o),
(417,486,c),
(472,451,o),
(504,387,o),
(504,307,cs),
(504,0,l),
(425,0,l)
);
}
);
width = 566;
},
{
layerId = "8644C546-E7FE-4718-8D12-21E7933BC7CE";
shapes = (
{
closed = 1;
nodes = (
(50,730,l),
(215,730,l),
(215,0,l),
(50,0,l)
);
},
{
closed = 1;
nodes = (
(372,297,ls),
(372,323,o),
(367,343,o),
(356,358,cs),
(345,373,o),
(328,380,o),
(306,380,cs),
(267,380,o),
(233,356,o),
(213,317,c),
(142,365,l),
(186,465,o),
(262,524,o),
(354,524,cs),
(389,524,o),
(420,515,o),
(448,497,cs),
(503,460,o),
(537,392,o),
(537,308,cs),
(537,0,l),
(372,0,l)
);
}
);
width = 588;
},
{
layerId = "B882EE25-4F70-487C-AAE1-5981B86ECF6B";
shapes = (
{
closed = 1;
nodes = (
(70,730,l),
(152,730,l),
(152,0,l),
(70,0,l)
);
},
{
closed = 1;
nodes = (
(430,305,ls),
(430,350,o),
(419,383,o),
(398,406,cs),
(377,429,o),
(348,440,o),
(312,440,cs),
(243,440,o),
(183,400,o),
(146,329,c),
(102,360,l),
(157,459,o),
(237,514,o),
(325,514,cs),
(360,514,o),
(391,506,o),
(420,490,cs),
(476,458,o),
(512,398,o),
(512,323,cs),
(512,0,l),
(430,0,l)
);
}
);
width = 574;
},
{
layerId = "DF327079-0489-4E1B-B65C-406769ADC3EE";
shapes = (
{
closed = 1;
nodes = (
(77,730,l),
(115,730,l),
(115,0,l),
(77,0,l)
);
},
{
closed = 1;
nodes = (
(449,300,ls),
(449,352,o),
(435,393,o),
(408,424,cs),
(380,455,o),
(344,470,o),
(301,470,cs),
(226,470,o),
(158,424,o),
(110,329,c),
(91,345,l),
(144,450,o),
(213,504,o),
(308,504,cs),
(343,504,o),
(375,496,o),
(402,480,cs),
(457,447,o),
(488,384,o),
(488,307,cs),
(488,0,l),
(450,0,l)
);
}
);
width = 556;
}
);
rightKerningGroup = h;
unicode = 104;
},
{
glyphname = i;
layers = (
{
layerId = "B9CCD1C7-992E-4052-97DD-2CC74A5B09E2";
name = "#instance";
shapes = (
{
closed = 1;
nodes = (
(72,500,l),
(151,500,l),
(151,0,l),
(72,0,l)
);
},
{
closed = 1;
nodes = (
(84,572,o),
(63,594,o),
(63,624,cs),
(63,652,o),
(84,675,o),
(113,675,cs),
(143,675,o),
(166,653,o),
(166,624,cs),
(166,594,o),
(143,572,o),
(113,572,cs)
);
}
);
width = 222;
},
{
layerId = "8644C546-E7FE-4718-8D12-21E7933BC7CE";
shapes = (
{
closed = 1;
nodes = (
(58,499,l),
(223,500,l),
(223,1,l),
(58,1,l)
);
},
{
closed = 1;
nodes = (
(94,561,o),
(58,597,o),
(58,646,cs),
(58,695,o),
(94,732,o),
(142,732,cs),
(193,732,o),
(230,695,o),
(230,646,cs),
(230,597,o),
(193,561,o),
(142,561,cs)
);
}
);
width = 281;
},
{
layerId = "B882EE25-4F70-487C-AAE1-5981B86ECF6B";
shapes = (
{
closed = 1;
nodes = (
(70,501,l),
(152,500,l),
(152,0,l),
(70,0,l)
);
},
{
closed = 1;
nodes = (
(77,563,o),
(55,586,o),
(55,615,cs),
(55,646,o),
(77,668,o),
(108,668,cs),
(137,668,o),
(160,646,o),
(160,615,cs),
(160,586,o),
(137,563,o),
(108,563,cs)
);
}
);
width = 222;
},
{
layerId = "DF327079-0489-4E1B-B65C-406769ADC3EE";
shapes = (
{
closed = 1;
nodes = (
(78,500,l),
(116,500,l),
(116,0,l),
(78,0,l)
);
},
{
closed = 1;
nodes = (
(79,578,o),
(65,592,o),
(65,613,cs),
(65,632,o),
(79,647,o),
(99,647,cs),
(119,647,o),
(135,633,o),
(135,613,cs),
(135,593,o),
(119,578,o),
(99,578,cs)
);
}
);
width = 194;
}
);
leftKerningGroup = i;
rightKerningGroup = h;
unicode = 105;
},
{
glyphname = j;
layers = (
{
layerId = "B9CCD1C7-992E-4052-97DD-2CC74A5B09E2";
name = "#instance";
shapes = (
{
closed = 1;
nodes = (
(82,500,l),
(82,-108,l),
(82,-127,l),
(82,-168,o),
(57,-189,o),
(23,-189,c),
(-8,-188,o),
(-28,-165,o),
(-30,-136,c),
(-100,-145,l),
(-97,-177,o),
(-84,-204,o),
(-60,-226,cs),
(-36,-248,o),
(-8,-258,o),
(26,-259,cs),
(77,-260,o),
(119,-238,o),
(143,-197,cs),
(155,-176,o),
(161,-152,o),
(162,-124,c),
(162,-106,l),
(162,500,l)
);
},
{
closed = 1;
nodes = (
(155,572,o),
(177,594,o),
(177,624,cs),
(177,653,o),
(155,675,o),
(124,675,cs),
(95,675,o),
(74,652,o),
(74,624,cs),
(74,594,o),
(95,572,o),
(124,572,cs)
);
}
);
width = 230;
},
{
layerId = "8644C546-E7FE-4718-8D12-21E7933BC7CE";
shapes = (
{
closed = 1;
nodes = (
(64,501,l),
(64,-76,l),
(64,-111,ls),
(64,-134,o),
(53,-148,o),
(34,-148,cs),
(14,-148,o),
(1,-134,o),
(0,-121,c),
(-140,-139,l),
(-135,-184,o),
(-116,-220,o),
(-82,-248,cs),
(-47,-276,o),
(-5,-290,o),
(44,-291,cs),
(116,-292,o),
(173,-261,o),
(205,-203,cs),
(221,-174,o),
(229,-139,o),
(229,-100,cs),
(229,-73,l),
(229,501,l)
);
},
{
closed = 1;
nodes = (
(199,561,o),
(236,597,o),
(236,646,cs),
(236,695,o),
(199,732,o),
(148,732,cs),
(100,732,o),
(64,695,o),
(64,646,cs),
(64,597,o),
(100,561,o),
(148,561,cs)
);
}
);
width = 279;
},
{
layerId = "B882EE25-4F70-487C-AAE1-5981B86ECF6B";
shapes = (
{
closed = 1;
nodes = (
(84,501,l),
(84,-113,l),
(84,-128,l),
(83,-167,o),
(64,-187,o),
(35,-186,c),
(8,-186,o),
(-9,-170,o),
(-13,-146,c),
(-86,-157,l),
(-81,-188,o),
(-68,-213,o),
(-45,-232,cs),
(-22,-251,o),
(4,-260,o),
(34,-260,c),
(77,-261,o),
(119,-243,o),
(146,-204,cs),
(159,-184,o),
(166,-159,o),
(166,-129,cs),
(166,-111,l),
(166,501,l)
);
},
{
closed = 1;
nodes = (
(152,563,o),
(175,586,o),
(175,615,cs),
(175,646,o),
(152,668,o),
(123,668,cs),
(92,668,o),
(70,646,o),
(70,615,cs),
(70,586,o),
(92,563,o),
(123,563,cs)
);
}
);
width = 236;
},
{
layerId = "DF327079-0489-4E1B-B65C-406769ADC3EE";
shapes = (
{
closed = 1;
nodes = (
(91,500,l),
(91,-123,l),
(91,-134,l),
(90,-185,o),
(59,-209,o),
(18,-208,cs),
(-18,-207,o),
(-42,-180,o),
(-45,-143,c),
(-80,-148,l),
(-79,-174,o),
(-69,-196,o),
(-50,-215,cs),
(-31,-234,o),
(-9,-243,o),
(17,-244,cs),
(58,-245,o),
(93,-227,o),
(113,-194,cs),
(123,-177,o),
(128,-158,o),
(129,-135,c),
(129,-122,l),
(129,500,l)
);
},
{
closed = 1;
nodes = (
(133,578,o),
(149,593,o),
(149,613,cs),
(149,633,o),
(133,647,o),
(113,647,cs),
(93,647,o),
(79,632,o),
(79,613,cs),
(79,592,o),
(93,578,o),
(113,578,cs)
);
}
);
width = 206;
}
);
leftKerningGroup = j2;
rightKerningGroup = j;
unicode = 106;
},
{
glyphname = k;
layers = (
{
layerId = "B9CCD1C7-992E-4052-97DD-2CC74A5B09E2";
name = "#instance";
shapes = (
{
closed = 1;
nodes = (
(70,730,l),
(149,730,l),
(149,0,l),
(70,0,l)
);
},
{
closed = 1;
nodes = (
(245,282,l),
(300,332,l),
(512,0,l),
(421,0,l)
);
},
{
closed = 1;
nodes = (
(382,500,l),
(476,500,l),
(118,100,l),
(120,208,l)
);
}
);
width = 521;
},
{
layerId = "8644C546-E7FE-4718-8D12-21E7933BC7CE";
shapes = (
{
closed = 1;
nodes = (
(52,730,l),
(217,730,l),
(217,0,l),
(52,0,l)
);
},
{
closed = 1;
nodes = (
(266,227,l),
(363,342,l),
(584,-1,l),
(393,-1,l)
);
},
{
closed = 1;
nodes = (
(364,500,l),
(550,500,l),
(156,30,l),
(156,251,l)
);
}
);
width = 567;
},
{
layerId = "B882EE25-4F70-487C-AAE1-5981B86ECF6B";
shapes = (
{
closed = 1;
nodes = (
(68,730,l),
(150,730,l),
(150,0,l),
(68,0,l)
);
},
{
closed = 1;
nodes = (
(225,298,l),
(287,342,l),
(505,-1,l),
(412,-1,l)
);
},
{
closed = 1;
nodes = (
(384,500,l),
(477,500,l),
(130,144,l),
(130,240,l)
);
}
);
width = 516;
},
{
layerId = "DF327079-0489-4E1B-B65C-406769ADC3EE";
shapes = (
{
closed = 1;
nodes = (
(78,730,l),
(116,730,l),
(116,0,l),
(78,0,l)
);
},
{
closed = 1;
nodes = (
(235,308,l),
(269,327,l),
(478,0,l),
(434,0,l)
);
},
{
closed = 1;
nodes = (
(391,500,l),
(440,500,l),
(100,133,l),
(102,188,l)
);
}
);
width = 499;
}
);
unicode = 107;
},
{
glyphname = l;
layers = (
{
layerId = "B9CCD1C7-992E-4052-97DD-2CC74A5B09E2";
name = "#instance";
shapes = (
{
closed = 1;
nodes = (
(203,54,l),
(165,54,o),
(148,70,o),
(148,108,cs),
(148,730,l),
(70,730,l),
(70,105,ls),
(70,23,o),
(108,-12,o),
(199,-12,c)
);
}
);
width = 218;
},
{
layerId = "8644C546-E7FE-4718-8D12-21E7933BC7CE";
shapes = (
{
closed = 1;
nodes = (
(268,120,l),
(232,120,o),
(217,133,o),
(217,162,cs),
(217,730,l),
(52,730,l),
(52,153,ls),
(52,34,o),
(113,-16,o),
(258,-16,c)
);
}
);
width = 269;
},
{
layerId = "B882EE25-4F70-487C-AAE1-5981B86ECF6B";
shapes = (
{
closed = 1;
nodes = (
(206,63,l),
(163,63,o),
(147,78,o),
(147,113,cs),
(147,730,l),
(67,730,l),
(67,113,ls),
(67,25,o),
(108,-13,o),
(201,-13,c)
);
}
);
width = 218;
},
{
layerId = "DF327079-0489-4E1B-B65C-406769ADC3EE";
shapes = (
{
closed = 1;
nodes = (
(172,22,l),
(132,22,o),
(115,40,o),
(115,82,cs),
(115,730,l),
(78,730,l),
(78,82,ls),
(78,18,o),
(106,-10,o),
(171,-10,c)
);
}
);
width = 194;
}
);
unicode = 108;
},
{
glyphname = m;
layers = (
{
layerId = "B9CCD1C7-992E-4052-97DD-2CC74A5B09E2";
name = "#instance";
shapes = (
{
closed = 1;
nodes = (
(718,327,ls),
(718,399,o),
(683,438,o),
(614,438,cs),
(551,438,o),
(499,403,o),
(470,342,c),
(447,396,l),
(487,467,o),
(550,510,o),
(632,510,cs),
(662,510,o),
(690,504,o),
(715,491,cs),
(765,466,o),
(797,416,o),
(797,345,cs),
(797,0,l),
(718,0,l)
);
},
{
closed = 1;
nodes = (
(396,321,ls),
(396,394,o),
(361,438,o),
(294,438,cs),
(263,438,o),
(235,429,o),
(209,412,cs),
(182,395,o),
(164,372,o),
(153,345,c),
(132,398,l),
(170,471,o),
(230,510,o),
(317,510,cs),
(344,510,o),
(370,505,o),
(394,492,c),
(442,468,o),
(475,419,o),
(475,346,cs),
(475,0,l),
(396,0,l)
);
},
{
closed = 1;
nodes = (
(78,500,l),
(140,500,l),
(156,377,l),
(156,0,l),
(78,0,l)
);
}
);
width = 859;
},
{
layerId = "8644C546-E7FE-4718-8D12-21E7933BC7CE";
shapes = (
{
closed = 1;
nodes = (
(683,293,ls),
(683,350,o),
(666,374,o),
(627,374,cs),
(590,374,o),
(558,358,o),
(535,325,c),
(485,422,l),
(540,491,o),
(590,523,o),
(681,523,cs),
(704,523,o),
(728,518,o),
(754,507,cs),
(805,486,o),
(848,435,o),
(848,351,cs),
(848,0,l),
(683,0,l)
);
},
{
closed = 1;
nodes = (
(372,293,ls),
(372,350,o),
(352,374,o),
(311,374,cs),
(293,374,o),
(277,370,o),
(262,362,cs),
(247,354,o),
(235,342,o),
(224,325,c),
(174,422,l),
(229,491,o),
(279,523,o),
(370,523,cs),
(393,523,o),
(417,518,o),
(443,507,cs),
(494,486,o),
(537,435,o),
(537,351,cs),
(537,0,l),
(372,0,l)
);
},
{
closed = 1;
nodes = (
(67,500,l),
(192,500,l),
(232,377,l),
(232,0,l),
(67,0,l)
);
}
);
width = 899;
},
{
layerId = "B882EE25-4F70-487C-AAE1-5981B86ECF6B";
shapes = (
{
closed = 1;
nodes = (
(706,338,ls),
(706,399,o),
(667,439,o),
(612,439,cs),
(549,439,o),
(503,406,o),
(470,337,c),
(438,396,l),
(478,471,o),
(542,513,o),
(613,513,cs),
(648,513,o),
(678,507,o),
(705,494,cs),
(757,469,o),
(788,416,o),
(788,340,cs),
(788,0,l),
(706,0,l)
);
},
{
closed = 1;
nodes = (
(393,327,ls),
(393,398,o),
(358,439,o),
(295,439,cs),
(264,439,o),
(235,430,o),
(210,412,cs),
(184,394,o),
(167,371,o),
(158,342,c),
(139,422,l),
(176,481,o),
(239,513,o),
(300,513,cs),
(327,513,o),
(353,508,o),
(380,498,cs),
(433,477,o),
(475,431,o),
(475,359,cs),
(475,0,l),
(393,0,l)
);
},
{
closed = 1;
nodes = (
(76,500,l),
(138,500,l),
(158,377,l),
(158,-1,l),
(76,-1,l)
);
}
);
width = 850;
},
{
layerId = "DF327079-0489-4E1B-B65C-406769ADC3EE";
shapes = (
{
closed = 1;
nodes = (
(735,343,ls),
(735,423,o),
(691,469,o),
(608,469,cs),
(532,469,o),
(471,425,o),
(438,350,c),
(428,384,l),
(461,456,o),
(530,504,o),
(609,504,cs),
(642,504,o),
(671,497,o),
(696,484,cs),
(745,457,o),
(772,407,o),
(772,342,cs),
(772,0,l),
(735,0,l)
);
},
{
closed = 1;
nodes = (
(407,335,ls),
(407,415,o),
(365,469,o),
(286,469,cs),
(249,469,o),
(215,458,o),
(183,436,cs),
(151,414,o),
(130,387,o),
(119,354,c),
(112,386,l),
(141,462,o),
(206,504,o),
(291,504,cs),
(320,504,o),
(347,498,o),
(370,485,cs),
(417,460,o),
(445,411,o),
(445,344,cs),
(445,0,l),
(407,0,l)
);
},
{
closed = 1;
nodes = (
(83,500,l),
(115,500,l),
(120,377,l),
(120,0,l),
(83,0,l)
);
}
);
width = 840;
}
);
leftKerningGroup = m;
rightKerningGroup = h;
unicode = 109;
},
{
glyphname = n;
layers = (
{
layerId = "B9CCD1C7-992E-4052-97DD-2CC74A5B09E2";
name = "#instance";
shapes = (
{
closed = 1;
nodes = (
(434,-1,l),
(513,-1,l),
(513,307,ls),
(513,386,o),
(481,451,o),
(426,485,cs),
(399,502,o),
(367,510,o),
(332,510,cs),
(238,510,o),
(167,454,o),
(117,351,c),
(153,324,l),
(192,401,o),
(249,440,o),
(312,440,cs),
(348,440,o),
(378,428,o),
(400,402,cs),
(422,376,o),
(433,342,o),
(433,298,c)
);
},
{
closed = 1;
nodes = (
(78,0,l),
(156,0,l),
(156,377,l),
(140,500,l),
(78,500,l)
);
}
);
width = 576;
},
{
layerId = "8644C546-E7FE-4718-8D12-21E7933BC7CE";
shapes = (
{
closed = 1;
nodes = (
(386,-2,l),
(551,-2,l),
(551,306,ls),
(551,390,o),
(517,458,o),
(462,495,cs),
(434,513,o),
(403,522,o),
(368,522,cs),
(276,522,o),
(200,463,o),
(156,363,c),
(227,315,l),
(247,354,o),
(281,378,o),
(320,378,cs),
(342,378,o),
(359,371,o),
(370,356,cs),
(381,341,o),
(386,321,o),
(386,295,cs)
);
},
{
closed = 1;
nodes = (
(67,0,l),
(232,0,l),
(232,377,l),
(192,500,l),
(67,500,l)
);
}
);
width = 602;
},
{
layerId = "B882EE25-4F70-487C-AAE1-5981B86ECF6B";
shapes = (
{
closed = 1;
nodes = (
(444,-2,l),
(526,-2,l),
(526,321,ls),
(526,396,o),
(490,456,o),
(434,488,cs),
(405,504,o),
(374,512,o),
(339,512,cs),
(251,512,o),
(171,457,o),
(116,358,c),
(160,327,l),
(197,398,o),
(257,438,o),
(326,438,cs),
(362,438,o),
(391,427,o),
(412,404,cs),
(433,381,o),
(444,348,o),
(444,303,cs)
);
},
{
closed = 1;
nodes = (
(76,0,l),
(158,0,l),
(158,377,l),
(138,500,l),
(76,500,l)
);
}
);
width = 588;
},
{
layerId = "DF327079-0489-4E1B-B65C-406769ADC3EE";
shapes = (
{
closed = 1;
nodes = (
(457,0,l),
(495,0,l),
(495,307,ls),
(495,384,o),
(464,447,o),
(409,480,cs),
(382,496,o),
(350,504,o),
(315,504,cs),
(220,504,o),
(151,450,o),
(98,345,c),
(117,329,l),
(165,424,o),
(233,470,o),
(308,470,cs),
(351,470,o),
(387,455,o),
(415,424,cs),
(442,393,o),
(456,352,o),
(456,300,cs)
);
},
{
closed = 1;
nodes = (
(83,0,l),
(120,0,l),
(120,377,l),
(115,500,l),
(83,500,l)
);
}
);
width = 563;
}
);
leftKerningGroup = m;
rightKerningGroup = h;
unicode = 110;
},
{
glyphname = o;
layers = (
{
anchors = (
{
name = m.uni0324_3;
position = "{295, -12}";
},
{
name = t.uni0308_1_3;
position = "{294, 512}";
},
{
name = t.uni0335_4;
position = "{296, 251}";
},
{
name = t.uni031B_4;
position = "{389, 496}";
},
{
name = m.uni0328_2;
position = "{427, 12}";
},
{
name = t.uni030C.alt_4;
position = "{582, 500}";
}
);
layerId = "8644C546-E7FE-4718-8D12-21E7933BC7CE";
shapes = (
{
closed = 1;
nodes = (
(244,-16,o),
(199,-5,o),
(160,19,cs),
(81,65,o),
(34,149,o),
(34,250,cs),
(34,301,o),
(45,346,o),
(68,387,cs),
(112,467,o),
(194,516,o),
(295,516,cs),
(344,516,o),
(389,505,o),
(428,482,cs),
(507,436,o),
(555,351,o),
(555,250,cs),
(555,199,o),
(544,154,o),
(521,114,cs),
(476,33,o),
(394,-16,o),
(295,-16,cs)
);
},
{
closed = 1;
nodes = (
(314,132,o),
(331,137,o),
(346,147,cs),
(376,167,o),
(392,203,o),
(392,250,cs),
(392,273,o),
(388,294,o),
(380,312,cs),
(364,347,o),
(332,368,o),
(295,368,cs),
(276,368,o),
(259,363,o),
(244,353,cs),
(214,333,o),
(197,297,o),
(197,250,cs),
(197,227,o),
(201,206,o),
(209,189,cs),
(225,153,o),
(256,132,o),
(295,132,cs)
);
}
);
width = 589;
},
{
anchors = (
{
name = m.uni0324_3;
position = "{299, -6}";
},
{
name = t.uni0308_1_3;
position = "{298, 511}";
},
{
name = t.uni0335_4;
position = "{302, 254}";
},
{
name = t.uni031B_4;
position = "{382, 509}";
},
{
name = m.uni0328_2;
position = "{424, 4}";
},
{
name = t.uni030C.alt_4;
position = "{603, 500}";
}
);
layerId = "B882EE25-4F70-487C-AAE1-5981B86ECF6B";
shapes = (
{
closed = 1;
nodes = (
(242,-13,o),
(199,-2,o),
(162,21,cs),
(86,66,o),
(43,150,o),
(43,250,cs),
(43,300,o),
(53,345,o),
(74,385,cs),
(115,465,o),
(194,513,o),
(289,513,cs),
(336,513,o),
(379,502,o),
(417,479,cs),
(493,434,o),
(536,350,o),
(536,250,cs),
(536,200,o),
(526,155,o),
(505,115,cs),
(464,35,o),
(384,-13,o),
(289,-13,cs)
);
},
{
closed = 1;
nodes = (
(322,61,o),
(351,69,o),
(376,85,cs),
(427,117,o),
(456,177,o),
(456,250,cs),
(456,287,o),
(449,319,o),
(435,348,cs),
(407,405,o),
(354,439,o),
(289,439,cs),
(256,439,o),
(228,431,o),
(203,415,cs),
(153,383,o),
(123,323,o),
(123,250,cs),
(123,213,o),
(130,181,o),
(144,152,cs),
(172,95,o),
(224,61,o),
(289,61,cs)
);
}
);
width = 579;
},
{
anchors = (
{
name = m.uni0324_3;
position = "{299, -6}";
},
{
name = t.uni0308_1_3;
position = "{298, 511}";
},
{
name = t.uni0335_4;
position = "{302, 254}";
},
{
name = t.uni031B_4;
position = "{382, 509}";
},
{
name = m.uni0328_2;
position = "{424, 4}";
},
{
name = t.uni030C.alt_4;
position = "{603, 500}";
}
);
layerId = "DF327079-0489-4E1B-B65C-406769ADC3EE";
shapes = (
{
closed = 1;
nodes = (
(238,-10,o),
(197,1,o),
(162,23,cs),
(90,66,o),
(49,149,o),
(49,250,cs),
(49,301,o),
(59,346,o),
(79,386,cs),
(118,465,o),
(192,510,o),
(285,510,cs),
(332,510,o),
(373,499,o),
(409,478,c),
(480,434,o),
(521,351,o),
(521,250,cs),
(521,199,o),
(511,154,o),
(492,115,cs),
(452,35,o),
(378,-10,o),
(285,-10,cs)
);
},
{
closed = 1;
nodes = (
(324,26,o),
(358,35,o),
(389,54,cs),
(449,90,o),
(484,161,o),
(484,250,cs),
(484,295,o),
(476,334,o),
(459,368,cs),
(426,436,o),
(362,474,o),
(285,474,cs),
(246,474,o),
(212,465,o),
(182,447,cs),
(121,410,o),
(86,339,o),
(86,250,cs),
(86,205,o),
(94,166,o),
(111,132,cs),
(144,64,o),
(208,26,o),
(285,26,cs)
);
}
);
width = 570;
}
);
leftKerningGroup = c2;
rightKerningGroup = b;
unicode = 111;
},
{
glyphname = p;
layers = (
{
anchors = (
{
name = m.uni0324_3;
position = "{303, -12}";
},
{
name = t.uni0308_1_3;
position = "{316, 512}";
}
);
layerId = "8644C546-E7FE-4718-8D12-21E7933BC7CE";
shapes = (
{
closed = 1;
nodes = (
(67,500,l),
(192,500,l),
(232,377,l),
(232,-260,l),
(67,-260,l)
);
},
{
closed = 1;
nodes = (
(205,-23,o),
(139,-8,o),
(98,25,c),
(172,141,l),
(197,130,o),
(239,124,o),
(271,124,cs),
(300,124,o),
(324,130,o),
(343,142,cs),
(381,165,o),
(399,208,o),
(399,263,cs),
(399,284,o),
(396,304,o),
(389,321,cs),
(375,356,o),
(347,377,o),
(315,377,cs),
(292,377,o),
(273,368,o),
(257,351,cs),
(240,333,o),
(232,310,o),
(231,281,c),
(140,307,l),
(143,350,o),
(153,387,o),
(172,420,cs),
(208,484,o),
(271,521,o),
(342,521,cs),
(384,521,o),
(422,510,o),
(457,488,cs),
(525,444,o),
(566,363,o),
(566,264,cs),
(566,207,o),
(555,158,o),
(533,116,cs),
(488,31,o),
(400,-19,o),
(277,-22,cs)
);
}
);
width = 592;
},
{
anchors = (
{
name = m.uni0324_3;
position = "{287, -17}";
},
{
name = t.uni0308_1_3;
position = "{321, 519}";
}
);
layerId = "B882EE25-4F70-487C-AAE1-5981B86ECF6B";
shapes = (
{
closed = 1;
nodes = (
(76,500,l),
(138,500,l),
(158,377,l),
(158,-260,l),
(76,-260,l)
);
},
{
closed = 1;
nodes = (
(197,-17,o),
(135,-2,o),
(102,11,c),
(141,77,l),
(164,66,o),
(214,59,o),
(255,59,cs),
(296,59,o),
(332,67,o),
(361,82,cs),
(420,113,o),
(451,173,o),
(451,258,cs),
(451,293,o),
(445,324,o),
(432,351,cs),
(407,406,o),
(359,438,o),
(299,438,cs),
(260,438,o),
(227,424,o),
(200,397,cs),
(173,370,o),
(159,333,o),
(158,287,c),
(102,300,l),
(104,341,o),
(114,378,o),
(132,411,cs),
(167,475,o),
(228,514,o),
(303,514,cs),
(346,514,o),
(386,503,o),
(421,481,cs),
(491,437,o),
(533,356,o),
(533,263,cs),
(533,206,o),
(522,157,o),
(499,115,cs),
(453,30,o),
(366,-17,o),
(257,-17,cs)
);
}
);
width = 570;
},
{
anchors = (
{
name = m.uni0324_3;
position = "{287, -17}";
},
{
name = t.uni0308_1_3;
position = "{321, 519}";
}
);
layerId = "DF327079-0489-4E1B-B65C-406769ADC3EE";
shapes = (
{
closed = 1;
nodes = (
(83,500,l),
(115,500,l),
(120,377,l),
(120,-260,l),
(83,-260,l)
);
},
{
closed = 1;
nodes = (
(193,-11,o),
(136,-1,o),
(99,16,c),
(116,43,l),
(152,31,o),
(200,25,o),
(240,25,cs),
(292,25,o),
(335,36,o),
(370,58,cs),
(439,102,o),
(473,178,o),
(473,265,cs),
(473,306,o),
(466,343,o),
(451,374,cs),
(422,437,o),
(365,473,o),
(296,473,cs),
(249,473,o),
(209,458,o),
(176,428,cs),
(143,397,o),
(125,356,o),
(120,304,c),
(92,310,l),
(96,351,o),
(107,386,o),
(126,416,cs),
(163,476,o),
(225,509,o),
(298,509,cs),
(339,509,o),
(376,499,o),
(409,478,cs),
(473,437,o),
(511,360,o),
(511,263,cs),
(511,209,o),
(500,161,o),
(478,120,cs),
(433,37,o),
(349,-11,o),
(242,-11,cs)
);
}
);
width = 557;
}
);
leftKerningGroup = m;
rightKerningGroup = b;
unicode = 112;
},
{
glyphname = q;
layers = (
{
anchors = (
{
name = m.uni0324_3;
position = "{266, -10}";
},
{
name = t.uni0308_1_3;
position = "{286, 510}";
}
);
layerId = "8644C546-E7FE-4718-8D12-21E7933BC7CE";
shapes = (
{
closed = 1;
nodes = (
(361,402,l),
(361,-260,l),
(526,-260,l),
(526,486,l),
(514,493,o),
(492,501,o),
(459,510,cs),
(426,519,o),
(398,524,o),
(377,525,c)
);
},
{
closed = 1;
nodes = (
(192,526,o),
(104,476,o),
(60,392,cs),
(37,349,o),
(26,300,o),
(26,243,cs),
(26,144,o),
(67,63,o),
(136,19,cs),
(170,-3,o),
(208,-14,o),
(250,-14,cs),
(321,-14,o),
(384,23,o),
(421,88,cs),
(439,120,o),
(449,157,o),
(452,200,c),
(361,226,l),
(360,197,o),
(352,174,o),
(336,157,cs),
(319,139,o),
(300,130,o),
(277,130,cs),
(245,130,o),
(218,151,o),
(204,186,cs),
(197,203,o),
(193,223,o),
(193,244,cs),
(193,299,o),
(212,342,o),
(250,366,cs),
(269,377,o),
(292,383,o),
(321,383,cs),
(353,383,o),
(395,377,o),
(420,366,c),
(494,482,l),
(453,515,o),
(387,530,o),
(315,529,cs)
);
}
);
width = 576;
},
{
anchors = (
{
name = m.uni0324_3;
position = "{237, -16}";
},
{
name = t.uni0308_1_3;
position = "{288, 516}";
}
);
layerId = "B882EE25-4F70-487C-AAE1-5981B86ECF6B";
shapes = (
{
closed = 1;
nodes = (
(413,444,l),
(413,-260,l),
(495,-260,l),
(495,485,l),
(484,489,o),
(472,493,o),
(457,497,cs),
(442,501,o),
(429,504,o),
(418,505,c)
);
},
{
closed = 1;
nodes = (
(204,520,o),
(118,473,o),
(72,389,cs),
(49,346,o),
(37,297,o),
(37,240,cs),
(37,147,o),
(80,66,o),
(150,22,cs),
(185,0,o),
(224,-11,o),
(267,-11,cs),
(342,-11,o),
(403,28,o),
(439,93,cs),
(456,125,o),
(466,162,o),
(468,203,c),
(412,216,l),
(411,170,o),
(398,133,o),
(371,106,cs),
(344,79,o),
(310,65,o),
(271,65,cs),
(211,65,o),
(163,97,o),
(138,152,cs),
(125,179,o),
(119,210,o),
(119,245,cs),
(119,330,o),
(150,390,o),
(209,421,cs),
(238,436,o),
(274,444,o),
(315,444,cs),
(356,444,o),
(406,437,o),
(429,426,c),
(468,492,l),
(435,505,o),
(373,520,o),
(313,520,cs)
);
}
);
width = 565;
},
{
anchors = (
{
name = m.uni0324_3;
position = "{237, -16}";
},
{
name = t.uni0308_1_3;
position = "{288, 516}";
}
);
layerId = "DF327079-0489-4E1B-B65C-406769ADC3EE";
shapes = (
{
closed = 1;
nodes = (
(436,472,l),
(436,-260,l),
(474,-260,l),
(474,474,l),
(468,477,o),
(462,479,o),
(456,482,c),
(449,484,o),
(442,486,o),
(435,488,c)
);
},
{
closed = 1;
nodes = (
(208,507,o),
(124,459,o),
(80,376,cs),
(57,335,o),
(46,287,o),
(46,233,cs),
(46,136,o),
(84,59,o),
(149,18,cs),
(181,-3,o),
(218,-13,o),
(259,-13,cs),
(332,-13,o),
(394,20,o),
(431,80,cs),
(450,110,o),
(461,145,o),
(465,186,c),
(437,192,l),
(432,140,o),
(414,99,o),
(381,69,cs),
(348,38,o),
(308,23,o),
(261,23,cs),
(192,23,o),
(135,59,o),
(106,122,cs),
(91,153,o),
(84,190,o),
(84,231,cs),
(84,318,o),
(118,394,o),
(187,438,cs),
(222,460,o),
(265,471,o),
(317,471,cs),
(357,471,o),
(405,465,o),
(441,453,c),
(458,480,l),
(421,497,o),
(364,507,o),
(315,507,cs)
);
}
);
width = 551;
}
);
leftKerningGroup = c2;
rightKerningGroup = j;
unicode = 113;
},
{
glyphname = r;
layers = (
{
layerId = "B9CCD1C7-992E-4052-97DD-2CC74A5B09E2";
name = "#instance";
shapes = (
{
closed = 1;
nodes = (
(120,369,l),
(135,405,o),
(158,436,o),
(187,462,cs),
(217,488,o),
(251,502,o),
(291,506,c),
(313,512,o),
(335,511,o),
(349,506,c),
(339,432,l),
(329,436,o),
(314,439,o),
(305,439,cs),
(282,439,o),
(261,434,o),
(240,424,cs),
(198,403,o),
(167,368,o),
(154,329,c)
);
},
{
closed = 1;
nodes = (
(78,500,l),
(140,500,l),
(156,377,l),
(156,0,l),
(78,0,l)
);
}
);
width = 363;
},
{
layerId = "8644C546-E7FE-4718-8D12-21E7933BC7CE";
shapes = (
{
closed = 1;
nodes = (
(162,392,l),
(175,419,o),
(191,443,o),
(209,463,cs),
(226,483,o),
(248,498,o),
(273,509,cs),
(318,529,o),
(371,528,o),
(404,515,c),
(381,366,l),
(365,375,o),
(338,382,o),
(325,382,cs),
(307,382,o),
(291,379,o),
(278,373,cs),
(250,360,o),
(235,339,o),
(228,316,c)
);
},
{
closed = 1;
nodes = (
(67,500,l),
(192,500,l),
(232,377,l),
(232,0,l),
(67,0,l)
);
}
);
width = 410;
},
{
layerId = "B882EE25-4F70-487C-AAE1-5981B86ECF6B";
shapes = (
{
closed = 1;
nodes = (
(120,368,l),
(137,407,o),
(160,440,o),
(189,466,cs),
(218,491,o),
(248,506,o),
(281,511,cs),
(300,514,o),
(325,514,o),
(349,510,c),
(340,432,l),
(331,435,o),
(314,436,o),
(301,436,cs),
(281,436,o),
(261,431,o),
(242,421,cs),
(203,401,o),
(173,365,o),
(158,326,c)
);
},
{
closed = 1;
nodes = (
(76,500,l),
(138,500,l),
(158,377,l),
(158,0,l),
(76,0,l)
);
}
);
width = 356;
},
{
layerId = "DF327079-0489-4E1B-B65C-406769ADC3EE";
shapes = (
{
closed = 1;
nodes = (
(100,358,l),
(116,398,o),
(142,432,o),
(177,461,cs),
(212,490,o),
(253,504,o),
(299,504,cs),
(310,504,o),
(318,503,o),
(323,502,c),
(319,464,l),
(311,465,o),
(302,466,o),
(295,466,cs),
(270,466,o),
(246,460,o),
(222,448,cs),
(173,424,o),
(134,382,o),
(119,335,c)
);
},
{
closed = 1;
nodes = (
(83,500,l),
(115,500,l),
(120,377,l),
(120,0,l),
(83,0,l)
);
}
);
width = 341;
}
);
leftKerningGroup = m;
rightKerningGroup = r;
unicode = 114;
},
{
glyphname = s;
layers = (
{
layerId = "8644C546-E7FE-4718-8D12-21E7933BC7CE";
shapes = (
{
closed = 1;
nodes = (
(152,-13,o),
(77,24,o),
(25,81,c),
(113,178,l),
(152,143,o),
(199,127,o),
(240,127,cs),
(272,127,o),
(287,137,o),
(287,149,cs),
(287,170,o),
(258,184,o),
(207,200,cs),
(200,202,o),
(192,204,o),
(185,207,cs),
(162,215,o),
(141,226,o),
(121,240,cs),
(80,267,o),
(50,310,o),
(50,366,cs),
(50,397,o),
(58,423,o),
(74,446,cs),
(105,490,o),
(166,516,o),
(239,516,cs),
(307,516,o),
(375,495,o),
(416,460,c),
(344,351,l),
(310,373,o),
(278,384,o),
(248,384,cs),
(225,384,o),
(214,377,o),
(214,365,cs),
(214,350,o),
(228,342,o),
(271,326,c),
(312,309,ls),
(345,295,o),
(372,281,o),
(391,267,cs),
(430,239,o),
(451,204,o),
(451,153,cs),
(451,118,o),
(442,87,o),
(423,61,cs),
(386,8,o),
(319,-19,o),
(240,-16,cs)
);
}
);
width = 480;
},
{
layerId = "B882EE25-4F70-487C-AAE1-5981B86ECF6B";
shapes = (
{
closed = 1;
nodes = (
(142,-13,o),
(77,15,o),
(24,72,c),
(69,123,l),
(117,78,o),
(162,60,o),
(210,60,cs),
(277,60,o),
(316,91,o),
(316,142,cs),
(316,182,o),
(294,198,o),
(237,221,cs),
(226,225,o),
(214,229,o),
(202,234,cs),
(167,247,o),
(139,260,o),
(119,272,cs),
(79,295,o),
(53,325,o),
(53,373,cs),
(53,401,o),
(60,426,o),
(75,447,cs),
(104,489,o),
(158,513,o),
(218,513,cs),
(271,513,o),
(331,493,o),
(363,465,c),
(329,408,l),
(299,429,o),
(265,440,o),
(226,440,cs),
(173,440,o),
(135,422,o),
(135,381,cs),
(135,353,o),
(153,337,o),
(193,318,c),
(234,301,ls),
(272,285,o),
(302,271,o),
(324,260,c),
(367,236,o),
(397,200,o),
(397,143,cs),
(397,113,o),
(389,86,o),
(374,63,cs),
(342,15,o),
(285,-13,o),
(213,-13,cs)
);
}
);
width = 428;
},
{
layerId = "DF327079-0489-4E1B-B65C-406769ADC3EE";
shapes = (
{
closed = 1;
nodes = (
(142,-10,o),
(81,16,o),
(29,69,c),
(53,95,l),
(98,48,o),
(153,24,o),
(212,24,cs),
(292,24,o),
(346,68,o),
(346,133,cs),
(346,185,o),
(311,212,o),
(247,239,cs),
(236,244,o),
(223,250,o),
(207,255,c),
(172,268,o),
(146,280,o),
(127,290,cs),
(89,309,o),
(59,339,o),
(59,388,cs),
(59,412,o),
(66,433,o),
(79,452,cs),
(105,488,o),
(154,510,o),
(217,510,cs),
(266,510,o),
(309,497,o),
(344,472,c),
(326,443,l),
(292,464,o),
(255,474,o),
(216,474,cs),
(145,474,o),
(97,442,o),
(97,387,cs),
(97,351,o),
(119,330,o),
(167,310,cs),
(216,290,ls),
(257,273,o),
(289,259,o),
(312,247,c),
(356,222,o),
(384,190,o),
(384,135,cs),
(384,106,o),
(377,80,o),
(362,59,c),
(333,15,o),
(280,-10,o),
(211,-10,cs)
);
}
);
width = 419;
}
);
leftKerningGroup = s2;
rightKerningGroup = s;
unicode = 115;
},
{
glyphname = t;
layers = (
{
layerId = "B9CCD1C7-992E-4052-97DD-2CC74A5B09E2";
name = "#instance";
shapes = (
{
closed = 1;
nodes = (
(281,-16,o),
(318,-2,o),
(346,21,c),
(311,78,l),
(294,65,o),
(273,59,o),
(249,59,cs),
(197,59,o),
(169,91,o),
(169,151,cs),
(169,642,l),
(89,641,l),
(89,143,ls),
(89,40,o),
(146,-16,o),
(237,-16,cs)
);
},
{
closed = 1;
nodes = (
(17,500,l),
(17,436,l),
(312,436,l),
(312,500,l)
);
}
);
width = 364;
},
{
layerId = "8644C546-E7FE-4718-8D12-21E7933BC7CE";
shapes = (
{
closed = 1;
nodes = (
(324,-22,o),
(377,5,o),
(413,40,c),
(343,154,l),
(328,141,o),
(309,135,o),
(286,135,cs),
(258,135,o),
(243,154,o),
(243,189,cs),
(243,643,l),
(78,642,l),
(78,164,ls),
(78,47,o),
(150,-22,o),
(257,-22,cs)
);
},
{
closed = 1;
nodes = (
(14,500,l),
(14,373,l),
(371,373,l),
(371,500,l)
);
}
);
width = 424;
},
{
layerId = "B882EE25-4F70-487C-AAE1-5981B86ECF6B";
shapes = (
{
closed = 1;
nodes = (
(280,-14,o),
(314,1,o),
(339,22,c),
(301,85,l),
(283,71,o),
(262,64,o),
(239,64,cs),
(187,64,o),
(167,88,o),
(167,151,cs),
(167,641,l),
(85,641,l),
(85,147,ls),
(85,42,o),
(139,-14,o),
(232,-14,cs)
);
},
{
closed = 1;
nodes = (
(16,500,l),
(16,426,l),
(309,426,l),
(309,500,l)
);
}
);
width = 354;
},
{
layerId = "DF327079-0489-4E1B-B65C-406769ADC3EE";
shapes = (
{
closed = 1;
nodes = (
(261,-13,o),
(290,-5,o),
(313,12,c),
(296,42,l),
(277,29,o),
(256,23,o),
(231,23,cs),
(167,23,o),
(133,61,o),
(133,133,cs),
(133,641,l),
(95,641,l),
(95,133,ls),
(95,37,o),
(144,-13,o),
(228,-13,cs)
);
},
{
closed = 1;
nodes = (
(18,500,l),
(18,466,l),
(283,466,l),
(283,500,l)
);
}
);
width = 335;
}
);
leftKerningGroup = t2;
rightKerningGroup = t;
unicode = 116;
},
{
glyphname = u;
layers = (
{
layerId = "B9CCD1C7-992E-4052-97DD-2CC74A5B09E2";
name = "#instance";
shapes = (
{
closed = 1;
nodes = (
(142,202,ls),
(142,158,o),
(154,124,o),
(176,98,cs),
(198,72,o),
(228,60,o),
(264,60,cs),
(327,60,o),
(384,99,o),
(423,176,c),
(459,149,l),
(409,46,o),
(337,-10,o),
(243,-10,cs),
(208,-10,o),
(177,-2,o),
(150,16,c),
(94,49,o),
(62,114,o),
(62,193,cs),
(62,500,l),
(142,500,l)
);
},
{
closed = 1;
nodes = (
(431,0,l),
(414,129,l),
(414,500,l),
(493,500,l),
(493,0,l)
);
}
);
width = 575;
},
{
layerId = "8644C546-E7FE-4718-8D12-21E7933BC7CE";
shapes = (
{
closed = 1;
nodes = (
(216,205,ls),
(216,179,o),
(222,159,o),
(233,144,cs),
(244,129,o),
(260,122,o),
(282,122,cs),
(321,122,o),
(355,146,o),
(375,185,c),
(446,137,l),
(402,37,o),
(326,-22,o),
(234,-22,cs),
(199,-22,o),
(168,-13,o),
(141,6,c),
(85,42,o),
(51,110,o),
(51,194,cs),
(51,500,l),
(216,500,l)
);
},
{
closed = 1;
nodes = (
(415,0,l),
(375,130,l),
(375,500,l),
(540,500,l),
(540,0,l)
);
}
);
width = 603;
},
{
layerId = "B882EE25-4F70-487C-AAE1-5981B86ECF6B";
shapes = (
{
closed = 1;
nodes = (
(144,197,ls),
(144,152,o),
(155,119,o),
(176,96,cs),
(197,73,o),
(226,62,o),
(262,62,cs),
(331,62,o),
(391,102,o),
(428,173,c),
(472,142,l),
(417,43,o),
(337,-12,o),
(249,-12,cs),
(214,-12,o),
(183,-4,o),
(155,12,cs),
(98,44,o),
(62,104,o),
(62,179,cs),
(62,500,l),
(144,500,l)
);
},
{
closed = 1;
nodes = (
(432,0,l),
(412,130,l),
(412,500,l),
(494,500,l),
(494,0,l)
);
}
);
width = 588;
},
{
layerId = "DF327079-0489-4E1B-B65C-406769ADC3EE";
shapes = (
{
closed = 1;
nodes = (
(107,200,ls),
(107,148,o),
(121,107,o),
(149,76,cs),
(176,45,o),
(212,30,o),
(255,30,cs),
(330,30,o),
(398,76,o),
(446,171,c),
(465,155,l),
(412,50,o),
(343,-4,o),
(248,-4,cs),
(213,-4,o),
(181,4,o),
(154,21,c),
(99,53,o),
(68,116,o),
(68,193,cs),
(68,500,l),
(107,500,l)
);
},
{
closed = 1;
nodes = (
(438,0,l),
(433,129,l),
(433,500,l),
(470,500,l),
(470,0,l)
);
}
);
width = 561;
}
);
leftKerningGroup = u;
rightKerningGroup = a;
unicode = 117;
},
{
glyphname = v;
layers = (
{
anchors = (
{
name = m.uni0324_3;
position = "{293, 0}";
},
{
name = t.uni0308_1_3;
position = "{292, 500}";
}
);
layerId = "8644C546-E7FE-4718-8D12-21E7933BC7CE";
shapes = (
{
closed = 1;
nodes = (
(4,500,l),
(212,1,l),
(382,1,l),
(566,500,l),
(387,500,l),
(279,142,l),
(314,143,l),
(181,500,l)
);
}
);
width = 570;
},
{
anchors = (
{
name = m.uni0324_3;
position = "{288, 0}";
},
{
name = t.uni0308_1_3;
position = "{287, 500}";
}
);
layerId = "B882EE25-4F70-487C-AAE1-5981B86ECF6B";
shapes = (
{
closed = 1;
nodes = (
(5,500,l),
(217,-1,l),
(290,-1,l),
(491,500,l),
(407,500,l),
(238,68,l),
(270,67,l),
(89,500,l)
);
}
);
width = 496;
},
{
anchors = (
{
name = m.uni0324_3;
position = "{289, 0}";
},
{
name = t.uni0308_1_3;
position = "{288, 500}";
}
);
layerId = "DF327079-0489-4E1B-B65C-406769ADC3EE";
shapes = (
{
closed = 1;
nodes = (
(22,500,l),
(222,0,l),
(265,0,l),
(460,500,l),
(421,500,l),
(237,25,l),
(249,25,l),
(63,500,l)
);
}
);
width = 482;
}
);
leftKerningGroup = v2;
rightKerningGroup = v;
unicode = 118;
},
{
glyphname = w;
layers = (
{
anchors = (
{
name = m.uni0324_3;
position = "{430, 0}";
},
{
name = t.uni0308_1_3;
position = "{400, 500}";
}
);
layerId = "8644C546-E7FE-4718-8D12-21E7933BC7CE";
shapes = (
{
closed = 1;
nodes = (
(5,500,l),
(180,0,l),
(334,0,l),
(390,197,l),
(404,279,l),
(418,197,l),
(479,0,l),
(629,0,l),
(797,499,l),
(626,499,l),
(564,274,l),
(554,210,l),
(547,274,l),
(473,500,l),
(336,500,l),
(264,273,l),
(256,210,l),
(249,273,l),
(191,500,l)
);
}
);
width = 802;
},
{
anchors = (
{
name = m.uni0324_3;
position = "{413, 0}";
},
{
name = t.uni0308_1_3;
position = "{376, 490}";
}
);
layerId = "B882EE25-4F70-487C-AAE1-5981B86ECF6B";
shapes = (
{
closed = 1;
nodes = (
(12,500,l),
(179,0,l),
(252,0,l),
(361,333,l),
(371,389,l),
(384,333,l),
(492,0,l),
(565,0,l),
(729,500,l),
(648,500,l),
(543,166,l),
(530,111,l),
(517,166,l),
(411,500,l),
(335,500,l),
(228,168,l),
(216,111,l),
(203,168,l),
(93,500,l)
);
}
);
width = 741;
},
{
anchors = (
{
name = m.uni0324_3;
position = "{408, 0}";
},
{
name = t.uni0308_1_3;
position = "{371, 490}";
}
);
layerId = "DF327079-0489-4E1B-B65C-406769ADC3EE";
shapes = (
{
closed = 1;
nodes = (
(24,500,l),
(183,0,l),
(228,0,l),
(359,405,l),
(373,461,l),
(388,405,l),
(519,0,l),
(563,0,l),
(724,500,l),
(686,500,l),
(555,93,l),
(540,40,l),
(527,93,l),
(396,500,l),
(352,500,l),
(221,94,l),
(207,40,l),
(192,94,l),
(64,500,l)
);
}
);
width = 748;
}
);
leftKerningGroup = v2;
rightKerningGroup = v;
unicode = 119;
},
{
glyphname = x;
layers = (
{
anchors = (
{
name = m.uni0324_3;
position = "{277, 0}";
},
{
name = t.uni0308_1_3;
position = "{275, 500}";
}
);
layerId = "8644C546-E7FE-4718-8D12-21E7933BC7CE";
shapes = (
{
closed = 1;
nodes = (
(336,0,l),
(243,198,l),
(316,200,l),
(211,0,l),
(7,0,l),
(211,322,l),
(203,202,l),
(21,500,l),
(227,500,l),
(311,322,l),
(248,322,l),
(326,500,l),
(528,500,l),
(345,202,l),
(341,318,l),
(542,0,l)
);
}
);
width = 549;
},
{
anchors = (
{
name = m.uni0324_3;
position = "{287, 0}";
},
{
name = t.uni0308_1_3;
position = "{285, 497}";
}
);
layerId = "B882EE25-4F70-487C-AAE1-5981B86ECF6B";
shapes = (
{
closed = 1;
nodes = (
(358,0,l),
(213,222,l),
(243,221,l),
(112,0,l),
(14,0,l),
(193,287,l),
(197,230,l),
(13,500,l),
(112,500,l),
(246,293,l),
(208,293,l),
(337,500,l),
(436,500,l),
(258,232,l),
(264,285,l),
(457,0,l)
);
}
);
width = 470;
},
{
anchors = (
{
name = m.uni0324_3;
position = "{287, 0}";
},
{
name = t.uni0308_1_3;
position = "{285, 497}";
}
);
layerId = "DF327079-0489-4E1B-B65C-406769ADC3EE";
shapes = (
{
closed = 1;
nodes = (
(377,0,l),
(206,245,l),
(221,245,l),
(68,0,l),
(23,0,l),
(196,273,l),
(197,245,l),
(26,500,l),
(71,500,l),
(222,272,l),
(207,272,l),
(348,500,l),
(395,500,l),
(233,247,l),
(228,275,l),
(425,0,l)
);
}
);
width = 438;
}
);
leftKerningGroup = x;
unicode = 120;
},
{
color = (153, 255, 154, 255);
glyphname = y;
layers = (
{
anchors = (
{
name = m.uni0324_3;
position = "{150, -267}";
},
{
name = t.uni0308_1_3;
position = "{296, 500}";
}
);
layerId = "8644C546-E7FE-4718-8D12-21E7933BC7CE";
shapes = (
{
closed = 1;
nodes = (
(165,-283,l),
(275,-223,o),
(322,-176,o),
(355,-85,cs),
(565,500,l),
(393,500,l),
(293,185,l),
(303,185,l),
(182,500,l),
(4,500,l),
(221,2,l),
(203,-49,ls),
(185,-100,o),
(139,-137,o),
(71,-166,c)
);
}
);
width = 569;
},
{
anchors = (
{
name = m.uni0324_3;
position = "{146, -266}";
},
{
name = t.uni0308_1_3;
position = "{287, 500}";
}
);
layerId = "B882EE25-4F70-487C-AAE1-5981B86ECF6B";
shapes = (
{
closed = 1;
nodes = (
(120,-278,l),
(187,-245,o),
(233,-187,o),
(265,-102,cs),
(490,500,l),
(412,500,l),
(256,76,l),
(267,76,l),
(96,500,l),
(17,500,l),
(225,1,l),
(195,-85,ls),
(175,-142,o),
(138,-187,o),
(79,-225,c)
);
}
);
width = 508;
},
{
anchors = (
{
name = m.uni0324_3;
position = "{145, -266}";
},
{
name = t.uni0308_1_3;
position = "{284, 500}";
}
);
layerId = "DF327079-0489-4E1B-B65C-406769ADC3EE";
shapes = (
{
closed = 1;
nodes = (
(101,-273,l),
(151,-251,o),
(196,-192,o),
(228,-109,cs),
(459,500,l),
(420,500,l),
(241,32,l),
(252,32,l),
(61,500,l),
(22,500,l),
(227,0,l),
(192,-99,ls),
(171,-159,o),
(137,-205,o),
(82,-246,c)
);
}
);
width = 483;
}
);
leftKerningGroup = v2;
rightKerningGroup = v;
unicode = 121;
},
{
glyphname = z;
layers = (
{
anchors = (
{
name = m.uni0324_3;
position = "{242, 0}";
},
{
name = t.uni0308_1_3;
position = "{241, 498}";
},
{
name = t.uni0335_4;
position = "{243, 250}";
}
);
layerId = "8644C546-E7FE-4718-8D12-21E7933BC7CE";
shapes = (
{
closed = 1;
nodes = (
(32,68,l),
(199,324,l),
(228,352,l),
(153,352,l),
(45,352,l),
(45,500,l),
(459,500,l),
(459,433,l),
(291,175,l),
(264,147,l),
(317,148,l),
(477,148,l),
(477,0,l),
(32,0,l)
);
}
);
width = 505;
},
{
anchors = (
{
name = m.uni0324_3;
position = "{256, 0}";
},
{
name = t.uni0308_1_3;
position = "{243, 497}";
},
{
name = t.uni0335_4;
position = "{257, 250}";
}
);
layerId = "B882EE25-4F70-487C-AAE1-5981B86ECF6B";
shapes = (
{
closed = 1;
nodes = (
(24,35,l),
(253,377,l),
(289,424,l),
(251,424,l),
(49,424,l),
(49,500,l),
(410,500,l),
(408,470,l),
(164,109,l),
(140,78,l),
(170,78,l),
(424,78,l),
(424,0,l),
(24,0,l)
);
}
);
width = 446;
},
{
anchors = (
{
name = m.uni0324_3;
position = "{256, 0}";
},
{
name = t.uni0308_1_3;
position = "{243, 497}";
},
{
name = t.uni0335_4;
position = "{257, 250}";
}
);
layerId = "DF327079-0489-4E1B-B65C-406769ADC3EE";
shapes = (
{
closed = 1;
nodes = (
(23,7,l),
(309,438,l),
(327,465,l),
(303,464,l),
(53,464,l),
(53,500,l),
(394,500,l),
(393,499,l),
(98,55,l),
(81,34,l),
(99,36,l),
(401,36,l),
(401,0,l),
(21,0,l)
);
}
);
width = 426;
}
);
leftKerningGroup = z;
unicode = 122;
},
{
glyphname = braceleft;
layers = (
{
layerId = "8644C546-E7FE-4718-8D12-21E7933BC7CE";
shapes = (
{
closed = 1;
nodes = (
(303,-22,l),
(263,-18,o),
(245,-12,o),
(238,-2,c),
(235,4,o),
(233,10,o),
(233,18,cs),
(233,26,o),
(235,49,o),
(239,86,cs),
(246,145,o),
(249,192,o),
(245,220,cs),
(238,273,o),
(185,319,o),
(114,344,cs),
(79,356,o),
(44,362,o),
(10,362,c),
(10,234,l),
(82,234,o),
(156,257,o),
(204,298,cs),
(228,318,o),
(242,341,o),
(245,368,cs),
(249,396,o),
(246,440,o),
(239,500,cs),
(235,539,o),
(233,562,o),
(233,571,cs),
(233,591,o),
(237,599,o),
(257,604,cs),
(266,606,o),
(282,608,o),
(303,610,c),
(291,757,l),
(215,750,o),
(146,728,o),
(102,674,cs),
(79,647,o),
(68,611,o),
(68,568,cs),
(68,546,o),
(71,513,o),
(78,469,cs),
(83,436,o),
(88,402,o),
(84,393,c),
(79,377,o),
(55,368,o),
(10,372,c),
(10,224,l),
(55,227,o),
(77,215,o),
(81,196,c),
(84,187,o),
(80,151,o),
(76,118,cs),
(71,74,o),
(68,41,o),
(68,19,cs),
(68,-30,o),
(79,-68,o),
(102,-95,cs),
(125,-122,o),
(152,-140,o),
(183,-149,cs),
(214,-158,o),
(250,-165,o),
(291,-169,c)
);
}
);
width = 323;
},
{
layerId = "B882EE25-4F70-487C-AAE1-5981B86ECF6B";
shapes = (
{
closed = 1;
nodes = (
(296,-100,l),
(240,-95,o),
(216,-87,o),
(205,-64,cs),
(199,-52,o),
(196,-34,o),
(196,-10,cs),
(196,17,o),
(198,51,o),
(203,90,c),
(207,133,o),
(211,178,o),
(208,206,c),
(204,259,o),
(166,298,o),
(110,318,c),
(82,327,o),
(52,332,o),
(20,332,c),
(20,256,l),
(85,256,o),
(142,273,o),
(178,310,c),
(195,329,o),
(205,352,o),
(208,381,cs),
(211,409,o),
(207,454,o),
(203,497,c),
(198,537,o),
(196,571,o),
(196,598,cs),
(196,646,o),
(207,667,o),
(233,676,cs),
(246,681,o),
(267,685,o),
(296,688,c),
(291,755,l),
(215,747,o),
(169,734,o),
(138,691,cs),
(123,669,o),
(115,638,o),
(115,598,cs),
(115,575,o),
(117,534,o),
(122,473,c),
(126,438,o),
(128,405,o),
(127,388,cs),
(124,355,o),
(99,332,o),
(20,332,c),
(20,256,l),
(99,256,o),
(123,237,o),
(127,200,c),
(128,183,o),
(126,148,o),
(122,112,c),
(117,51,o),
(115,11,o),
(115,-10,cs),
(115,-50,o),
(123,-81,o),
(138,-103,cs),
(153,-124,o),
(173,-140,o),
(198,-149,cs),
(223,-158,o),
(254,-164,o),
(291,-167,c)
);
}
);
width = 320;
},
{
layerId = "DF327079-0489-4E1B-B65C-406769ADC3EE";
shapes = (
{
closed = 1;
nodes = (
(303,-131,l),
(244,-126,o),
(207,-110,o),
(188,-82,c),
(179,-67,o),
(174,-49,o),
(174,-28,cs),
(174,3,o),
(176,40,o),
(181,84,cs),
(185,129,o),
(189,176,o),
(186,204,cs),
(182,251,o),
(151,283,o),
(105,299,cs),
(82,307,o),
(55,311,o),
(26,311,c),
(26,277,l),
(81,277,o),
(130,293,o),
(160,325,cs),
(175,341,o),
(183,361,o),
(185,385,cs),
(188,413,o),
(184,461,o),
(181,508,cs),
(177,557,o),
(175,593,o),
(175,616,cs),
(175,659,o),
(194,687,o),
(231,703,cs),
(250,711,o),
(274,716,o),
(303,719,c),
(300,755,l),
(228,748,o),
(180,726,o),
(156,687,cs),
(143,667,o),
(137,643,o),
(137,616,cs),
(137,597,o),
(139,556,o),
(144,494,cs),
(148,453,o),
(150,410,o),
(149,389,c),
(145,342,o),
(99,311,o),
(26,311,c),
(26,277,l),
(102,277,o),
(145,251,o),
(149,199,cs),
(150,179,o),
(147,138,o),
(144,98,cs),
(139,34,o),
(137,-8,o),
(137,-28,cs),
(137,-55,o),
(143,-79,o),
(156,-99,cs),
(168,-118,o),
(186,-134,o),
(210,-145,cs),
(234,-156,o),
(264,-164,o),
(300,-167,c)
);
}
);
width = 333;
}
);
rightKerningGroup = parenleft;
unicode = 123;
},
{
glyphname = bar;
layers = (
{
layerId = "8644C546-E7FE-4718-8D12-21E7933BC7CE";
shapes = (
{
closed = 1;
nodes = (
(72,750,l),
(72,-70,l),
(200,-70,l),
(200,750,l)
);
}
);
width = 272;
},
{
layerId = "B882EE25-4F70-487C-AAE1-5981B86ECF6B";
shapes = (
{
closed = 1;
nodes = (
(87,750,l),
(87,-68,l),
(169,-68,l),
(169,750,l)
);
}
);
width = 256;
},
{
layerId = "DF327079-0489-4E1B-B65C-406769ADC3EE";
shapes = (
{
closed = 1;
nodes = (
(92,752,l),
(92,-70,l),
(130,-70,l),
(130,752,l)
);
}
);
width = 222;
}
);
unicode = 124;
},
{
glyphname = braceright;
layers = (
{
layerId = "8644C546-E7FE-4718-8D12-21E7933BC7CE";
shapes = (
{
closed = 1;
nodes = (
(32,-169,l),
(115,-161,o),
(176,-148,o),
(221,-95,cs),
(244,-68,o),
(255,-30,o),
(255,19,cs),
(255,41,o),
(252,74,o),
(247,118,cs),
(243,151,o),
(239,187,o),
(242,196,c),
(246,215,o),
(268,227,o),
(313,224,c),
(313,372,l),
(268,368,o),
(244,377,o),
(239,393,c),
(235,402,o),
(240,436,o),
(245,469,cs),
(252,513,o),
(255,546,o),
(255,568,cs),
(255,655,o),
(205,708,o),
(139,733,cs),
(106,746,o),
(70,754,o),
(32,757,c),
(20,610,l),
(63,606,o),
(80,602,o),
(86,593,cs),
(89,588,o),
(90,581,o),
(90,571,cs),
(90,562,o),
(88,539,o),
(84,500,cs),
(77,440,o),
(74,396,o),
(78,368,cs),
(85,315,o),
(138,273,o),
(207,251,cs),
(242,240,o),
(277,234,o),
(313,234,c),
(313,362,l),
(245,362,o),
(168,336,o),
(120,293,cs),
(95,271,o),
(81,247,o),
(78,220,cs),
(74,192,o),
(77,145,o),
(84,86,cs),
(88,49,o),
(90,26,o),
(90,18,cs),
(90,2,o),
(85,-7,o),
(65,-14,cs),
(55,-17,o),
(40,-20,o),
(20,-22,c)
);
}
);
width = 323;
},
{
layerId = "B882EE25-4F70-487C-AAE1-5981B86ECF6B";
shapes = (
{
closed = 1;
nodes = (
(29,-167,l),
(104,-160,o),
(151,-146,o),
(182,-103,cs),
(197,-81,o),
(205,-50,o),
(205,-10,cs),
(205,11,o),
(203,51,o),
(198,112,c),
(194,148,o),
(192,183,o),
(193,200,c),
(197,237,o),
(221,256,o),
(300,256,c),
(300,332,l),
(221,332,o),
(196,355,o),
(193,388,cs),
(192,405,o),
(194,438,o),
(198,473,c),
(203,534,o),
(205,575,o),
(205,598,cs),
(205,678,o),
(171,719,o),
(123,736,cs),
(98,745,o),
(67,751,o),
(29,755,c),
(24,688,l),
(83,681,o),
(104,675,o),
(116,652,c),
(121,640,o),
(124,622,o),
(124,598,cs),
(124,571,o),
(122,537,o),
(117,497,c),
(113,454,o),
(109,409,o),
(112,381,cs),
(117,324,o),
(155,286,o),
(210,269,cs),
(237,260,o),
(267,256,o),
(300,256,c),
(300,332,l),
(236,332,o),
(177,313,o),
(142,275,cs),
(124,256,o),
(114,233,o),
(112,206,cs),
(109,178,o),
(113,133,o),
(117,90,c),
(122,51,o),
(124,17,o),
(124,-10,cs),
(124,-58,o),
(114,-79,o),
(87,-89,cs),
(73,-94,o),
(52,-97,o),
(24,-100,c)
);
}
);
width = 320;
},
{
layerId = "DF327079-0489-4E1B-B65C-406769ADC3EE";
shapes = (
{
closed = 1;
nodes = (
(33,-167,l),
(105,-160,o),
(153,-138,o),
(178,-99,cs),
(190,-79,o),
(196,-55,o),
(196,-28,cs),
(196,-8,o),
(194,34,o),
(189,98,cs),
(186,138,o),
(183,179,o),
(184,199,cs),
(188,251,o),
(231,277,o),
(307,277,c),
(307,311,l),
(234,311,o),
(188,342,o),
(184,389,c),
(183,410,o),
(185,453,o),
(189,494,cs),
(194,556,o),
(196,597,o),
(196,616,cs),
(196,671,o),
(171,710,o),
(123,733,cs),
(99,744,o),
(69,752,o),
(33,755,c),
(30,719,l),
(89,714,o),
(125,698,o),
(144,670,c),
(153,655,o),
(158,637,o),
(158,616,cs),
(158,593,o),
(156,557,o),
(152,508,cs),
(149,461,o),
(145,413,o),
(148,385,cs),
(152,337,o),
(184,305,o),
(231,289,cs),
(254,281,o),
(280,277,o),
(307,277,c),
(307,311,l),
(248,311,o),
(201,295,o),
(172,263,cs),
(157,247,o),
(149,227,o),
(147,204,cs),
(144,176,o),
(148,129,o),
(152,84,cs),
(157,40,o),
(159,3,o),
(159,-28,cs),
(159,-71,o),
(141,-99,o),
(103,-115,cs),
(84,-123,o),
(59,-128,o),
(30,-131,c)
);
}
);
width = 333;
}
);
leftKerningGroup = parenright;
unicode = 125;
},
{
glyphname = asciitilde;
layers = (
{
layerId = "8644C546-E7FE-4718-8D12-21E7933BC7CE";
shapes = (
{
closed = 1;
nodes = (
(423,213,o),
(468,229,o),
(508,269,cs),
(527,289,o),
(541,315,o),
(548,346,c),
(418,384,l),
(414,357,o),
(395,342,o),
(375,342,cs),
(360,342,o),
(350,347,o),
(321,364,c),
(286,387,o),
(253,402,o),
(209,402,cs),
(133,402,o),
(66,363,o),
(37,275,c),
(165,229,l),
(168,240,o),
(173,249,o),
(181,256,cs),
(188,263,o),
(198,266,o),
(209,266,cs),
(217,266,o),
(230,261,o),
(249,250,c),
(289,223,o),
(334,202,o),
(391,209,cs)
);
}
);
width = 546;
},
{
layerId = "B882EE25-4F70-487C-AAE1-5981B86ECF6B";
shapes = (
{
closed = 1;
nodes = (
(420,241,o),
(455,253,o),
(485,283,cs),
(500,298,o),
(510,317,o),
(517,340,c),
(444,361,l),
(433,324,o),
(416,317,o),
(385,313,cs),
(358,310,o),
(338,319,o),
(306,339,cs),
(273,360,o),
(244,374,o),
(205,374,cs),
(142,374,o),
(82,340,o),
(58,273,c),
(129,247,l),
(134,261,o),
(146,273,o),
(163,283,cs),
(180,293,o),
(194,298,o),
(205,298,cs),
(221,298,o),
(241,290,o),
(265,275,cs),
(308,248,o),
(344,231,o),
(393,238,c)
);
}
);
width = 520;
},
{
layerId = "DF327079-0489-4E1B-B65C-406769ADC3EE";
shapes = (
{
closed = 1;
nodes = (
(410,260,o),
(439,271,o),
(464,296,cs),
(476,309,o),
(485,325,o),
(490,345,c),
(453,355,l),
(441,311,o),
(413,298,o),
(378,294,cs),
(346,290,o),
(322,302,o),
(287,323,c),
(256,343,o),
(229,355,o),
(196,355,cs),
(144,355,o),
(87,322,o),
(66,266,c),
(102,253,l),
(109,272,o),
(122,287,o),
(142,299,cs),
(162,311,o),
(180,317,o),
(196,317,cs),
(217,317,o),
(240,308,o),
(267,291,cs),
(306,267,o),
(338,252,o),
(383,257,cs)
);
}
);
width = 480;
}
);
unicode = 126;
},
{
glyphname = exclamdown;
layers = (
{
layerId = "8644C546-E7FE-4718-8D12-21E7933BC7CE";
shapes = (
{
closed = 1;
nodes = (
(222,-230,l),
(202,266,l),
(70,266,l),
(52,-230,l)
);
},
{
closed = 1;
nodes = (
(84,516,o),
(47,480,o),
(47,431,cs),
(47,382,o),
(84,345,o),
(135,345,cs),
(183,345,o),
(219,382,o),
(219,431,cs),
(219,480,o),
(183,516,o),
(135,516,cs)
);
}
);
width = 268;
},
{
layerId = "B882EE25-4F70-487C-AAE1-5981B86ECF6B";
shapes = (
{
closed = 1;
nodes = (
(161,-230,l),
(148,289,l),
(82,289,l),
(71,-230,l)
);
},
{
closed = 1;
nodes = (
(82,513,o),
(58,490,o),
(58,459,cs),
(58,428,o),
(82,406,o),
(114,406,cs),
(144,406,o),
(166,429,o),
(166,459,cs),
(166,491,o),
(144,513,o),
(114,513,cs)
);
}
);
width = 224;
},
{
layerId = "DF327079-0489-4E1B-B65C-406769ADC3EE";
shapes = (
{
closed = 1;
nodes = (
(116,-230,l),
(108,302,l),
(82,302,l),
(75,-230,l)
);
},
{
closed = 1;
nodes = (
(73,510,o),
(57,495,o),
(57,475,cs),
(57,455,o),
(73,441,o),
(93,441,cs),
(113,441,o),
(127,456,o),
(127,475,cs),
(127,496,o),
(113,510,o),
(93,510,cs)
);
}
);
width = 184;
}
);
rightKerningGroup = comma;
unicode = 161;
},
{
glyphname = cent;
layers = (
{
layerId = "8644C546-E7FE-4718-8D12-21E7933BC7CE";
shapes = (
{
closed = 1;
nodes = (
(368,55,o),
(446,83,o),
(498,134,c),
(437,245,l),
(386,213,o),
(347,200,o),
(312,199,cs),
(277,198,o),
(250,209,o),
(230,232,cs),
(210,254,o),
(200,284,o),
(199,321,c),
(199,369,o),
(215,408,o),
(246,429,cs),
(261,439,o),
(279,444,o),
(300,444,cs),
(337,444,o),
(364,426,o),
(384,402,c),
(484,500,l),
(465,527,o),
(438,548,o),
(403,564,cs),
(368,579,o),
(330,587,o),
(289,587,cs),
(193,587,o),
(113,540,o),
(70,460,cs),
(49,419,o),
(38,373,o),
(38,321,cs),
(38,218,o),
(82,134,o),
(158,89,cs),
(196,66,o),
(239,55,o),
(287,55,cs)
);
},
{
closed = 1;
nodes = (
(234,740,l),
(234,-80,l),
(362,-80,l),
(362,740,l)
);
}
);
width = 535;
},
{
layerId = "B882EE25-4F70-487C-AAE1-5981B86ECF6B";
shapes = (
{
closed = 1;
nodes = (
(344,60,o),
(408,81,o),
(463,120,c),
(429,180,l),
(378,148,o),
(334,135,o),
(282,134,cs),
(229,133,o),
(187,150,o),
(156,183,cs),
(125,216,o),
(109,260,o),
(109,317,cs),
(109,396,o),
(139,457,o),
(192,489,cs),
(218,504,o),
(249,512,o),
(285,512,cs),
(333,512,o),
(365,500,o),
(398,465,c),
(447,516,l),
(433,536,o),
(411,553,o),
(380,566,cs),
(349,579,o),
(318,586,o),
(285,586,cs),
(185,586,o),
(105,539,o),
(62,459,cs),
(40,418,o),
(29,372,o),
(29,320,cs),
(29,217,o),
(72,136,o),
(147,93,cs),
(184,71,o),
(228,60,o),
(277,60,cs)
);
},
{
closed = 1;
nodes = (
(228,745,l),
(228,-73,l),
(310,-73,l),
(310,745,l)
);
}
);
width = 510;
},
{
layerId = "DF327079-0489-4E1B-B65C-406769ADC3EE";
shapes = (
{
closed = 1;
nodes = (
(352,63,o),
(415,84,o),
(463,121,c),
(447,149,l),
(407,118,o),
(350,98,o),
(299,97,cs),
(234,96,o),
(182,116,o),
(144,155,cs),
(106,194,o),
(87,246,o),
(87,313,cs),
(87,405,o),
(123,479,o),
(187,519,cs),
(218,539,o),
(255,549,o),
(297,549,cs),
(346,549,o),
(386,532,o),
(421,497,c),
(445,522,l),
(424,543,o),
(401,558,o),
(376,568,cs),
(351,578,o),
(324,583,o),
(293,583,cs),
(202,583,o),
(124,536,o),
(81,455,cs),
(60,414,o),
(49,367,o),
(49,313,cs),
(49,209,o),
(89,133,o),
(162,93,cs),
(198,73,o),
(241,63,o),
(291,63,cs)
);
},
{
closed = 1;
nodes = (
(249,747,l),
(249,-75,l),
(287,-75,l),
(287,747,l)
);
}
);
width = 510;
}
);
leftKerningGroup = c2;
rightKerningGroup = cent;
unicode = 162;
},
{
glyphname = sterling;
layers = (
{
layerId = "8644C546-E7FE-4718-8D12-21E7933BC7CE";
shapes = (
{
closed = 1;
nodes = (
(150,-43,l),
(183,9,o),
(207,59,o),
(222,107,cs),
(237,155,o),
(243,205,o),
(242,256,cs),
(241,300,o),
(234,330,o),
(223,369,c),
(218,392,o),
(212,415,o),
(212,434,cs),
(212,463,o),
(231,494,o),
(264,511,cs),
(280,520,o),
(298,524,o),
(319,524,cs),
(366,524,o),
(401,507,o),
(414,479,c),
(548,543,l),
(529,582,o),
(498,614,o),
(456,637,cs),
(413,660,o),
(367,672,o),
(316,672,cs),
(217,672,o),
(131,626,o),
(83,548,cs),
(59,509,o),
(47,465,o),
(47,416,cs),
(47,385,o),
(51,367,o),
(60,336,c),
(71,304,o),
(77,274,o),
(78,229,cs),
(79,199,o),
(76,172,o),
(67,148,cs),
(58,123,o),
(39,88,o),
(8,41,c)
);
},
{
closed = 1;
nodes = (
(451,-39,o),
(522,-17,o),
(571,26,c),
(475,138,l),
(468,130,o),
(456,123,o),
(440,118,cs),
(424,112,o),
(409,109,o),
(394,109,cs),
(371,109,o),
(356,115,o),
(319,130,cs),
(264,153,o),
(220,166,o),
(151,165,c),
(154,30,l),
(173,30,o),
(194,21,o),
(230,5,cs),
(291,-23,o),
(334,-39,o),
(390,-39,cs)
);
},
{
closed = 1;
nodes = (
(-36,375,l),
(-36,237,l),
(339,237,l),
(339,375,l)
);
}
);
width = 573;
},
{
layerId = "B882EE25-4F70-487C-AAE1-5981B86ECF6B";
shapes = (
{
closed = 1;
nodes = (
(91,-12,l),
(120,37,o),
(141,83,o),
(152,126,cs),
(163,169,o),
(167,221,o),
(166,282,cs),
(165,325,o),
(159,356,o),
(147,404,cs),
(142,427,o),
(137,449,o),
(137,464,cs),
(137,509,o),
(168,550,o),
(214,573,cs),
(237,584,o),
(261,590,o),
(288,590,cs),
(351,590,o),
(399,565,o),
(420,524,c),
(488,558,l),
(471,592,o),
(445,619,o),
(410,638,cs),
(375,657,o),
(334,666,o),
(288,666,cs),
(188,666,o),
(117,622,o),
(83,560,cs),
(66,529,o),
(57,497,o),
(57,464,cs),
(57,432,o),
(63,407,o),
(72,368,cs),
(79,340,o),
(85,308,o),
(86,280,cs),
(87,223,o),
(84,178,o),
(76,147,cs),
(68,115,o),
(50,76,o),
(23,30,c)
);
},
{
closed = 1;
nodes = (
(410,-18,o),
(468,3,o),
(507,39,c),
(455,95,l),
(445,86,o),
(429,77,o),
(408,70,cs),
(387,62,o),
(368,58,o),
(351,58,cs),
(327,58,o),
(305,64,o),
(258,79,cs),
(197,99,o),
(152,109,o),
(103,108,c),
(105,32,l),
(132,33,o),
(157,26,o),
(209,10,cs),
(273,-9,o),
(307,-18,o),
(351,-18,cs)
);
},
{
closed = 1;
nodes = (
(0,347,l),
(0,273,l),
(313,273,l),
(313,347,l)
);
}
);
width = 516;
},
{
layerId = "DF327079-0489-4E1B-B65C-406769ADC3EE";
shapes = (
{
closed = 1;
nodes = (
(60,-4,l),
(90,46,o),
(110,91,o),
(120,132,cs),
(130,172,o),
(134,222,o),
(133,282,cs),
(132,319,o),
(126,350,o),
(115,393,cs),
(108,420,o),
(103,446,o),
(103,465,cs),
(103,526,o),
(134,575,o),
(187,602,cs),
(214,615,o),
(244,622,o),
(278,622,cs),
(359,622,o),
(402,596,o),
(429,536,c),
(461,550,l),
(446,585,o),
(422,612,o),
(391,631,cs),
(360,649,o),
(322,658,o),
(278,658,cs),
(189,658,o),
(122,617,o),
(90,558,cs),
(73,528,o),
(65,497,o),
(65,465,cs),
(65,438,o),
(72,409,o),
(79,381,cs),
(90,336,o),
(94,315,o),
(95,280,cs),
(97,224,o),
(93,177,o),
(84,140,cs),
(74,103,o),
(55,61,o),
(27,15,c)
);
},
{
closed = 1;
nodes = (
(394,0,o),
(451,19,o),
(484,51,c),
(462,76,l),
(449,64,o),
(431,54,o),
(408,46,cs),
(384,37,o),
(362,33,o),
(342,33,cs),
(313,33,o),
(282,41,o),
(233,56,cs),
(166,76,o),
(129,84,o),
(85,83,c),
(87,50,l),
(120,51,o),
(149,45,o),
(210,26,cs),
(266,9,o),
(303,0,o),
(342,0,cs)
);
},
{
closed = 1;
nodes = (
(13,335,l),
(13,299,l),
(290,299,l),
(290,335,l)
);
}
);
width = 505;
}
);
unicode = 163;
},
{
glyphname = currency;
layers = (
{
layerId = "8644C546-E7FE-4718-8D12-21E7933BC7CE";
shapes = (
{
closed = 1;
nodes = (
(437,45,o),
(515,89,o),
(558,166,cs),
(579,204,o),
(590,248,o),
(590,298,cs),
(590,398,o),
(545,478,o),
(469,522,cs),
(431,543,o),
(387,554,o),
(338,554,cs),
(239,554,o),
(161,509,o),
(118,433,cs),
(97,394,o),
(86,350,o),
(86,301,cs),
(86,201,o),
(131,121,o),
(207,78,cs),
(245,56,o),
(289,45,o),
(338,45,cs)
);
},
{
closed = 1;
nodes = (
(17,82,l),
(132,-34,l),
(243,77,l),
(120,185,l)
);
},
{
closed = 1;
nodes = (
(434,75,l),
(547,-34,l),
(661,82,l),
(556,187,l)
);
},
{
closed = 1;
nodes = (
(306,204,o),
(280,221,o),
(265,250,cs),
(258,264,o),
(254,280,o),
(254,298,cs),
(254,335,o),
(270,366,o),
(295,383,cs),
(308,391,o),
(322,395,o),
(339,395,cs),
(372,395,o),
(398,378,o),
(413,350,c),
(420,335,o),
(424,319,o),
(424,300,cs),
(424,263,o),
(408,233,o),
(383,217,cs),
(370,208,o),
(356,204,o),
(339,204,cs)
);
},
{
closed = 1;
nodes = (
(17,518,l),
(121,413,l),
(244,522,l),
(132,634,l)
);
},
{
closed = 1;
nodes = (
(435,522,l),
(557,413,l),
(661,518,l),
(547,634,l)
);
}
);
width = 678;
},
{
layerId = "B882EE25-4F70-487C-AAE1-5981B86ECF6B";
shapes = (
{
closed = 1;
nodes = (
(414,53,o),
(487,95,o),
(527,167,cs),
(546,202,o),
(556,243,o),
(556,290,cs),
(556,382,o),
(515,457,o),
(444,497,cs),
(409,517,o),
(368,527,o),
(323,527,cs),
(232,527,o),
(160,485,o),
(121,414,cs),
(101,378,o),
(91,337,o),
(91,290,cs),
(91,197,o),
(133,123,o),
(203,83,cs),
(238,63,o),
(278,53,o),
(323,53,cs)
);
},
{
closed = 1;
nodes = (
(33,43,l),
(90,-15,l),
(205,100,l),
(144,154,l)
);
},
{
closed = 1;
nodes = (
(442,102,l),
(559,-15,l),
(616,43,l),
(503,156,l)
);
},
{
closed = 1;
nodes = (
(265,127,o),
(218,156,o),
(193,205,cs),
(180,230,o),
(174,258,o),
(174,290,cs),
(174,354,o),
(201,405,o),
(246,433,c),
(269,446,o),
(295,453,o),
(324,453,cs),
(383,453,o),
(431,424,o),
(456,376,cs),
(469,351,o),
(475,323,o),
(475,292,cs),
(475,228,o),
(449,176,o),
(403,148,cs),
(380,134,o),
(353,127,o),
(324,127,cs)
);
},
{
closed = 1;
nodes = (
(33,537,l),
(145,424,l),
(206,479,l),
(90,595,l)
);
},
{
closed = 1;
nodes = (
(443,479,l),
(504,424,l),
(616,537,l),
(559,595,l)
);
}
);
width = 648;
},
{
layerId = "DF327079-0489-4E1B-B65C-406769ADC3EE";
shapes = (
{
closed = 1;
nodes = (
(408,57,o),
(479,98,o),
(517,168,cs),
(536,203,o),
(545,243,o),
(545,288,cs),
(545,377,o),
(505,449,o),
(437,488,cs),
(403,507,o),
(364,517,o),
(321,517,cs),
(233,517,o),
(162,477,o),
(124,407,cs),
(105,372,o),
(95,332,o),
(95,287,cs),
(95,198,o),
(135,126,o),
(204,87,cs),
(238,67,o),
(277,57,o),
(321,57,cs)
);
},
{
closed = 1;
nodes = (
(43,27,l),
(74,-5,l),
(189,110,l),
(156,138,l)
);
},
{
closed = 1;
nodes = (
(451,112,l),
(568,-5,l),
(599,27,l),
(485,142,l)
);
},
{
closed = 1;
nodes = (
(251,94,o),
(195,128,o),
(165,187,cs),
(150,216,o),
(142,250,o),
(142,288,cs),
(142,363,o),
(173,423,o),
(228,456,cs),
(255,472,o),
(287,480,o),
(322,480,cs),
(391,480,o),
(447,446,o),
(478,389,cs),
(493,360,o),
(501,327,o),
(501,290,cs),
(501,214,o),
(469,152,o),
(415,119,cs),
(388,102,o),
(357,94,o),
(322,94,cs)
);
},
{
closed = 1;
nodes = (
(43,548,l),
(157,433,l),
(190,463,l),
(74,580,l)
);
},
{
closed = 1;
nodes = (
(452,463,l),
(486,433,l),
(599,548,l),
(568,580,l)
);
}
);
width = 641;
}
);
unicode = 164;
},
{
glyphname = yen;
layers = (
{
layerId = "8644C546-E7FE-4718-8D12-21E7933BC7CE";
shapes = (
{
closed = 1;
nodes = (
(199,271,l),
(200,0,l),
(365,0,l),
(364,273,l),
(563,636,l),
(364,636,l),
(285,465,l),
(277,424,l),
(269,465,l),
(199,636,l),
(-7,636,l)
);
},
{
closed = 1;
nodes = (
(71,237,l),
(71,115,l),
(495,115,l),
(495,237,l)
);
},
{
closed = 1;
nodes = (
(71,383,l),
(71,259,l),
(495,259,l),
(495,383,l)
);
}
);
width = 556;
},
{
layerId = "B882EE25-4F70-487C-AAE1-5981B86ECF6B";
shapes = (
{
closed = 1;
nodes = (
(196,275,l),
(198,0,l),
(279,0,l),
(278,277,l),
(482,636,l),
(388,636,l),
(253,394,l),
(236,348,l),
(220,394,l),
(101,636,l),
(9,636,l)
);
},
{
closed = 1;
nodes = (
(49,220,l),
(49,146,l),
(425,146,l),
(425,220,l)
);
},
{
closed = 1;
nodes = (
(49,345,l),
(49,271,l),
(425,271,l),
(425,345,l)
);
}
);
width = 491;
},
{
layerId = "DF327079-0489-4E1B-B65C-406769ADC3EE";
shapes = (
{
closed = 1;
nodes = (
(223,280,l),
(223,1,l),
(261,1,l),
(259,281,l),
(462,636,l),
(419,636,l),
(254,344,l),
(243,318,l),
(230,344,l),
(64,636,l),
(23,636,l)
);
},
{
closed = 1;
nodes = (
(72,194,l),
(72,158,l),
(405,158,l),
(405,194,l)
);
},
{
closed = 1;
nodes = (
(72,319,l),
(72,283,l),
(405,283,l),
(405,319,l)
);
}
);
width = 485;
}
);
unicode = 165;
},
{
glyphname = brokenbar;
layers = (
{
layerId = "8644C546-E7FE-4718-8D12-21E7933BC7CE";
shapes = (
{
closed = 1;
nodes = (
(71,750,l),
(71,373,l),
(232,373,l),
(232,750,l)
);
},
{
closed = 1;
nodes = (
(71,317,l),
(71,-60,l),
(232,-60,l),
(232,317,l)
);
}
);
width = 303;
},
{
layerId = "B882EE25-4F70-487C-AAE1-5981B86ECF6B";
shapes = (
{
closed = 1;
nodes = (
(86,750,l),
(86,368,l),
(168,368,l),
(168,750,l)
);
},
{
closed = 1;
nodes = (
(86,314,l),
(86,-68,l),
(168,-68,l),
(168,314,l)
);
}
);
width = 254;
},
{
layerId = "DF327079-0489-4E1B-B65C-406769ADC3EE";
shapes = (
{
closed = 1;
nodes = (
(88,752,l),
(88,391,l),
(132,391,l),
(132,752,l)
);
},
{
closed = 1;
nodes = (
(88,291,l),
(88,-70,l),
(132,-70,l),
(132,291,l)
);
}
);
width = 220;
}
);
unicode = 166;
},
{
glyphname = section;
layers = (
{
layerId = "8644C546-E7FE-4718-8D12-21E7933BC7CE";
shapes = (
{
closed = 1;
nodes = (
(202,113,l),
(277,110,o),
(341,142,o),
(378,195,cs),
(397,221,o),
(406,251,o),
(407,284,cs),
(410,349,o),
(360,421,o),
(281,465,cs),
(268,472,ls),
(241,487,o),
(225,498,o),
(218,507,cs),
(214,512,o),
(212,516,o),
(212,521,cs),
(212,534,o),
(226,544,o),
(246,543,cs),
(265,542,o),
(285,535,o),
(293,527,c),
(406,609,l),
(374,658,o),
(317,688,o),
(252,691,cs),
(179,694,o),
(114,664,o),
(77,612,cs),
(58,586,o),
(48,557,o),
(47,524,c),
(44,475,o),
(54,445,o),
(86,415,cs),
(101,400,o),
(124,383,o),
(155,365,cs),
(174,355,o),
(192,345,o),
(210,335,cs),
(234,322,o),
(242,309,o),
(242,289,cs),
(242,278,o),
(239,268,o),
(232,259,cs),
(225,250,o),
(217,245,o),
(208,246,c)
);
},
{
closed = 1;
nodes = (
(267,-116,o),
(333,-86,o),
(370,-34,cs),
(388,-8,o),
(398,21,o),
(399,54,c),
(402,102,o),
(392,132,o),
(362,161,cs),
(347,176,o),
(324,192,o),
(295,210,cs),
(273,223,o),
(253,234,o),
(236,243,cs),
(224,250,o),
(216,257,o),
(211,264,cs),
(206,271,o),
(204,279,o),
(204,289,cs),
(204,300,o),
(207,310,o),
(214,320,cs),
(221,329,o),
(229,334,o),
(238,333,c),
(244,465,l),
(171,468,o),
(105,436,o),
(69,384,cs),
(50,357,o),
(40,328,o),
(39,295,cs),
(36,223,o),
(81,160,o),
(165,113,cs),
(183,103,o),
(197,95,o),
(207,89,c),
(216,82,o),
(223,77,o),
(227,72,cs),
(231,67,o),
(233,61,o),
(234,56,cs),
(235,44,o),
(221,35,o),
(200,35,cs),
(183,35,o),
(164,40,o),
(153,51,c),
(40,-31,l),
(80,-82,o),
(131,-110,o),
(194,-113,cs)
);
}
);
width = 445;
},
{
layerId = "B882EE25-4F70-487C-AAE1-5981B86ECF6B";
shapes = (
{
closed = 1;
nodes = (
(182,133,l),
(254,130,o),
(306,152,o),
(335,199,cs),
(349,222,o),
(356,251,o),
(357,285,cs),
(360,348,o),
(317,410,o),
(248,447,cs),
(230,457,ls),
(186,481,o),
(163,494,o),
(150,514,c),
(143,523,o),
(140,534,o),
(140,546,c),
(141,591,o),
(171,618,o),
(220,615,c),
(255,614,o),
(280,597,o),
(295,577,c),
(356,621,l),
(333,664,o),
(281,688,o),
(224,691,cs),
(159,694,o),
(109,671,o),
(82,627,cs),
(68,605,o),
(61,579,o),
(60,548,cs),
(59,489,o),
(86,451,o),
(119,428,cs),
(136,416,o),
(157,404,o),
(183,391,cs),
(198,384,o),
(207,379,o),
(210,377,cs),
(247,356,o),
(278,326,o),
(277,287,cs),
(276,260,o),
(267,239,o),
(251,224,cs),
(234,208,o),
(213,200,o),
(186,201,c)
);
},
{
closed = 1;
nodes = (
(248,-116,o),
(299,-92,o),
(327,-48,cs),
(341,-25,o),
(348,1,o),
(348,30,cs),
(348,91,o),
(320,131,o),
(288,153,cs),
(271,164,o),
(250,175,o),
(225,187,cs),
(210,195,o),
(201,200,o),
(198,201,cs),
(175,214,o),
(158,228,o),
(147,242,cs),
(136,256,o),
(130,272,o),
(131,291,cs),
(132,318,o),
(141,339,o),
(158,355,cs),
(174,370,o),
(195,378,o),
(222,377,c),
(226,446,l),
(166,449,o),
(110,426,o),
(77,379,cs),
(60,355,o),
(52,326,o),
(51,293,cs),
(50,228,o),
(92,168,o),
(160,131,cs),
(187,116,o),
(207,104,o),
(222,95,cs),
(237,85,o),
(248,75,o),
(256,65,cs),
(264,54,o),
(268,43,o),
(268,32,c),
(267,-13,o),
(237,-40,o),
(188,-37,c),
(156,-36,o),
(126,-18,o),
(113,1,c),
(52,-43,l),
(76,-88,o),
(125,-110,o),
(184,-113,cs)
);
}
);
width = 408;
},
{
layerId = "DF327079-0489-4E1B-B65C-406769ADC3EE";
shapes = (
{
closed = 1;
nodes = (
(169,145,l),
(221,144,o),
(271,168,o),
(300,211,cs),
(314,232,o),
(321,256,o),
(322,281,cs),
(323,340,o),
(291,387,o),
(224,424,cs),
(205,434,ls),
(156,461,o),
(133,475,o),
(117,499,cs),
(108,511,o),
(104,525,o),
(105,542,cs),
(108,597,o),
(147,634,o),
(207,631,cs),
(247,630,o),
(282,612,o),
(299,585,c),
(327,605,l),
(304,642,o),
(260,664,o),
(209,667,c),
(157,668,o),
(112,649,o),
(87,611,cs),
(74,592,o),
(68,569,o),
(67,544,cs),
(66,496,o),
(89,463,o),
(118,443,cs),
(133,433,o),
(152,422,o),
(177,409,cs),
(187,404,o),
(197,399,o),
(206,394,cs),
(267,359,o),
(287,332,o),
(284,283,c),
(283,253,o),
(271,228,o),
(249,208,cs),
(227,187,o),
(201,178,o),
(171,179,c)
);
},
{
closed = 1;
nodes = (
(222,-96,o),
(267,-76,o),
(293,-38,cs),
(306,-19,o),
(312,3,o),
(313,28,cs),
(314,77,o),
(294,108,o),
(266,128,c),
(251,137,o),
(232,148,o),
(207,160,c),
(195,167,o),
(183,173,o),
(170,180,cs),
(138,198,o),
(118,215,o),
(109,231,cs),
(100,246,o),
(95,266,o),
(96,289,cs),
(97,319,o),
(109,344,o),
(131,365,cs),
(153,385,o),
(179,394,o),
(209,393,c),
(211,427,l),
(159,428,o),
(109,404,o),
(81,361,c),
(66,340,o),
(59,316,o),
(58,291,cs),
(55,235,o),
(88,187,o),
(156,148,cs),
(189,129,o),
(213,116,o),
(227,108,c),
(240,99,o),
(252,89,o),
(262,76,cs),
(271,63,o),
(276,47,o),
(275,30,cs),
(272,-25,o),
(232,-62,o),
(172,-59,cs),
(133,-58,o),
(98,-40,o),
(81,-13,c),
(53,-33,l),
(76,-70,o),
(121,-92,o),
(170,-95,c)
);
}
);
width = 379;
}
);
unicode = 167;
},
{
glyphname = dieresis;
layers = (
{
layerId = "8644C546-E7FE-4718-8D12-21E7933BC7CE";
shapes = (
{
closed = 1;
nodes = (
(81,552,o),
(45,588,o),
(45,637,cs),
(45,686,o),
(81,723,o),
(129,723,cs),
(180,723,o),
(217,686,o),
(217,637,cs),
(217,588,o),
(180,552,o),
(129,552,cs)
);
},
{
closed = 1;
nodes = (
(321,552,o),
(285,588,o),
(285,637,cs),
(285,686,o),
(321,723,o),
(369,723,cs),
(420,723,o),
(457,686,o),
(457,637,cs),
(457,588,o),
(420,552,o),
(369,552,cs)
);
}
);
width = 502;
},
{
layerId = "B882EE25-4F70-487C-AAE1-5981B86ECF6B";
shapes = (
{
closed = 1;
nodes = (
(85,544,o),
(63,567,o),
(63,596,cs),
(63,627,o),
(85,649,o),
(116,649,cs),
(145,649,o),
(168,627,o),
(168,596,cs),
(168,567,o),
(145,544,o),
(116,544,cs)
);
},
{
closed = 1;
nodes = (
(290,544,o),
(268,567,o),
(268,596,cs),
(268,627,o),
(290,649,o),
(321,649,cs),
(350,649,o),
(373,627,o),
(373,596,cs),
(373,567,o),
(350,544,o),
(321,544,cs)
);
}
);
width = 436;
},
{
layerId = "DF327079-0489-4E1B-B65C-406769ADC3EE";
shapes = (
{
closed = 1;
nodes = (
(86,562,o),
(72,576,o),
(72,597,cs),
(72,616,o),
(86,631,o),
(106,631,cs),
(126,631,o),
(142,617,o),
(142,597,cs),
(142,577,o),
(126,562,o),
(106,562,cs)
);
},
{
closed = 1;
nodes = (
(288,562,o),
(274,576,o),
(274,597,cs),
(274,616,o),
(288,631,o),
(308,631,cs),
(328,631,o),
(344,617,o),
(344,597,cs),
(344,577,o),
(328,562,o),
(308,562,cs)
);
}
);
width = 416;
}
);
leftKerningGroup = comma2;
rightKerningGroup = comma;
unicode = 168;
},
{
glyphname = copyright;
layers = (
{
layerId = "8644C546-E7FE-4718-8D12-21E7933BC7CE";
shapes = (
{
closed = 1;
nodes = (
(459,157,o),
(518,186,o),
(551,242,c),
(437,313,l),
(432,304,o),
(415,297,o),
(396,297,cs),
(383,297,o),
(372,302,o),
(364,313,cs),
(356,324,o),
(352,338,o),
(352,355,cs),
(352,379,o),
(358,397,o),
(370,406,cs),
(375,410,o),
(382,412,o),
(389,412,cs),
(410,412,o),
(423,405,o),
(427,394,c),
(550,444,l),
(539,475,o),
(519,500,o),
(489,521,cs),
(459,542,o),
(425,552,o),
(388,552,cs),
(319,552,o),
(256,516,o),
(221,455,cs),
(203,424,o),
(194,389,o),
(194,349,cs),
(194,273,o),
(235,213,o),
(296,181,cs),
(327,165,o),
(360,157,o),
(395,157,cs)
);
},
{
closed = 1;
nodes = (
(526,-11,o),
(643,56,o),
(707,166,cs),
(739,221,o),
(755,282,o),
(755,350,cs),
(755,486,o),
(688,603,o),
(577,667,cs),
(521,698,o),
(459,714,o),
(391,714,cs),
(254,714,o),
(137,646,o),
(74,535,cs),
(42,479,o),
(26,417,o),
(26,348,cs),
(26,213,o),
(94,99,o),
(204,36,cs),
(259,5,o),
(320,-11,o),
(389,-11,cs)
);
},
{
closed = 1;
nodes = (
(298,105,o),
(222,149,o),
(181,224,cs),
(160,261,o),
(150,303,o),
(150,350,cs),
(150,443,o),
(194,522,o),
(267,566,c),
(304,587,o),
(345,598,o),
(391,598,cs),
(480,598,o),
(556,553,o),
(597,478,cs),
(617,441,o),
(627,399,o),
(627,353,cs),
(627,258,o),
(584,180,o),
(512,137,cs),
(476,116,o),
(435,105,o),
(390,105,cs)
);
}
);
width = 781;
},
{
layerId = "B882EE25-4F70-487C-AAE1-5981B86ECF6B";
shapes = (
{
closed = 1;
nodes = (
(463,151,o),
(520,179,o),
(552,231,c),
(490,268,l),
(473,240,o),
(438,223,o),
(397,223,cs),
(361,223,o),
(332,234,o),
(310,257,cs),
(288,280,o),
(277,310,o),
(277,348,cs),
(277,399,o),
(299,441,o),
(336,465,c),
(355,476,o),
(376,482,o),
(401,482,cs),
(442,482,o),
(471,464,o),
(483,431,c),
(551,455,l),
(541,484,o),
(522,507,o),
(493,526,cs),
(464,545,o),
(431,554,o),
(393,554,cs),
(322,554,o),
(259,519,o),
(224,457,cs),
(206,426,o),
(197,390,o),
(197,351,cs),
(197,272,o),
(236,209,o),
(297,176,cs),
(327,159,o),
(360,151,o),
(396,151,cs)
);
},
{
closed = 1;
nodes = (
(525,-10,o),
(639,57,o),
(702,166,cs),
(733,221,o),
(749,282,o),
(749,349,cs),
(749,484,o),
(683,598,o),
(575,660,cs),
(521,691,o),
(461,706,o),
(394,706,cs),
(259,706,o),
(146,639,o),
(84,530,cs),
(53,475,o),
(37,414,o),
(37,347,cs),
(37,212,o),
(103,99,o),
(211,37,cs),
(265,6,o),
(325,-10,o),
(392,-10,cs)
);
},
{
closed = 1;
nodes = (
(284,60,o),
(196,111,o),
(149,199,cs),
(125,243,o),
(113,293,o),
(113,349,cs),
(113,460,o),
(164,551,o),
(249,599,cs),
(291,623,o),
(339,635,o),
(394,635,cs),
(502,635,o),
(590,584,o),
(637,499,cs),
(660,456,o),
(672,407,o),
(672,352,cs),
(672,237,o),
(622,146,o),
(538,97,cs),
(496,72,o),
(448,60,o),
(393,60,cs)
);
}
);
width = 786;
},
{
layerId = "DF327079-0489-4E1B-B65C-406769ADC3EE";
shapes = (
{
closed = 1;
nodes = (
(458,145,o),
(515,173,o),
(546,222,c),
(516,240,l),
(493,201,o),
(449,180,o),
(394,180,cs),
(349,180,o),
(311,195,o),
(282,225,c),
(252,254,o),
(237,293,o),
(237,341,cs),
(237,405,o),
(266,459,o),
(314,488,cs),
(338,503,o),
(365,510,o),
(394,510,cs),
(455,510,o),
(496,479,o),
(511,439,c),
(543,449,l),
(534,477,o),
(516,500,o),
(489,518,cs),
(462,535,o),
(429,544,o),
(392,544,cs),
(321,544,o),
(261,507,o),
(227,446,cs),
(210,415,o),
(201,381,o),
(201,342,cs),
(201,263,o),
(237,202,o),
(296,170,c),
(325,153,o),
(358,145,o),
(393,145,cs)
);
},
{
closed = 1;
nodes = (
(519,-6,o),
(628,58,o),
(688,163,cs),
(718,216,o),
(733,274,o),
(733,339,cs),
(733,468,o),
(670,577,o),
(566,637,cs),
(514,667,o),
(456,682,o),
(392,682,cs),
(263,682,o),
(153,618,o),
(93,513,cs),
(63,460,o),
(48,402,o),
(48,337,cs),
(48,208,o),
(111,99,o),
(216,39,cs),
(268,9,o),
(326,-6,o),
(390,-6,cs)
);
},
{
closed = 1;
nodes = (
(278,25,o),
(179,83,o),
(126,179,cs),
(99,227,o),
(86,280,o),
(86,339,cs),
(86,456,o),
(143,556,o),
(236,610,cs),
(283,637,o),
(335,650,o),
(392,650,cs),
(505,650,o),
(602,594,o),
(655,500,cs),
(681,453,o),
(694,400,o),
(694,342,cs),
(694,223,o),
(638,122,o),
(546,67,cs),
(499,39,o),
(448,25,o),
(391,25,cs)
);
}
);
width = 781;
}
);
unicode = 169;
},
{
glyphname = ordfeminine;
layers = (
{
layerId = "8644C546-E7FE-4718-8D12-21E7933BC7CE";
shapes = (
{
closed = 1;
nodes = (
(375,437,l),
(360,437,o),
(351,443,o),
(351,454,cs),
(351,573,ls),
(351,654,o),
(298,700,o),
(203,700,cs),
(146,700,o),
(71,679,o),
(26,641,c),
(76,573,l),
(100,584,o),
(145,592,o),
(175,592,cs),
(206,592,o),
(228,584,o),
(228,570,cs),
(228,561,l),
(209,563,o),
(190,565,o),
(171,565,cs),
(90,565,o),
(17,530,o),
(17,445,cs),
(17,373,o),
(82,329,o),
(153,329,cs),
(202,329,o),
(246,366,o),
(263,405,c),
(242,405,l),
(242,398,ls),
(242,358,o),
(286,336,o),
(368,336,c)
);
},
{
closed = 1;
nodes = (
(158,433,o),
(133,436,o),
(133,455,cs),
(133,473,o),
(160,477,o),
(185,477,cs),
(203,477,o),
(220,475,o),
(228,474,c),
(228,464,ls),
(228,443,o),
(199,433,o),
(172,433,cs)
);
}
);
width = 398;
},
{
layerId = "B882EE25-4F70-487C-AAE1-5981B86ECF6B";
shapes = (
{
closed = 1;
nodes = (
(338,405,l),
(320,405,o),
(310,413,o),
(310,427,cs),
(310,590,ls),
(310,658,o),
(264,697,o),
(186,697,cs),
(134,697,o),
(74,679,o),
(32,646,c),
(59,608,l),
(90,628,o),
(140,641,o),
(179,641,cs),
(226,641,o),
(248,621,o),
(248,580,cs),
(248,565,l),
(217,567,o),
(195,568,o),
(181,568,cs),
(104,568,o),
(24,544,o),
(24,455,cs),
(24,389,o),
(72,345,o),
(138,345,cs),
(191,345,o),
(245,379,o),
(265,432,c),
(250,432,l),
(250,427,ls),
(250,375,o),
(280,347,o),
(335,347,c)
);
},
{
closed = 1;
nodes = (
(109,401,o),
(82,429,o),
(82,457,cs),
(82,486,o),
(110,515,o),
(176,515,cs),
(180,515,o),
(246,514,o),
(248,513,c),
(248,475,ls),
(248,429,o),
(197,401,o),
(151,401,cs)
);
}
);
width = 363;
},
{
layerId = "DF327079-0489-4E1B-B65C-406769ADC3EE";
shapes = (
{
closed = 1;
nodes = (
(329,372,l),
(310,372,o),
(299,383,o),
(299,404,cs),
(299,592,ls),
(299,657,o),
(255,694,o),
(179,694,cs),
(128,694,o),
(79,677,o),
(36,649,c),
(50,630,l),
(86,653,o),
(133,667,o),
(175,667,cs),
(240,667,o),
(270,639,o),
(270,586,cs),
(270,553,l),
(233,555,o),
(202,556,o),
(174,556,cs),
(105,556,o),
(28,534,o),
(28,452,cs),
(28,384,o),
(84,344,o),
(148,344,cs),
(197,344,o),
(261,376,o),
(277,424,c),
(271,417,l),
(271,402,ls),
(271,367,o),
(291,348,o),
(328,348,c)
);
},
{
closed = 1;
nodes = (
(103,370,o),
(57,397,o),
(57,449,cs),
(57,499,o),
(104,530,o),
(171,530,cs),
(203,530,o),
(238,532,o),
(270,527,c),
(270,472,ls),
(270,411,o),
(211,370,o),
(152,370,cs)
);
}
);
width = 356;
}
);
unicode = 170;
},
{
glyphname = guillemotleft;
layers = (
{
layerId = "8644C546-E7FE-4718-8D12-21E7933BC7CE";
shapes = (
{
closed = 1;
nodes = (
(336,255,l),
(635,-20,l),
(749,89,l),
(569,255,l),
(748,421,l),
(634,530,l)
);
},
{
closed = 1;
nodes = (
(10,255,l),
(309,-20,l),
(423,89,l),
(243,255,l),
(422,421,l),
(308,530,l)
);
}
);
width = 769;
},
{
layerId = "B882EE25-4F70-487C-AAE1-5981B86ECF6B";
shapes = (
{
closed = 1;
nodes = (
(230,255,l),
(512,-6,l),
(568,50,l),
(346,255,l),
(567,460,l),
(511,516,l)
);
},
{
closed = 1;
nodes = (
(10,255,l),
(292,-6,l),
(348,50,l),
(126,255,l),
(347,460,l),
(291,516,l)
);
}
);
width = 586;
},
{
layerId = "DF327079-0489-4E1B-B65C-406769ADC3EE";
shapes = (
{
closed = 1;
nodes = (
(232,255,l),
(514,-5,l),
(539,23,l),
(287,255,l),
(538,487,l),
(513,515,l)
);
},
{
closed = 1;
nodes = (
(18,255,l),
(300,-5,l),
(325,23,l),
(73,255,l),
(324,487,l),
(299,515,l)
);
}
);
width = 563;
}
);
leftKerningGroup = guilsinglleft2;
rightKerningGroup = guilsinglleft;
unicode = 171;
},
